<svg version="1.2" xmlns="http://www.w3.org/2000/svg" viewBox="0 0 30 30" width="30" height="30">
	<title>gender-svg</title>
	<style>
		.s0 { fill: #000000 } 
	</style>
	<g id="Layer">
		<path id="Layer" fill-rule="evenodd" class="s0" d="m6.5 17.7q0.3 0.3 0.3 0.7 0 0.5-0.3 0.8-0.3 0.2-0.7 0.2-0.4 0-0.7-0.3l-1.4-1.4-2 2q-0.3 0.3-0.7 0.3-0.4 0-0.7-0.3-0.3-0.3-0.3-0.7 0-0.4 0.3-0.7l2-2-1.4-1.4q-0.3-0.3-0.3-0.7 0-0.4 0.3-0.7 0.3-0.3 0.7-0.3 0.4 0 0.7 0.3l1.4 1.4 3.7-3.7c-2.2-3-1.8-7.1 1-9.5 2.8-2.4 7-2.3 9.6 0.3 2.6 2.6 2.7 6.8 0.3 9.6-2.4 2.8-6.5 3.2-9.5 1l-3.7 3.7zm4.6-15.3q-0.9 0.3-1.6 1-0.8 0.8-1.1 1.7-0.4 0.9-0.4 1.9c0 2 1.2 3.8 3.1 4.6 1.8 0.8 4 0.4 5.4-1.1 1.5-1.4 1.9-3.6 1.1-5.4-0.8-1.9-2.6-3.1-4.6-3.1q-1 0-1.9 0.4z"/>
		<path id="Layer" fill-rule="evenodd" class="s0" d="m29.4 10.1q0.2 0.1 0.3 0.2 0.1 0.1 0.2 0.3 0.1 0.2 0.1 0.4v5q0 0.4-0.3 0.7-0.3 0.3-0.7 0.3-0.4 0-0.7-0.3-0.3-0.3-0.3-0.7v-2.6l-5.4 5.4c2.2 3 1.8 7.1-1 9.5-2.8 2.4-7 2.3-9.6-0.3-2.6-2.6-2.7-6.8-0.3-9.6 2.4-2.8 6.5-3.2 9.5-1l5.4-5.4h-2.6q-0.4 0-0.7-0.3-0.3-0.3-0.3-0.7 0-0.4 0.3-0.7 0.3-0.3 0.7-0.3h5q0.2 0 0.4 0.1zm-10.5 17.5q0.9-0.4 1.6-1.1 0.7-0.7 1.1-1.6 0.4-0.9 0.4-1.9c0-2-1.2-3.8-3.1-4.6-1.9-0.8-4-0.4-5.4 1.1-1.5 1.4-1.9 3.5-1.1 5.4 0.8 1.9 2.6 3.1 4.6 3.1q1 0 1.9-0.4z"/>
	</g>
</svg>