<svg version="1.2" xmlns="http://www.w3.org/2000/svg" viewBox="0 0 1850 1850" width="1850" height="1850">
	<title>77988552_Mail Envelope With 1 Alert-ai</title>
	<style>
		.s0 { fill: #2d5ee8 } 
		.s1 { fill: #1e4aad } 
		.s2 { fill: #fe9c28 } 
		.s3 { fill: #febd00 } 
		.s4 { fill: #ffd734 } 
		.s5 { fill: #e04149 } 
		.s6 { fill: #ffffff } 
	</style>
	<g id="&lt;Group&gt;">
		<path id="&lt;Path&gt;" class="s0" d="m1850 925c0 510.9-414.1 925-925 925-510.9 0-925-414.1-925-925 0-510.9 414.1-925 925-925 510.9 0 925 414.1 925 925z"/>
		<path id="&lt;Path&gt;" class="s1" d="m1850 925c0 451.9-324 828.1-752.4 908.9l-717.7-567.5 1090.2-682.8 379 299.8q0.9 20.7 0.9 41.6z"/>
		<g id="&lt;Group&gt;">
			<path id="&lt;Path&gt;" class="s2" d="m1470.1 583.6c-7.3-6.6-17-10.5-27.6-10.5h-1035c-10.6 0-20.3 3.9-27.6 10.5-8.4 7.7-13.8 18.7-13.8 30.9v621c0 12.2 5.4 23.2 13.8 30.9 7.3 6.6 17 10.5 27.6 10.5h1035c10.8 0 20.5-3.9 27.8-10.7 8.5-7.7 13.6-18.7 13.6-30.7v-621c0-12.2-5.4-23.2-13.8-30.9z"/>
			<path id="&lt;Path&gt;" class="s3" d="m827.9 925l-448 341.4c-8.4-7.7-13.8-18.7-13.8-30.9v-621c0-12.2 5.4-23.2 13.8-30.9z"/>
			<path id="&lt;Path&gt;" class="s3" d="m1483.9 614.5v621c0 12-5.1 23-13.6 30.7l-448.2-341.2 448-341.4c8.4 7.7 13.8 18.7 13.8 30.9z"/>
			<path id="&lt;Path&gt;" class="s4" d="m1470.1 583.6l-448 341.4-68.7 52.4c-16.8 13-40 13-56.8 0l-68.7-52.4-448-341.4c7.3-6.6 17-10.5 27.6-10.5h1035c10.6 0 20.3 3.9 27.6 10.5z"/>
		</g>
		<g id="&lt;Group&gt;">
			<path id="&lt;Path&gt;" class="s5" d="m1600.4 568.6c0 74.4-60.3 134.8-134.8 134.8-74.4 0-134.8-60.4-134.8-134.8 0-74.5 60.4-134.8 134.8-134.8 74.5 0 134.8 60.3 134.8 134.8z"/>
			<g id="&lt;Group&gt;">
				<g id="&lt;Group&gt;">
					<path id="&lt;Compound Path&gt;" class="s6" d="m1455.9 614.5v-86.7l-19.9 10.9v-18.1l25.6-14h15.9v107.9h17.7v16h-58.5v-16z"/>
				</g>
			</g>
		</g>
	</g>
</svg>