<svg version="1.2" xmlns="http://www.w3.org/2000/svg" viewBox="0 0 816 618">
	<style>
		tspan { white-space:pre } 
		.s0 { fill: #ceeded } 
		.s1 { fill: #d3ede8 } 
		.s2 { mix-blend-mode: multiply;fill: #a4d8d6 } 
		.s3 { fill: #f49600 } 
		.s4 { fill: #ededed } 
		.s5 { fill: #13d2c2 } 
		.s6 { opacity: .1;fill: #020202 } 
		.s7 { fill: #f7f7f7 } 
		.s8 { fill: #ffffff } 
		.s9 { fill: #b5bbc1 } 
		.s10 { fill: #fdad13 } 
		.s11 { opacity: .3;mix-blend-mode: multiply;fill: #fdad13 } 
		.s12 { mix-blend-mode: screen;fill: #fdad13 } 
		.t13 { font-size: 31px;fill: #b5bbc1;font-weight: 700;font-family: "Rubik-Bold", "Rubik" } 
		.s14 { fill: #fe693c } 
		.s15 { opacity: .3;mix-blend-mode: multiply;fill: #fe693c } 
		.s16 { mix-blend-mode: screen;fill: #fe693c } 
		.s17 { mix-blend-mode: multiply;fill: #ceeded } 
		.s18 { fill: none;stroke: #0284c4;stroke-miterlimit:10;stroke-width: 2 } 
		.s19 { fill: none;stroke: #0284c4;stroke-miterlimit:10;stroke-width: 2;stroke-dasharray: 15.86242,15.86242 } 
		.s20 { fill: #06637f } 
		.s21 { fill: #0775a0 } 
		.s22 { fill: #0284c4 } 
		.s23 { mix-blend-mode: screen;fill: none;stroke: #0284c4;stroke-linecap: round;stroke-miterlimit:10;stroke-width: 6 } 
		.s24 { opacity: .5;fill: #ffffff } 
		.s25 { opacity: .3;mix-blend-mode: multiply;fill: none;stroke: #fdad13;stroke-linecap: round;stroke-linejoin: round;stroke-width: 4 } 
		.s26 { mix-blend-mode: screen;fill: none;stroke: #13d2c2;stroke-linecap: round;stroke-miterlimit:10;stroke-width: 8 } 
	</style>
	<g id="DESIGNED BY FREEPIK">
		<g id="&lt;Group&gt;">
			<path id="&lt;Path&gt;" class="s0" d="m781.4 376.5c0 91.6-32.8 175.7-87.2 240.9h-578.1c-54.4-65.2-87.2-149.3-87.2-240.9 0-207.8 168.4-376.3 376.2-376.3 207.8 0 376.3 168.5 376.3 376.3z"/>
			<g id="&lt;Group&gt;">
				<path id="&lt;Path&gt;" class="s1" d="m225.4 317.3h-121.7c-8.8 0-15.9-7.1-15.9-15.9v-6.6c0-8.7 7.1-15.8 15.9-15.8h121.7c8.7 0 15.8 7.1 15.8 15.8v6.6c0 8.8-7.1 15.9-15.8 15.9z"/>
				<path id="&lt;Path&gt;" class="s1" d="m188 290.4h-26.7c-8.8 0-15.9-7.1-15.9-15.9v-6.6c0-8.8 7.1-15.9 15.9-15.9h26.7c8.8 0 15.9 7.1 15.9 15.9v6.6c0 8.8-7.1 15.9-15.9 15.9z"/>
			</g>
			<g id="&lt;Group&gt;">
				<path id="&lt;Path&gt;" class="s1" d="m593.3 417.1h121.7c8.8 0 15.9-7.1 15.9-15.8v-6.6c0-8.8-7.1-15.9-15.9-15.9h-121.7c-8.7 0-15.8 7.1-15.8 15.9v6.6c0 8.7 7.1 15.8 15.8 15.8z"/>
				<path id="&lt;Path&gt;" class="s1" d="m630.7 390.2h26.7c8.8 0 15.9-7.1 15.9-15.8v-6.7c0-8.7-7.1-15.8-15.9-15.8h-26.7c-8.8 0-15.9 7.1-15.9 15.8v6.7c0 8.7 7.1 15.8 15.9 15.8z"/>
			</g>
			<path id="&lt;Path&gt;" class="s2" d="m667.3 617.1h-524.4c-7.2 0-13.1-5.9-13.1-13.2v-5.5c0-7.3 5.9-13.2 13.1-13.2h524.4c7.3 0 13.2 5.9 13.2 13.2v5.5c0 7.3-5.9 13.2-13.2 13.2z"/>
			<path id="&lt;Path&gt;" class="s3" d="m579.3 593.2h-348.3c-18.2 0-32.9-14.7-32.9-32.9v-234.1h414.1v234.1c0 18.2-14.7 32.9-32.9 32.9z"/>
			<path id="&lt;Path&gt;" class="s3" d="m612.2 326.2h-207.1-207l185.6-196.1c11.7-12.3 31.2-12.3 42.9 0z"/>
			<path id="&lt;Path&gt;" class="s4" d="m550.2 426.9h-325.6c-7.5 0-13.6-6.1-13.6-13.7v-231.3c0-7.5 6.1-13.7 13.6-13.7h325.6c7.6 0 13.7 6.2 13.7 13.7v231.3c0 7.6-6.1 13.7-13.7 13.7z"/>
			<g id="&lt;Group&gt;">
				<path id="&lt;Path&gt;" class="s5" d="m172.2 196.4h118.2c12.2 0 22.1-9.9 22.1-22.1v-9.2c0-12.2-9.9-22.1-22.1-22.1h-118.2c-12.2 0-22.1 9.9-22.1 22.1v9.2c0 12.2 9.9 22.1 22.1 22.1z"/>
				<path id="&lt;Path&gt;" class="s5" d="m224.2 158.9h37.3c12.2 0 22.1-9.9 22.1-22.1v-9.2c0-12.3-9.9-22.1-22.1-22.1h-37.3c-12.2 0-22.1 9.8-22.1 22.1v9.2c0 12.2 9.9 22.1 22.1 22.1z"/>
			</g>
			<path id="&lt;Path&gt;" class="s6" d="m592.3 433.8h-325.6c-7.5 0-13.6-6.1-13.6-13.6v-231.3c0-7.6 6.1-13.7 13.6-13.7h325.6c7.6 0 13.7 6.1 13.7 13.7v231.3c0 7.5-6.1 13.6-13.7 13.6z"/>
			<path id="&lt;Path&gt;" class="s7" d="m583.2 443.8h-325.5c-7.6 0-13.7-6.1-13.7-13.7v-231.3c0-7.5 6.1-13.6 13.7-13.6h325.5c7.6 0 13.7 6.1 13.7 13.6v231.3c0 7.6-6.1 13.7-13.7 13.7z"/>
			<path id="&lt;Path&gt;" class="s6" d="m567.9 479.2h-325.5c-7.6 0-13.7-6.1-13.7-13.6v-231.3c0-7.6 6.1-13.7 13.7-13.7h325.5c7.6 0 13.7 6.1 13.7 13.7v231.3c0 7.5-6.1 13.6-13.7 13.6z"/>
			<path id="&lt;Path&gt;" class="s8" d="m559.5 490.1h-325.6c-7.5 0-13.7-6.1-13.7-13.6v-231.3c0-7.6 6.2-13.7 13.7-13.7h325.6c7.5 0 13.6 6.1 13.6 13.7v231.3c0 7.5-6.1 13.6-13.6 13.6z"/>
			<g id="&lt;Group&gt;">
				<path id="&lt;Path&gt;" class="s9" d="m523.2 349.1h-253c-1.7 0-3-1.3-3-3v-1.2c0-1.7 1.3-3 3-3h253c1.7 0 3 1.3 3 3v1.2c0 1.7-1.3 3-3 3z"/>
				<path id="&lt;Path&gt;" class="s9" d="m523.2 373.3h-253c-1.7 0-3-1.4-3-3v-1.3c0-1.6 1.3-3 3-3h253c1.7 0 3 1.4 3 3v1.3c0 1.6-1.3 3-3 3z"/>
				<path id="&lt;Path&gt;" class="s9" d="m523.2 397.5h-253c-1.7 0-3-1.4-3-3v-1.3c0-1.6 1.3-3 3-3h253c1.7 0 3 1.4 3 3v1.3c0 1.6-1.3 3-3 3z"/>
				<path id="&lt;Path&gt;" class="s9" d="m523.2 421.6h-253c-1.7 0-3-1.3-3-3v-1.2c0-1.7 1.3-3 3-3h253c1.7 0 3 1.3 3 3v1.2c0 1.7-1.3 3-3 3z"/>
				<path id="&lt;Path&gt;" class="s9" d="m523.2 445.8h-253c-1.7 0-3-1.3-3-3v-1.2c0-1.7 1.3-3 3-3h253c1.7 0 3 1.3 3 3v1.2c0 1.7-1.3 3-3 3z"/>
			</g>
			<path id="&lt;Path&gt;" class="s10" d="m612.2 326.2v227.2c0 22-17.8 39.9-39.8 39.9h-334.5c-22 0-39.8-17.9-39.8-39.9v-227.2l207 134z"/>
			<path id="&lt;Path&gt;" class="s11" d="m555.8 362.7v134.3c0 22-17.8 39.8-39.8 39.8h-317.9v16.6c0 22 17.8 39.9 39.8 39.9h334.5c22 0 39.8-17.9 39.8-39.9v-227.2z"/>
			<path id="&lt;Path&gt;" class="s12" d="m237.5 513h-4.3c-5.8 0-10.5-4.7-10.5-10.5v-29c0-5.8 4.7-10.5 10.5-10.5h4.3c5.8 0 10.5 4.7 10.5 10.5v29c0 5.8-4.7 10.5-10.5 10.5z"/>
			<path id="&lt;Path&gt;" class="s12" d="m237.5 453.9h-4.3c-5.8 0-10.5-4.7-10.5-10.5v-7.7c0-5.8 4.7-10.5 10.5-10.5h4.3c5.8 0 10.5 4.7 10.5 10.5v7.7c0 5.8-4.7 10.5-10.5 10.5z"/>
			<text id="@
" style="transform: matrix(2,0,0,2,264.147,313.199)" >
				<tspan x="0" y="0" class="t13">@
</tspan>
			</text>
			<path id="&lt;Path&gt;" class="s9" d="m457.5 297.5h-120.5c-1.6 0-3-1.4-3-3v-1.3c0-1.7 1.4-3 3-3h120.5c1.7 0 3 1.3 3 3v1.3c0 1.6-1.3 3-3 3z"/>
			<path id="&lt;Path&gt;" class="s9" d="m521 321.6h-184c-1.6 0-3-1.3-3-3v-1.2c0-1.7 1.4-3 3-3h184c1.7 0 3 1.3 3 3v1.2c0 1.7-1.3 3-3 3z"/>
			<path id="&lt;Path&gt;" class="s6" d="m681.9 479.6c0 35.6-28.9 64.5-64.5 64.5-35.5 0-64.4-28.9-64.4-64.5 0-35.6 28.9-64.4 64.4-64.4 35.6 0 64.5 28.8 64.5 64.4z"/>
			<path id="&lt;Path&gt;" class="s14" d="m673.4 469.2c0 35.6-28.8 64.4-64.4 64.4-35.6 0-64.5-28.8-64.5-64.4 0-35.6 28.9-64.5 64.5-64.5 35.6 0 64.4 28.9 64.4 64.5z"/>
			<path id="&lt;Path&gt;" class="s15" d="m673.4 469.2c0 35.6-28.8 64.4-64.4 64.4-22.1 0-41.5-11-53.1-28 10.3 7.1 22.9 11.3 36.4 11.3 35.6 0 64.4-28.9 64.4-64.4 0-13.6-4.1-26.1-11.2-36.4 16.9 11.6 27.9 31 27.9 53.1z"/>
			<g id="&lt;Group&gt;">
				<path id="&lt;Path&gt;" class="s16" d="m559 472.9q-0.1 0-0.1 0c-3.3-0.1-6-2.8-6-6.1 0.3-17.5 11.3-50.6 51.3-51.1q0.1 0 0.1 0c3.3 0 6 2.6 6 6 0.1 3.3-2.6 6-5.9 6.1-38.2 0.5-39.3 37.6-39.4 39.2 0 3.2-2.7 5.9-6 5.9z"/>
			</g>
			<g id="&lt;Group&gt;">
				<path id="&lt;Path&gt;" class="s17" d="m28.3 499h106.3c10.9 0 19.8-8.9 19.8-19.9v-8.3c0-11-8.9-19.8-19.8-19.8h-106.3c-11 0-19.9 8.8-19.9 19.8v8.3c0 11 8.9 19.9 19.9 19.9z"/>
				<path id="&lt;Path&gt;" class="s17" d="m56.6 465.2h33.5c11 0 19.9-8.9 19.9-19.8v-8.3c0-11-8.9-19.9-19.9-19.9h-33.5c-10.9 0-19.8 8.9-19.8 19.9v8.3c0 10.9 8.9 19.8 19.8 19.8z"/>
			</g>
			<g id="&lt;Group&gt;">
				<path id="&lt;Path&gt;" class="s5" d="m20.5 492.1h106.3c11 0 19.9-8.9 19.9-19.9v-8.2c0-11-8.9-19.9-19.9-19.9h-106.3c-10.9 0-19.8 8.9-19.8 19.9v8.2c0 11 8.9 19.9 19.8 19.9z"/>
				<path id="&lt;Path&gt;" class="s5" d="m48.9 458.4h33.5c11 0 19.9-8.9 19.9-19.9v-8.3c0-10.9-8.9-19.8-19.9-19.8h-33.5c-11 0-19.9 8.9-19.9 19.8v8.3c0 11 8.9 19.9 19.9 19.9z"/>
			</g>
			<g id="&lt;Group&gt;">
				<g id="&lt;Group&gt;">
					<path id="&lt;Path&gt;" fill-rule="evenodd" class="s18" d="m207 247.4q-3.3 2.2-6.6 4.5"/>
					<path id="&lt;Path&gt;" fill-rule="evenodd" class="s19" d="m187.4 261c-15.2 11.1-29.5 23.5-39.6 39.2-14.5 22.4-18.7 53.7-2.9 75.1 13.5 18.4 37.7 25.2 60.3 27.8 52.6 6 106.1-4.3 155.3-23.6 49.2-19.3 94.5-47.3 137.9-77.6 19.9-13.9 39.8-28.4 56.5-46.2 18.8-19.9 27.3-45.4 38.5-70.2 3.7-8.3 7.1-19.2 0.6-25.6-3.6-3.5-9-4.2-14-3.5-9.7 1.4-18.5 8.3-22.2 17.5-3.6 9.2-2 20.2 4 28 8.4 10.7 23.8 14 37.1 11.2 13.3-2.8 24.9-10.7 35.6-19.1 22.6-17.8 42.7-38.8 59.5-62.2"/>
					<path id="&lt;Path&gt;" fill-rule="evenodd" class="s18" d="m698.5 125.3q2.2-3.3 4.4-6.7"/>
				</g>
			</g>
			<g id="&lt;Group&gt;">
				<path id="&lt;Path&gt;" class="s20" d="m633.6 201.8l45.5-42.5-25.6-7.2z"/>
				<g id="&lt;Group&gt;">
					<path id="&lt;Path&gt;" class="s21" d="m633.9 139.4l-0.3 62.4 21.2-48.6 126.3-99.5-148.3 82z"/>
					<path id="&lt;Path&gt;" class="s22" d="m597 121.8l37.4 17.2 146.7-85.3-183.9 63.7c-2.1 0.7-2.2 3.5-0.2 4.4z"/>
					<path id="&lt;Path&gt;" class="s22" d="m781.1 53.7l-126.3 99.5 48.5 23.5c1.6 0.8 3.5 0.2 4.4-1.3z"/>
				</g>
				<path id="&lt;Path&gt;" fill-rule="evenodd" class="s23" d="m623.7 118.5l86.8-33.2"/>
			</g>
			<g id="&lt;Group&gt;">
				<path id="&lt;Path&gt;" class="s24" d="m126.9 274.4c0 6.2-5 11.2-11.2 11.2-6.2 0-11.2-5-11.2-11.2 0-6.2 5-11.2 11.2-11.2 6.2 0 11.2 5 11.2 11.2z"/>
				<path id="&lt;Path&gt;" class="s24" d="m349.5 122.7c0 6.2-5 11.2-11.2 11.2-6.2 0-11.2-5-11.2-11.2 0-6.2 5-11.2 11.2-11.2 6.2 0 11.2 5 11.2 11.2z"/>
				<path id="&lt;Path&gt;" class="s24" d="m172.2 527.2c0 6.2-5 11.2-11.2 11.2-6.2 0-11.2-5-11.2-11.2 0-6.2 5-11.2 11.2-11.2 6.2 0 11.2 5 11.2 11.2z"/>
				<path id="&lt;Path&gt;" class="s24" d="m98.4 312.3c0 12-9.7 21.8-21.8 21.8-12 0-21.8-9.8-21.8-21.8 0-12.1 9.8-21.8 21.8-21.8 12.1 0 21.8 9.7 21.8 21.8z"/>
				<path id="&lt;Path&gt;" class="s24" d="m727.5 425.1c0 9.7-7.9 17.6-17.6 17.6-9.7 0-17.6-7.9-17.6-17.6 0-9.7 7.9-17.6 17.6-17.6 9.7 0 17.6 7.9 17.6 17.6z"/>
				<path id="&lt;Path&gt;" class="s24" d="m722.5 469.4c0 6.8-5.5 12.2-12.2 12.2-6.8 0-12.2-5.4-12.2-12.2 0-6.7 5.4-12.2 12.2-12.2 6.7 0 12.2 5.5 12.2 12.2z"/>
			</g>
			<path id="&lt;Path&gt;" fill-rule="evenodd" class="s25" d="m206.1 351.5l198.6 132.6 189.8-119.7"/>
			<g id="&lt;Group&gt;">
				<g id="&lt;Group&gt;">
					<path id="&lt;Path&gt;" class="s17" d="m791.5 376.1h-127.5c-13.2 0-23.9-10.7-23.9-23.8v-10c0-13.1 10.7-23.8 23.9-23.8h127.5c13.2 0 23.8 10.7 23.8 23.8v10c0 13.1-10.6 23.8-23.8 23.8z"/>
					<path id="&lt;Path&gt;" class="s17" d="m735.4 335.6h-40.2c-13.2 0-23.8-10.6-23.8-23.8v-9.9c0-13.2 10.6-23.9 23.8-23.9h40.2c13.1 0 23.8 10.7 23.8 23.9v9.9c0 13.2-10.7 23.8-23.8 23.8z"/>
				</g>
				<g id="&lt;Group&gt;">
					<path id="&lt;Path&gt;" class="s5" d="m778.5 365.8h-127.5c-13.2 0-23.9-10.6-23.9-23.8v-10c0-13.1 10.7-23.8 23.9-23.8h127.5c13.1 0 23.8 10.7 23.8 23.8v10c0 13.2-10.7 23.8-23.8 23.8z"/>
					<path id="&lt;Path&gt;" class="s5" d="m722.3 325.4h-40.1c-13.2 0-23.9-10.7-23.9-23.9v-9.9c0-13.2 10.7-23.9 23.9-23.9h40.1c13.2 0 23.9 10.7 23.9 23.9v9.9c0 13.2-10.7 23.9-23.9 23.9z"/>
				</g>
				<path id="&lt;Path&gt;" fill-rule="evenodd" class="s26" d="m671.4 306.8c0 0-9.4-25.8 18.4-30"/>
				<path id="&lt;Path&gt;" fill-rule="evenodd" class="s26" d="m215.7 146.1c0 0-9.4-25.8 18.4-30"/>
				<path id="&lt;Path&gt;" fill-rule="evenodd" class="s26" d="m44.9 448.2c0 0-9.4-25.8 18.4-30"/>
			</g>
		</g>
	</g>
</svg>