<svg version="1.2" xmlns="http://www.w3.org/2000/svg" viewBox="0 0 836 770">
<g id="&lt;Group&gt;">
		<g id="&lt;Group&gt;">
			<path id="&lt;Path&gt;" fill="#00a282" d="m546.5 97.3l-128.5-97-128 96.6-289.5 218.2 289.5 218.3 128 96.5 128.5-96.9 289-217.9z"/>
		</g>
		<g id="&lt;Group&gt;">
			<path id="&lt;Path&gt;" fill="#00a282" d="m416.8 662.8l-130.1-100.7-265.7 207.6h792.6l-266.2-208z"/>
		</g>
		<g id="&lt;Group&gt;">
			<path id="&lt;Path&gt;" fill="#00a282" d="m835.5 751.6l-270.2-205.1 270.2-205z"/>
		</g>
		<g id="&lt;Group&gt;">
			<path id="&lt;Path&gt;" fill="#00a282" d="m0.5 751.6l270.2-205.1-270.2-205z"/>
		</g>
		<g id="&lt;Group&gt;">
			<path id="&lt;Compound Path&gt;" fill-rule="evenodd" fill="#ffffff" d="m444.5 445.5c-24.7 11.4-46.4 15.6-72.7 15.6-76.4 0-111.4-49.8-94.3-118.7 18.6-75 91.3-140.4 180.7-140.4 79.6 0 109.2 51 94.8 109.2-14.1 56.7-59.4 86.7-95.1 86.7-17.2 0-27.8-11.4-23.3-33.4h-1.1c-16.7 19.4-39.2 33.4-62.4 33.4-24 0-38.1-18.6-30.5-49 11.8-48.4 59-86.8 110.8-86.8 17.9 0 34.2 3.8 43.7 8.7l-29.6 66.6c-12.2 27.8-9.6 39.6 2.2 40 16.8 0 50.7-17.9 62.5-64.7 12.9-52.5-13.7-92.8-80.3-92.8-56 0-130.9 47.5-148.8 120.2-16.4 64.7 20.9 102.4 79.1 102.4 21.3 0 44.2-5 62.4-14.1zm16.8-159.1c-3.5-1.1-11.8-3-19.8-3-29.3 0-61.7 27-70 59.7-3.8 15.2 0 28.9 17.9 28.9 19.4 0 44.5-25.8 54.4-47.1z"/>
		</g>
	</g>
</svg>