<?xml version="1.0" encoding="utf-8"?>
<!-- Generator: Adobe Illustrator 27.9.0, SVG Export Plug-In . SVG Version: 6.00 Build 0)  -->
<svg version="1.1" id="Layer_1" xmlns="http://www.w3.org/2000/svg" xmlns:xlink="http://www.w3.org/1999/xlink" x="0px" y="0px"
	 viewBox="0 0 1500 1500" style="enable-background:new 0 0 1500 1500;" xml:space="preserve">
<style type="text/css">
	.st0{fill:#002A4D;}
</style>
<g>
	<path class="st0" d="M750,1C336.35,1,1,336.35,1,750c0,277.88,151.32,520.42,376.06,649.69c45.56-23.31,198.54-115.11,301.96-340.2
		c0,0-11.48,256.68-103.49,419.07C631.51,1491.92,689.92,1499,750,1499c413.67,0,749-335.33,749-749C1499,336.35,1163.67,1,750,1z
		 M648,218.33c14.4-4.16,29.78,4.21,33.89,18.43c4.04,14.01-4.7,29.97-18.6,33.98c-14,4.04-29.72-4.64-33.86-18.7
		C625.2,237.66,633.56,222.51,648,218.33z M493.44,281.53c21.16-6.44,44.18,5.62,50.64,26.51c6.45,20.88-5.84,43.69-27.03,50.2
		c-21.67,6.66-43.56-4.88-50.17-26.47C460.32,310.38,472.16,287.99,493.44,281.53z M356.91,386.17c35.4-9.2,74.56,25.26,55.04,67.17
		c-2.92,6.25-7.09,11.96-12.38,16.38c-28.25,23.56-68.92,7.54-77.75-23.52C314.47,420.39,330.47,393.03,356.91,386.17z
		 M792.92,998.55c-56.8-20.74-115.4-35.64-174.55-44.69c-99.8-15.17-201.84-13.78-301.51,4.32c91.31-83.1,195.3-144.62,305.13-184.3
		c5.7-38.98,14.9-77.26,27.56-114.7c34.24-102.72,93.41-199.05,177.06-279.38c4.74-4.45,9.61-9.04,14.62-13.08
		c47.89,112.33,64.31,234.96,49.28,353.98c-5.03,41.35-13.66,82.27-26.17,122.36c73.5,86.02,128.48,182.35,164.81,283.55
		C956.07,1071.48,876.17,1028.61,792.92,998.55z"/>
</g>
</svg>
