<?xml version="1.0" encoding="utf-8"?>
<!-- Generator: Adobe Illustrator 27.9.0, SVG Export Plug-In . SVG Version: 6.00 Build 0)  -->
<svg version="1.1" id="Layer_1" xmlns="http://www.w3.org/2000/svg" xmlns:xlink="http://www.w3.org/1999/xlink" x="0px" y="0px"
	 viewBox="0 0 1560 1560" style="enable-background:new 0 0 1560 1560;" xml:space="preserve">
<style type="text/css">
	.st0{fill:#002A4D;}
	.st1{fill:#00AC8D;}
</style>
<g>
	<g>
		<path class="st0" d="M204.55,1101.28c-10.85,0-20.8-2.39-29.85-7.17c-9.06-4.78-15.8-10.97-20.23-18.57
			c-1.42-2.49-1.76-4.55-1.02-6.17c0.74-1.62,2.64-3.07,5.71-4.35l1.96-0.78c1.19-0.46,2.21-0.74,3.07-0.83
			c0.85-0.09,1.75,0.1,2.68,0.57c0.94,0.46,1.83,1.09,2.68,1.87c0.85,0.78,1.99,1.96,3.41,3.52c8.52,9.34,18.99,14,31.43,14
			c8.4,0,14.95-1.71,19.63-5.13c4.68-3.42,7.03-8.2,7.03-14.35c0-3.19-0.84-5.96-2.51-8.31c-1.68-2.35-3.93-4.23-6.77-5.65
			c-2.84-1.42-6.09-2.65-9.75-3.7c-3.66-1.04-7.52-2.04-11.58-3c-4.06-0.96-8.12-2-12.18-3.13c-4.06-1.13-7.92-2.62-11.58-4.48
			c-3.66-1.85-6.91-4.06-9.75-6.61c-2.84-2.55-5.1-5.87-6.77-9.96c-1.68-4.09-2.51-8.77-2.51-14.04c0-10.67,4-19.39,12.01-26.18
			c8.01-6.78,18.31-10.17,30.92-10.17c9.37,0,18.27,2.12,26.7,6.35c8.43,4.23,14.55,9.62,18.35,16.18c2.9,5.16,1.5,8.61-4.17,10.35
			l-2.9,0.87c-2.1,0.64-3.86,0.61-5.28-0.09c-1.42-0.7-3.52-2.35-6.3-4.96c-3.8-3.54-7.68-6.14-11.63-7.83
			c-3.95-1.68-8.53-2.52-13.76-2.52c-7.55,0-13.51,1.61-17.89,4.83c-4.37,3.22-6.56,7.61-6.56,13.17c0,3.36,0.84,6.26,2.51,8.7
			c1.67,2.43,3.95,4.38,6.81,5.83c2.87,1.45,6.15,2.68,9.84,3.7c3.69,1.01,7.58,1.97,11.67,2.87c4.09,0.9,8.16,1.88,12.22,2.96
			c4.06,1.07,7.93,2.49,11.63,4.26c3.69,1.77,6.97,3.91,9.84,6.44c2.87,2.52,5.14,5.83,6.81,9.91c1.67,4.09,2.51,8.83,2.51,14.22
			c0,11.19-4.26,20.22-12.78,27.09S218.46,1101.28,204.55,1101.28z"/>
		<path class="st0" d="M276.26,1099.54c-2.84,0-5.01-0.77-6.52-2.3c-1.5-1.54-2.26-3.72-2.26-6.57V973.45
			c0-2.84,0.75-5.03,2.26-6.57c1.5-1.54,3.68-2.3,6.52-2.3h2.04c2.84,0,5.01,0.77,6.52,2.3c1.5,1.54,2.26,3.73,2.26,6.57v42.78
			c2.21-5.68,6.13-10.49,11.75-14.44c5.62-3.94,12.58-5.91,20.87-5.91c13.4,0,23.47,3.91,30.19,11.74
			c6.73,7.83,10.09,20.06,10.09,36.7v46.35c0,2.84-0.75,5.03-2.26,6.57c-1.5,1.54-3.68,2.3-6.52,2.3h-2.04
			c-2.84,0-5.01-0.77-6.52-2.3c-1.5-1.54-2.26-3.72-2.26-6.57v-44.7c0-11.36-2.16-19.67-6.47-24.91c-4.32-5.25-11.1-7.87-20.36-7.87
			c-9.03,0-15.7,2.93-20.02,8.78c-4.32,5.86-6.47,14.61-6.47,26.26v42.44c0,2.84-0.75,5.03-2.26,6.57c-1.5,1.54-3.68,2.3-6.52,2.3
			H276.26z"/>
		<path class="st0" d="M462.54,997.71c2.84,0,5,0.77,6.47,2.3c1.48,1.54,2.21,3.73,2.21,6.57v84.09c0,2.9-0.74,5.1-2.21,6.61
			c-1.48,1.51-3.63,2.26-6.47,2.26h-2.13c-2.78,0-4.93-0.75-6.43-2.26c-1.5-1.51-2.26-3.71-2.26-6.61v-10.17
			c-2.38,6.2-6.4,11.22-12.05,15.04c-5.65,3.83-12.51,5.74-20.57,5.74c-13.68,0-23.82-4.01-30.41-12.04
			c-6.59-8.03-9.88-20.16-9.88-36.39v-46.26c0-2.84,0.75-5.03,2.26-6.57c1.5-1.54,3.65-2.3,6.43-2.3h2.13c2.84,0,5,0.77,6.47,2.3
			c1.48,1.54,2.21,3.73,2.21,6.57v44.7c0,11.19,2.17,19.45,6.52,24.78c4.34,5.33,11.12,8,20.31,8s15.93-2.97,20.19-8.91
			c4.26-5.94,6.39-14.68,6.39-26.22v-42.35c0-2.84,0.75-5.03,2.26-6.57c1.5-1.54,3.65-2.3,6.43-2.3H462.54z"/>
		<path class="st0" d="M547.28,995.88c13.68,0,23.82,4.01,30.41,12.04c6.59,8.03,9.88,20.16,9.88,36.39v46.35
			c0,2.84-0.75,5.03-2.26,6.57c-1.51,1.54-3.68,2.3-6.52,2.3h-2.04c-2.84,0-5.01-0.77-6.52-2.3c-1.51-1.54-2.26-3.72-2.26-6.57
			v-44.7c0-11.19-2.17-19.45-6.52-24.78c-4.34-5.33-11.11-8-20.31-8c-9.2,0-15.91,2.96-20.14,8.87c-4.23,5.91-6.35,14.64-6.35,26.18
			v42.44c0,2.84-0.75,5.03-2.26,6.57c-1.51,1.54-3.68,2.3-6.52,2.3h-2.04c-2.84,0-5.01-0.77-6.52-2.3
			c-1.51-1.54-2.26-3.72-2.26-6.57v-84.09c0-2.84,0.75-5.03,2.26-6.57c1.5-1.54,3.68-2.3,6.52-2.3h2.04c2.84,0,5.01,0.77,6.52,2.3
			c1.5,1.54,2.26,3.73,2.26,6.57v10.09c2.39-6.2,6.4-11.22,12.05-15.04C532.36,997.8,539.22,995.88,547.28,995.88z"/>
		<path class="st0" d="M632.71,1132.5c-3.18,0-5.35-0.97-6.52-2.91c-1.16-1.94-1.09-4.48,0.21-7.61l10.14-23.13l-38.75-90.87
			c-1.31-3.07-1.35-5.55-0.13-7.44c1.22-1.88,3.42-2.83,6.6-2.83h3.32c4.77,0,8.12,2.29,10.05,6.87l29.3,72.7l29.39-72.7
			c1.93-4.58,5.28-6.87,10.05-6.87h2.98c3.35,0,5.65,0.94,6.9,2.83c1.25,1.88,1.22,4.36-0.09,7.44l-49.91,117.75
			c-1.87,4.52-5.31,6.78-10.31,6.78H632.71z"/>
		<path class="st0" d="M749.91,1101.89c-6.3,0-12.19-1.15-17.67-3.43c-5.48-2.29-10.34-5.59-14.57-9.91
			c-4.23-4.32-7.57-9.91-10.01-16.78c-2.44-6.87-3.66-14.59-3.66-23.18c0-8.52,1.21-16.19,3.62-23c2.41-6.81,5.73-12.36,9.96-16.65
			c4.23-4.29,9.07-7.57,14.52-9.83c5.45-2.26,11.33-3.39,17.63-3.39c8.01,0,15.2,1.93,21.59,5.78c6.39,3.86,11,9.23,13.84,16.13
			v-11.04c0-2.84,0.75-5.03,2.26-6.57c1.5-1.54,3.65-2.3,6.43-2.3h2.13c2.84,0,5,0.77,6.47,2.3c1.48,1.54,2.21,3.73,2.21,6.57v83.92
			c0,2.9-0.74,5.1-2.21,6.61c-1.48,1.51-3.63,2.26-6.47,2.26h-2.13c-2.78,0-4.93-0.75-6.43-2.26c-1.51-1.51-2.26-3.71-2.26-6.61
			v-10.35c-2.78,6.78-7.38,12.1-13.8,15.96C764.96,1099.96,757.8,1101.89,749.91,1101.89z M754.77,1084.76
			c9.25,0,16.72-3.26,22.4-9.78c5.68-6.52,8.52-15.32,8.52-26.39c0-11.01-2.87-19.75-8.6-26.22c-5.74-6.46-13.29-9.7-22.66-9.7
			c-9.26,0-16.71,3.22-22.36,9.65c-5.65,6.43-8.47,15.19-8.47,26.26c0,11.19,2.84,20.02,8.52,26.48
			C737.79,1081.53,745.34,1084.76,754.77,1084.76z"/>
		<path class="st0" d="M868.47,1099.71c-4.94,0-8.38-2.26-10.31-6.78l-36.28-84.96c-1.31-3.07-1.38-5.55-0.21-7.44
			c1.16-1.88,3.34-2.83,6.52-2.83h3.32c4.83,0,8.21,2.29,10.14,6.87l29.3,73.22l29.3-73.22c1.93-4.58,5.31-6.87,10.14-6.87h3.15
			c3.29,0,5.54,0.94,6.73,2.83c1.19,1.88,1.14,4.36-0.17,7.44l-36.45,84.96c-1.93,4.52-5.28,6.78-10.05,6.78H868.47z"/>
		<path class="st0" d="M1018.63,1088.5c2.67,2.84,3.56,5.39,2.68,7.65c-0.88,2.26-3.22,3.39-7.03,3.39h-4.77
			c-4.26,0-7.87-1.59-10.82-4.78l-41.65-45.31v41.22c0,2.84-0.75,5.03-2.26,6.57c-1.51,1.54-3.68,2.3-6.52,2.3h-2.04
			c-2.84,0-5.01-0.77-6.52-2.3c-1.5-1.54-2.26-3.72-2.26-6.57V973.45c0-2.84,0.75-5.03,2.26-6.57c1.5-1.54,3.68-2.3,6.52-2.3h2.04
			c2.84,0,5.01,0.77,6.52,2.3c1.5,1.54,2.26,3.73,2.26,6.57v71.05l39.78-42.18c2.95-3.07,6.5-4.61,10.65-4.61h4.34
			c3.92,0,6.33,1.16,7.24,3.48c0.91,2.32-0.06,4.84-2.9,7.57l-37.99,37.91L1018.63,1088.5z"/>
		<path class="st0" d="M1127.66,1000.01c-1.48-1.54-3.64-2.31-6.47-2.31h-2.13c-2.78,0-4.93,0.77-6.43,2.31s-2.25,3.72-2.25,6.56
			v11.04c-2.85-6.9-7.46-12.27-13.85-16.13c-6.38-3.86-13.58-5.78-21.58-5.78c-6.3,0-12.18,1.13-17.64,3.39
			c-5.45,2.25-10.29,5.53-14.52,9.82c-4.23,4.29-7.55,9.85-9.97,16.66s-3.62,14.48-3.62,23c0,8.58,1.22,16.3,3.66,23.18
			c2.44,6.87,5.77,12.47,10,16.78c4.23,4.32,9.09,7.63,14.57,9.92c1.13,0.47,2.27,0.89,3.43,1.26c1.4-1.6,6.51-7.59,11.12-15.2
			c0.11-0.18,0.22-0.37,0.33-0.56c1.59-2.68,3.12-5.54,4.39-8.48c0,0-1,3.68-2.82,8.78c-0.07,0.21-0.14,0.43-0.23,0.64
			c-1.76,4.86-4.21,10.88-7.22,16.22c2.79,0.51,5.67,0.76,8.65,0.76c7.9,0,15.06-1.92,21.47-5.78c6.42-3.85,11.01-9.17,13.8-15.96
			v10.35c0,2.91,0.75,5.1,2.25,6.61s3.65,2.26,6.43,2.26h2.13c2.84,0,5-0.75,6.47-2.26c1.48-1.51,2.22-3.7,2.22-6.61v-83.92
			C1129.87,1003.74,1129.13,1001.55,1127.66,1000.01z M1084.36,1067.42c-3.67-1.37-7.46-2.35-11.29-2.95
			c-6.46-1-13.06-0.91-19.5,0.28c5.91-5.49,12.63-9.55,19.74-12.17c0.37-2.57,0.96-5.1,1.78-7.58c2.22-6.78,6.04-13.15,11.45-18.45
			c0.31-0.29,0.62-0.6,0.95-0.86c3.1,7.42,4.16,15.52,3.19,23.38c-0.32,2.73-0.88,5.43-1.69,8.08c4.75,5.68,8.31,12.04,10.66,18.73
			C1094.92,1072.24,1089.75,1069.41,1084.36,1067.42z"/>
		<path class="st0" d="M1194.43,1101.28c-8.52,0-16.77-1.61-24.74-4.83c-7.98-3.22-14.01-7.46-18.1-12.74
			c-1.76-2.32-2.26-4.55-1.49-6.7c0.77-2.14,2.6-3.65,5.49-4.52l1.79-0.52c1.76-0.7,3.52-0.81,5.28-0.35
			c1.76,0.47,3.83,1.77,6.22,3.91c6.36,5.8,14.85,8.7,25.47,8.7c7.27,0,12.95-1.26,17.04-3.78c4.09-2.52,6.13-6.01,6.13-10.48
			c0-2.49-0.74-4.62-2.22-6.39c-1.48-1.77-3.46-3.16-5.96-4.17c-2.5-1.01-5.37-1.88-8.6-2.61c-3.24-0.72-6.64-1.41-10.22-2.04
			c-3.58-0.64-7.14-1.35-10.69-2.13c-3.55-0.78-6.94-1.87-10.18-3.26c-3.24-1.39-6.1-3.06-8.6-5c-2.5-1.94-4.49-4.52-5.96-7.74
			c-1.48-3.22-2.21-6.94-2.21-11.17c0-6.03,1.86-11.33,5.58-15.91c3.72-4.58,8.59-8,14.61-10.26c6.02-2.26,12.63-3.39,19.85-3.39
			c6.76,0,13.68,1.32,20.78,3.96c7.1,2.64,12.75,6.19,16.95,10.65c2.04,2.2,2.78,4.38,2.21,6.52c-0.57,2.15-2.27,3.65-5.11,4.52
			l-1.79,0.52c-1.14,0.35-2.14,0.55-3.02,0.61c-0.88,0.06-1.87-0.14-2.98-0.61c-1.11-0.46-1.92-0.84-2.43-1.13
			c-0.51-0.29-1.59-0.96-3.24-2c-7.21-4.41-14.25-6.61-21.12-6.61c-6.47,0-11.61,1.06-15.42,3.17c-3.8,2.12-5.71,5.12-5.71,9
			c0,2.43,0.74,4.49,2.21,6.17c1.48,1.68,3.48,3,6.01,3.96c2.53,0.96,5.42,1.78,8.69,2.48c3.26,0.7,6.7,1.36,10.31,2
			c3.61,0.64,7.21,1.35,10.82,2.13c3.61,0.78,7.04,1.9,10.31,3.35c3.26,1.45,6.16,3.19,8.69,5.22c2.53,2.03,4.53,4.71,6.01,8.04
			c1.48,3.33,2.21,7.2,2.21,11.61c0,9.45-4,17.12-12.01,23C1217.26,1098.34,1206.98,1101.28,1194.43,1101.28z"/>
		<path class="st0" d="M1262.74,1099.54c-2.84,0-5.01-0.77-6.52-2.3c-1.51-1.54-2.26-3.72-2.26-6.57V973.45
			c0-2.84,0.75-5.03,2.26-6.57c1.5-1.54,3.68-2.3,6.52-2.3h2.04c2.84,0,5.01,0.77,6.52,2.3c1.5,1.54,2.26,3.73,2.26,6.57v42.78
			c2.21-5.68,6.13-10.49,11.75-14.44c5.62-3.94,12.58-5.91,20.87-5.91c13.4,0,23.47,3.91,30.19,11.74
			c6.73,7.83,10.09,20.06,10.09,36.7v46.35c0,2.84-0.75,5.03-2.26,6.57c-1.51,1.54-3.68,2.3-6.52,2.3h-2.04
			c-2.84,0-5.01-0.77-6.52-2.3c-1.51-1.54-2.26-3.72-2.26-6.57v-44.7c0-11.36-2.16-19.67-6.47-24.91
			c-4.32-5.25-11.1-7.87-20.36-7.87c-9.03,0-15.7,2.93-20.02,8.78c-4.32,5.86-6.47,14.61-6.47,26.26v42.44
			c0,2.84-0.75,5.03-2.26,6.57c-1.51,1.54-3.68,2.3-6.52,2.3H1262.74z"/>
	</g>
	<g>
		<g>
			<path class="st1" d="M1149.59,960.22c-0.97,0.5-1.14,1.83-0.34,2.58c3.87,3.62,7.58,7.45,10.8,11.74
				c1.09,1.45,2.16,2.93,3.17,4.44c0.04,0.06,0.07,0.13,0.1,0.2c0.39,1.02-0.63,2.14-1.62,1.72c-0.15-0.07-0.29-0.16-0.41-0.3
				c-0.28-0.33-0.59-0.63-0.89-0.94c-23.63-24.09-52.16-34.87-85.39-32.15c-26.1,2.13-48.32,13.08-66.71,32.11
				c-0.3,0.31-0.89,0.94-0.89,0.94s-0.25,0.24-0.4,0.3c-0.98,0.44-1.96-0.65-1.62-1.69c0.04-0.13,0.09-0.25,0.16-0.34
				c5.15-7.72,11.38-14.41,18.65-20.05c34.02-26.35,79.39-27.89,114.97-3.81c2.31,1.56,3.79,1.47,6.02-0.02
				c12.17-8.16,25.16-14.47,39.52-17.49c5.04-1.06,10.15-1.71,15.26-0.5c5.3,1.26,7.79,4.47,7.96,10.04
				c0.18,5.95-1.82,11.33-4.36,16.51c-3.09,6.29-7.22,11.84-12.06,16.85c-0.65,0.68-1.51,1.98-2.64,1.2
				c-0.64-0.57,0.09-2.14,0.42-2.87c2.69-5.77,5.37-11.56,5.72-18.06c0.39-7.16-2.68-10.47-9.76-10.86
				c-5.46-0.3-10.73,0.85-15.92,2.36c-6.66,1.94-13.1,4.62-19.27,7.83L1149.59,960.22z"/>
			<path class="st1" d="M1065.54,1152.83c-7.86-1.55-15.44-4.08-22.52-7.52c-0.48-0.23-0.57-0.9-0.18-1.27
				c1.53-1.45,3-2.86,4.49-4.23c0.86-0.79,1.78-0.23,2.66,0.07c10.21,3.52,20.69,5.36,31.45,5.71c8.29,0.26,15.36-0.82,19.27-1.61
				c2.56-0.51,4.86-1.1,6.83-1.67c0.78-0.23,0.71-1.38-0.09-1.49c-4.8-0.66-10.73-1.38-15.13-2.02c-0.72-0.11-1.24-0.76-1.18-1.5
				c0.05-0.74,0.64-1.31,1.37-1.31c5.96-0.02,14.36,0.12,19.91,0.07c1.7-0.01,4.02-0.01,6.91-0.07c1.45-0.03,2.63-0.07,3.37-0.09
				c0.43-0.05,0.76-0.39,0.8-0.81c0.05-0.43-0.23-0.85-0.64-0.97c-1.39-0.34-2.53-0.59-3.25-0.74c-6.61-1.37-13.07-2.41-15.77-2.83
				c-0.73-0.12-1.25-0.79-1.19-1.54c0-0.01,0-0.03,0-0.04c0.06-0.75,0.67-1.33,1.41-1.33l27.09,0.04c0.02,0,3.11,0.08,4.59-0.05
				c0.38-0.01,0.7-0.29,0.76-0.66c0.07-0.4-0.18-0.81-0.6-0.92c-1.13-0.29-2.25-0.59-3.38-0.89c-7.97-1.93-13.7-3.3-14.66-3.44
				c-0.15-0.02-0.71-0.09-1.02-0.52c-0.14-0.21-0.21-0.48-0.18-0.84c0.06-0.87,0.53-1.23,1.36-1.2c0.44,0.02,0.77-0.01,0.77-0.01
				c0.62,0.06,15.01,0.02,40.01-0.08c0.66,0,1.02,0.8,0.57,1.29c-5.08,5.63-10.63,10.63-16.32,14.81
				C1119.25,1152.65,1090.94,1157.84,1065.54,1152.83z"/>
			<path class="st1" d="M977.2,1162.31c-1.87-0.12-3.77-0.11-5.62-0.39c-7.2-1.09-10.48-6.63-8.91-14.82
				c1.87-9.72,6.76-17.82,12.88-25.26c1.04-1.27,2.21-2.43,3.31-3.65c0.65-0.72,1.24-1.49,2.35-0.73c1.16,0.8,0.25,1.58-0.07,2.24
				c-2.39,4.95-4.52,9.99-5.51,15.45c-0.11,0.6-0.24,1.2-0.29,1.8c-0.66,7.96,2.49,11.63,10.31,11.86
				c7.08,0.21,13.78-1.68,20.37-3.99c4.28-1.5,8.47-3.29,12.49-5.42c6.04-3.2,8.74-3.36,5.74-5.65
				c-6.66-5.06-16.99-17.18-18.55-19.78c-0.25-0.42-0.91-1.51-0.51-2.15c0.21-0.33,0.65-0.46,0.99-0.46c0.59,0,1.08,0.51,1.58,1.04
				c6.61,7.04,14.01,13.04,22.2,18.09c1.79,1.1,3,0.89,4.58-0.22c4.72-3.32,9.39-6.73,13.76-10.51c0.66-0.57,1.24-0.96,1.73-1.22
				c1.19-0.63,2.66,0.56,2.11,1.81c-0.04,0.1-0.1,0.2-0.17,0.28c-24.49,31.29-62.12,39.54-62.12,39.54
				C985.74,1161.36,981.52,1162.13,977.2,1162.31z"/>
			<g>
				<path class="st1" d="M1045.44,979.19c-4.23,1.87-8.55-1.56-8.51-5.69c0.03-3.43,2.92-6.21,6.34-6.1
					c4.58,0.15,8.06,5.79,4.23,10.23C1046.93,978.29,1046.23,978.84,1045.44,979.19z"/>
			</g>
			<g>
				<path class="st1" d="M1063.49,969.76c-2.84,0.03-5.06-2.17-5.09-5.06c-0.03-2.86,2.18-5.18,4.97-5.2
					c2.77-0.02,5.11,2.28,5.14,5.08C1068.54,967.38,1066.26,969.73,1063.49,969.76z"/>
			</g>
			<g>
				<path class="st1" d="M1087.58,960.82c-0.01,1.86-1.62,3.51-3.44,3.5c-1.82-0.01-3.4-1.64-3.41-3.52c0-1.91,1.54-3.47,3.42-3.46
					C1086.04,957.35,1087.59,958.93,1087.58,960.82z"/>
			</g>
		</g>
	</g>
	<g>
		<path class="st0" d="M1176.64,1161.09c-1.19,0-2.11-0.33-2.74-0.99c-0.63-0.66-0.95-1.61-0.95-2.85v-34.16
			c0-1.24,0.32-2.2,0.95-2.87c0.63-0.67,1.55-1,2.74-1h8.04c6.97,0,11.94,1.2,14.9,3.6c2.97,2.4,4.45,6.36,4.45,11.87
			c0,5.5-1.47,9.43-4.41,11.8c-2.94,2.37-7.89,3.56-14.84,3.56h-3.07v7.2c0,1.24-0.32,2.19-0.95,2.85
			c-0.63,0.66-1.55,0.99-2.74,0.99H1176.64z M1186.12,1142.03c3.13,0,5.41-0.58,6.83-1.74c1.42-1.16,2.13-3.07,2.13-5.74
			c0-2.63-0.71-4.53-2.13-5.67c-1.42-1.15-3.7-1.72-6.83-1.72h-4.4v14.88H1186.12z"/>
		<path class="st0" d="M1224.53,1161.09c-2.1,0-3.52-1.02-4.26-3.05l-12.89-34.38c-0.49-1.32-0.46-2.39,0.08-3.2
			c0.54-0.82,1.49-1.23,2.85-1.23h1.79c2.03,0,3.42,1.04,4.18,3.13l9.75,28.03l9.72-28.03c0.74-2.09,2.14-3.13,4.18-3.13h1.82
			c1.36,0,2.31,0.41,2.85,1.24c0.54,0.83,0.57,1.9,0.08,3.22l-12.95,34.36c-0.76,2.03-2.18,3.05-4.26,3.05H1224.53z"/>
		<path class="st0" d="M1260.74,1161.09c-1.19,0-2.11-0.33-2.74-0.99c-0.63-0.66-0.95-1.61-0.95-2.85v-29.87h-6.14
			c-1.19,0-2.11-0.33-2.74-1c-0.63-0.67-0.95-1.62-0.95-2.87v-0.42c0-1.24,0.32-2.2,0.95-2.87c0.63-0.67,1.55-1,2.74-1h20.96
			c1.19,0,2.11,0.33,2.76,1c0.64,0.67,0.96,1.62,0.96,2.87v0.42c0,1.24-0.32,2.2-0.96,2.87c-0.64,0.67-1.56,1-2.76,1h-6.05v29.87
			c0,1.24-0.32,2.19-0.96,2.85c-0.64,0.66-1.56,0.99-2.76,0.99H1260.74z"/>
		<path class="st0" d="M1278.6,1161.51c-1.43,0-2.59-0.39-3.47-1.16c-0.89-0.77-1.33-1.86-1.33-3.28s0.44-2.5,1.33-3.27
			c0.89-0.77,2.04-1.16,3.47-1.16c1.36,0,2.5,0.4,3.43,1.19c0.93,0.79,1.4,1.87,1.4,3.25c0,1.37-0.47,2.46-1.4,3.25
			C1281.11,1161.12,1279.96,1161.51,1278.6,1161.51z"/>
		<path class="st0" d="M1308.79,1161.09c-1.19,0-2.11-0.33-2.74-0.99c-0.63-0.66-0.95-1.61-0.95-2.85v-34.16
			c0-1.24,0.32-2.2,0.95-2.87c0.63-0.67,1.55-1,2.74-1h1.38c1.19,0,2.11,0.33,2.74,1c0.63,0.67,0.95,1.62,0.95,2.87v29.87h11.21
			c1.19,0,2.11,0.33,2.75,1c0.64,0.67,0.96,1.62,0.96,2.87v0.42c0,1.24-0.32,2.19-0.96,2.85c-0.64,0.66-1.56,0.99-2.75,0.99H1308.79
			z"/>
		<path class="st0" d="M1339.33,1161.09c-1.19,0-2.11-0.33-2.74-0.99c-0.63-0.66-0.95-1.61-0.95-2.85v-29.87h-6.14
			c-1.19,0-2.11-0.33-2.74-1c-0.63-0.67-0.95-1.62-0.95-2.87v-0.42c0-1.24,0.32-2.2,0.95-2.87c0.63-0.67,1.55-1,2.74-1h20.96
			c1.19,0,2.11,0.33,2.76,1c0.64,0.67,0.96,1.62,0.96,2.87v0.42c0,1.24-0.32,2.2-0.96,2.87c-0.64,0.67-1.56,1-2.76,1h-6.05v29.87
			c0,1.24-0.32,2.19-0.96,2.85c-0.64,0.66-1.56,0.99-2.76,0.99H1339.33z"/>
		<path class="st0" d="M1363.49,1161.09c-1.19,0-2.11-0.33-2.74-0.99c-0.63-0.66-0.95-1.61-0.95-2.85v-34.16
			c0-1.24,0.32-2.2,0.95-2.87c0.63-0.67,1.55-1,2.74-1h7.79c4.04,0,7.5,0.44,10.4,1.33c2.9,0.88,5.24,2.22,7.03,4.01
			c1.79,1.79,3.1,3.96,3.94,6.52c0.83,2.56,1.25,5.59,1.25,9.09c0,3.46-0.42,6.47-1.25,9.02c-0.83,2.55-2.14,4.72-3.94,6.52
			c-1.79,1.8-4.14,3.14-7.03,4.04c-2.9,0.89-6.36,1.34-10.4,1.34H1363.49z M1371.64,1152.96c3.35,0,6.01-0.47,7.99-1.43
			c1.98-0.95,3.38-2.34,4.19-4.18c0.81-1.83,1.22-4.25,1.22-7.24c0-2.99-0.41-5.4-1.23-7.23c-0.82-1.83-2.23-3.22-4.22-4.18
			c-1.99-0.96-4.67-1.44-8.04-1.44h-2.99v25.69H1371.64z"/>
		<path class="st0" d="M1402.23,1161.51c-1.43,0-2.59-0.39-3.47-1.16c-0.89-0.77-1.33-1.86-1.33-3.28s0.44-2.5,1.33-3.27
			c0.89-0.77,2.04-1.16,3.47-1.16c1.36,0,2.5,0.4,3.43,1.19c0.93,0.79,1.4,1.87,1.4,3.25c0,1.37-0.47,2.46-1.4,3.25
			C1404.73,1161.12,1403.59,1161.51,1402.23,1161.51z"/>
	</g>
</g>
<g>
	<path class="st0" d="M780.06,398.31c-127.02,0-230,102.98-230,230c0,85.33,46.47,159.81,115.48,199.5
		c13.99-7.16,60.97-35.35,92.73-104.47c0,0-3.53,78.82-31.78,128.69c17.19,4.1,35.13,6.27,53.58,6.27c127.03,0,230-102.97,230-230
		C1010.06,501.29,907.09,398.31,780.06,398.31z M748.74,465.05c4.42-1.28,9.14,1.29,10.41,5.66c1.24,4.3-1.44,9.2-5.71,10.43
		c-4.3,1.24-9.13-1.42-10.4-5.74C741.74,470.99,744.31,466.33,748.74,465.05z M701.28,484.46c6.5-1.98,13.57,1.73,15.55,8.14
		c1.98,6.41-1.79,13.42-8.3,15.41c-6.65,2.04-13.38-1.5-15.41-8.13C691.11,493.32,694.74,486.44,701.28,484.46z M659.35,516.59
		c10.87-2.82,22.89,7.76,16.9,20.63c-0.9,1.92-2.18,3.67-3.8,5.03c-8.68,7.23-21.16,2.32-23.88-7.22
		C646.32,527.1,651.24,518.7,659.35,516.59z M793.24,704.64c-17.44-6.37-35.44-10.94-53.6-13.72c-30.65-4.66-61.98-4.23-92.59,1.33
		c28.04-25.52,59.97-44.41,93.7-56.59c1.75-11.97,4.57-23.72,8.46-35.22c10.51-31.54,28.68-61.12,54.37-85.79
		c1.45-1.37,2.95-2.78,4.49-4.02c14.71,34.49,19.75,72.15,15.13,108.7c-1.54,12.7-4.2,25.26-8.04,37.57
		c22.57,26.42,39.45,56,50.61,87.07C843.34,727.03,818.8,713.87,793.24,704.64z"/>
</g>
</svg>
