<?xml version="1.0" encoding="utf-8"?>
<!-- Generator: Adobe Illustrator 27.9.0, SVG Export Plug-In . SVG Version: 6.00 Build 0)  -->
<svg version="1.1" id="Layer_1" xmlns="http://www.w3.org/2000/svg" xmlns:xlink="http://www.w3.org/1999/xlink" x="0px" y="0px"
	 viewBox="0 0 1630 580" style="enable-background:new 0 0 1630 580;" xml:space="preserve">
<style type="text/css">
	.st0{fill:#002A4D;}
	.st1{fill:#00AC8D;}
</style>
<g>
	<g>
		<path class="st0" d="M176.15,346.56c-12.04,0-23.09-2.6-33.14-7.81c-10.05-5.21-17.54-11.94-22.45-20.21
			c-1.58-2.71-1.95-4.95-1.13-6.72c0.82-1.77,2.93-3.34,6.33-4.73l2.17-0.85c1.32-0.5,2.46-0.8,3.4-0.9
			c0.95-0.09,1.94,0.11,2.98,0.62c1.04,0.51,2.03,1.18,2.98,2.03c0.95,0.85,2.21,2.13,3.78,3.83c9.45,10.16,21.08,15.24,34.89,15.24
			c9.33,0,16.59-1.86,21.79-5.58c5.2-3.72,7.8-8.93,7.8-15.62c0-3.47-0.93-6.48-2.79-9.04c-1.86-2.56-4.37-4.6-7.52-6.15
			c-3.15-1.55-6.76-2.89-10.83-4.02c-4.07-1.14-8.35-2.22-12.86-3.27c-4.51-1.04-9.01-2.18-13.52-3.41
			c-4.51-1.23-8.79-2.85-12.86-4.87c-4.07-2.02-7.67-4.42-10.83-7.19c-3.15-2.78-5.66-6.39-7.52-10.84
			c-1.86-4.45-2.79-9.54-2.79-15.29c0-11.61,4.44-21.11,13.33-28.49c8.89-7.38,20.33-11.07,34.32-11.07c10.4,0,20.28,2.3,29.64,6.91
			c9.36,4.61,16.15,10.48,20.37,17.61c3.21,5.62,1.67,9.37-4.63,11.26l-3.21,0.95c-2.33,0.7-4.29,0.66-5.86-0.09
			c-1.58-0.76-3.91-2.56-7-5.4c-4.22-3.85-8.53-6.69-12.91-8.52c-4.38-1.83-9.47-2.75-15.27-2.75c-8.38,0-15,1.75-19.85,5.25
			c-4.85,3.5-7.28,8.28-7.28,14.34c0,3.66,0.93,6.82,2.79,9.47c1.86,2.65,4.38,4.77,7.56,6.34c3.18,1.58,6.82,2.92,10.92,4.02
			c4.1,1.1,8.41,2.15,12.95,3.12c4.54,0.98,9.06,2.05,13.57,3.22c4.51,1.17,8.81,2.71,12.91,4.64c4.1,1.93,7.74,4.26,10.92,7
			c3.18,2.75,5.7,6.34,7.56,10.79c1.86,4.45,2.79,9.61,2.79,15.48c0,12.18-4.73,22.01-14.18,29.49
			C204.04,342.82,191.59,346.56,176.15,346.56z"/>
		<path class="st0" d="M255.76,344.67c-3.15,0-5.56-0.84-7.23-2.51c-1.67-1.67-2.51-4.05-2.51-7.15v-127.6
			c0-3.09,0.83-5.47,2.51-7.15c1.67-1.67,4.08-2.51,7.23-2.51h2.27c3.15,0,5.56,0.84,7.23,2.51c1.67,1.67,2.51,4.06,2.51,7.15v46.57
			c2.46-6.18,6.81-11.42,13.05-15.71c6.24-4.29,13.96-6.44,23.16-6.44c14.87,0,26.05,4.26,33.52,12.78
			c7.47,8.52,11.2,21.83,11.2,39.95v50.45c0,3.09-0.84,5.48-2.51,7.15c-1.67,1.67-4.08,2.51-7.23,2.51h-2.27
			c-3.15,0-5.56-0.84-7.23-2.51c-1.67-1.67-2.51-4.05-2.51-7.15v-48.65c0-12.37-2.4-21.41-7.19-27.12
			c-4.79-5.71-12.32-8.57-22.6-8.57c-10.02,0-17.43,3.19-22.22,9.56c-4.79,6.37-7.19,15.9-7.19,28.59v46.19
			c0,3.09-0.84,5.48-2.51,7.15c-1.67,1.67-4.08,2.51-7.23,2.51H255.76z"/>
		<path class="st0" d="M462.53,233.83c3.15,0,5.55,0.84,7.19,2.51c1.64,1.67,2.46,4.06,2.46,7.15v91.53c0,3.16-0.82,5.55-2.46,7.19
			c-1.64,1.64-4.03,2.46-7.19,2.46h-2.36c-3.09,0-5.47-0.82-7.14-2.46c-1.67-1.64-2.51-4.04-2.51-7.19v-11.08
			c-2.65,6.75-7.11,12.21-13.38,16.38c-6.27,4.16-13.88,6.25-22.83,6.25c-15.19,0-26.44-4.37-33.75-13.11
			c-7.31-8.74-10.97-21.94-10.97-39.61v-50.36c0-3.09,0.83-5.47,2.51-7.15c1.67-1.67,4.05-2.51,7.14-2.51h2.36
			c3.15,0,5.55,0.84,7.19,2.51c1.64,1.67,2.46,4.06,2.46,7.15v48.65c0,12.18,2.41,21.17,7.23,26.98c4.82,5.81,12.34,8.71,22.55,8.71
			s17.68-3.23,22.41-9.7c4.73-6.47,7.09-15.98,7.09-28.54v-46.1c0-3.09,0.84-5.47,2.51-7.15c1.67-1.67,4.05-2.51,7.14-2.51H462.53z"
			/>
		<path class="st0" d="M556.6,231.84c15.19,0,26.44,4.37,33.75,13.11c7.31,8.74,10.97,21.95,10.97,39.61v50.45
			c0,3.09-0.84,5.48-2.51,7.15c-1.67,1.67-4.08,2.51-7.23,2.51h-2.27c-3.15,0-5.56-0.84-7.23-2.51c-1.67-1.67-2.51-4.05-2.51-7.15
			v-48.65c0-12.18-2.41-21.17-7.23-26.98c-4.82-5.8-12.34-8.71-22.55-8.71c-10.21,0-17.67,3.22-22.36,9.66
			c-4.7,6.44-7.04,15.93-7.04,28.49v46.19c0,3.09-0.84,5.48-2.5,7.15c-1.67,1.67-4.08,2.51-7.23,2.51h-2.27
			c-3.15,0-5.56-0.84-7.23-2.51c-1.67-1.67-2.51-4.05-2.51-7.15v-91.53c0-3.09,0.83-5.47,2.51-7.15c1.67-1.67,4.08-2.51,7.23-2.51
			h2.27c3.15,0,5.56,0.84,7.23,2.51c1.67,1.67,2.5,4.06,2.5,7.15v10.98c2.65-6.75,7.11-12.21,13.38-16.38
			C540.04,233.92,547.65,231.84,556.6,231.84z"/>
		<path class="st0" d="M651.43,380.55c-3.53,0-5.94-1.06-7.23-3.17c-1.29-2.12-1.21-4.88,0.24-8.28l11.25-25.18L612.67,245
			c-1.45-3.34-1.5-6.04-0.14-8.09c1.35-2.05,3.8-3.08,7.33-3.08h3.69c5.29,0,9.01,2.49,11.16,7.48l32.52,79.13l32.62-79.13
			c2.14-4.98,5.86-7.48,11.16-7.48h3.31c3.72,0,6.27,1.03,7.66,3.08c1.39,2.05,1.35,4.75-0.09,8.09l-55.4,128.17
			c-2.08,4.92-5.89,7.38-11.44,7.38H651.43z"/>
		<path class="st0" d="M781.53,347.23c-7,0-13.54-1.25-19.62-3.74c-6.08-2.49-11.47-6.09-16.17-10.79
			c-4.7-4.7-8.4-10.79-11.11-18.27c-2.71-7.48-4.07-15.89-4.07-25.23c0-9.28,1.34-17.62,4.02-25.04
			c2.68-7.41,6.37-13.46,11.06-18.13c4.7-4.67,10.07-8.24,16.12-10.7c6.05-2.46,12.58-3.69,19.57-3.69c8.89,0,16.88,2.1,23.97,6.29
			c7.09,4.2,12.21,10.05,15.36,17.56v-12.02c0-3.09,0.83-5.47,2.51-7.15c1.67-1.67,4.05-2.51,7.14-2.51h2.36
			c3.15,0,5.55,0.84,7.19,2.51c1.64,1.67,2.46,4.06,2.46,7.15v91.34c0,3.16-0.82,5.55-2.46,7.19c-1.64,1.64-4.03,2.46-7.19,2.46
			h-2.36c-3.09,0-5.47-0.82-7.14-2.46c-1.67-1.64-2.51-4.04-2.51-7.19v-11.26c-3.09,7.38-8.19,13.17-15.32,17.37
			C798.23,345.13,790.29,347.23,781.53,347.23z M786.92,328.58c10.27,0,18.56-3.55,24.87-10.65c6.3-7.1,9.45-16.67,9.45-28.73
			c0-11.99-3.18-21.5-9.55-28.54c-6.37-7.04-14.75-10.55-25.15-10.55c-10.27,0-18.55,3.5-24.82,10.51c-6.27,7-9.41,16.53-9.41,28.59
			c0,12.18,3.15,21.79,9.45,28.82C768.07,325.06,776.46,328.58,786.92,328.58z"/>
		<path class="st0" d="M913.14,344.86c-5.48,0-9.3-2.46-11.44-7.38L861.42,245c-1.45-3.34-1.53-6.04-0.24-8.09
			c1.29-2.05,3.7-3.08,7.23-3.08h3.69c5.36,0,9.11,2.49,11.25,7.48l32.52,79.7l32.52-79.7c2.14-4.98,5.89-7.48,11.25-7.48h3.5
			c3.66,0,6.15,1.03,7.47,3.08c1.32,2.05,1.26,4.75-0.19,8.09l-40.47,92.48c-2.14,4.92-5.86,7.38-11.16,7.38H913.14z"/>
		<path class="st0" d="M1079.82,332.65c2.96,3.09,3.95,5.87,2.98,8.33c-0.98,2.46-3.58,3.69-7.8,3.69h-5.29
			c-4.73,0-8.73-1.73-12.01-5.21l-46.23-49.32v44.87c0,3.09-0.84,5.48-2.51,7.15c-1.67,1.67-4.08,2.51-7.23,2.51h-2.27
			c-3.15,0-5.56-0.84-7.23-2.51c-1.67-1.67-2.5-4.05-2.5-7.15v-127.6c0-3.09,0.83-5.47,2.5-7.15c1.67-1.67,4.08-2.51,7.23-2.51h2.27
			c3.15,0,5.56,0.84,7.23,2.51c1.67,1.67,2.51,4.06,2.51,7.15v77.34l44.15-45.91c3.28-3.34,7.22-5.02,11.82-5.02h4.82
			c4.35,0,7.03,1.26,8.04,3.79c1.01,2.52-0.06,5.27-3.21,8.24l-42.17,41.27L1079.82,332.65z"/>
		<path class="st0" d="M1200.85,236.34c-1.64-1.67-4.04-2.51-7.19-2.51h-2.37c-3.09,0-5.47,0.84-7.14,2.51
			c-1.67,1.67-2.5,4.05-2.5,7.14v12.02c-3.16-7.51-8.28-13.36-15.37-17.55c-7.09-4.2-15.07-6.29-23.96-6.29
			c-7,0-13.52,1.23-19.58,3.69c-6.05,2.45-11.42,6.02-16.11,10.69c-4.7,4.67-8.39,10.72-11.06,18.13
			c-2.68,7.42-4.02,15.76-4.02,25.04c0,9.34,1.36,17.74,4.07,25.23c2.71,7.48,6.41,13.57,11.1,18.26c4.7,4.7,10.09,8.31,16.17,10.8
			c1.25,0.51,2.52,0.97,3.81,1.37c1.56-1.74,7.23-8.27,12.34-16.54c0.12-0.2,0.24-0.4,0.37-0.61c1.77-2.91,3.47-6.03,4.88-9.23
			c0,0-1.11,4-3.13,9.56c-0.08,0.23-0.16,0.47-0.25,0.7c-1.96,5.29-4.68,11.85-8.02,17.65c3.1,0.55,6.3,0.83,9.61,0.83
			c8.77,0,16.71-2.09,23.83-6.29c7.13-4.19,12.22-9.99,15.32-17.37v11.27c0,3.16,0.83,5.55,2.5,7.2c1.67,1.64,4.05,2.46,7.14,2.46
			h2.37c3.15,0,5.55-0.82,7.19-2.46c1.64-1.64,2.46-4.03,2.46-7.2v-91.34C1203.31,240.39,1202.49,238.01,1200.85,236.34z
			 M1152.79,309.71c-4.08-1.49-8.29-2.56-12.53-3.21c-7.17-1.09-14.49-0.99-21.65,0.31c6.56-5.97,14.02-10.4,21.91-13.25
			c0.41-2.8,1.07-5.55,1.98-8.25c2.46-7.39,6.71-14.31,12.71-20.08c0.34-0.32,0.69-0.65,1.05-0.94c3.44,8.08,4.62,16.89,3.54,25.45
			c-0.36,2.97-0.98,5.91-1.88,8.8c5.28,6.18,9.23,13.11,11.83,20.38C1164.5,314.95,1158.77,311.87,1152.79,309.71z"/>
		<path class="st0" d="M1274.97,346.56c-9.45,0-18.61-1.75-27.47-5.25c-8.86-3.5-15.55-8.12-20.09-13.87
			c-1.96-2.52-2.51-4.95-1.65-7.29c0.85-2.33,2.88-3.98,6.1-4.92l1.99-0.57c1.95-0.76,3.91-0.88,5.86-0.38
			c1.95,0.51,4.25,1.93,6.9,4.26c7.06,6.31,16.48,9.47,28.27,9.47c8.07,0,14.37-1.37,18.91-4.12c4.54-2.75,6.81-6.55,6.81-11.41
			c0-2.71-0.82-5.03-2.46-6.96c-1.64-1.92-3.84-3.44-6.62-4.54c-2.77-1.1-5.96-2.05-9.55-2.84c-3.59-0.79-7.37-1.53-11.35-2.23
			c-3.97-0.69-7.93-1.47-11.87-2.32c-3.94-0.85-7.71-2.03-11.3-3.55c-3.59-1.51-6.78-3.33-9.55-5.44c-2.77-2.11-4.98-4.92-6.62-8.42
			c-1.64-3.5-2.46-7.56-2.46-12.16c0-6.56,2.06-12.34,6.19-17.32c4.13-4.98,9.53-8.71,16.21-11.17c6.68-2.46,14.02-3.69,22.03-3.69
			c7.5,0,15.19,1.44,23.07,4.31c7.88,2.87,14.15,6.74,18.81,11.6c2.27,2.4,3.09,4.77,2.46,7.1c-0.63,2.34-2.52,3.98-5.67,4.92
			l-1.99,0.57c-1.26,0.38-2.38,0.6-3.36,0.66c-0.98,0.06-2.08-0.16-3.31-0.66c-1.23-0.5-2.13-0.91-2.69-1.23
			c-0.57-0.32-1.77-1.04-3.59-2.18c-8.01-4.8-15.82-7.19-23.45-7.19c-7.19,0-12.89,1.15-17.11,3.45c-4.22,2.3-6.33,5.57-6.33,9.8
			c0,2.65,0.82,4.89,2.46,6.72c1.64,1.83,3.86,3.27,6.67,4.31c2.8,1.04,6.02,1.94,9.64,2.7c3.62,0.76,7.44,1.48,11.44,2.18
			c4,0.7,8,1.47,12.01,2.32c4,0.85,7.81,2.07,11.44,3.64c3.62,1.58,6.84,3.47,9.64,5.68c2.8,2.21,5.03,5.13,6.67,8.76
			c1.64,3.63,2.46,7.84,2.46,12.64c0,10.29-4.44,18.63-13.33,25.04C1300.31,343.36,1288.9,346.56,1274.97,346.56z"/>
		<path class="st0" d="M1350.79,344.67c-3.15,0-5.56-0.84-7.23-2.51c-1.67-1.67-2.51-4.05-2.51-7.15v-127.6
			c0-3.09,0.83-5.47,2.51-7.15c1.67-1.67,4.08-2.51,7.23-2.51h2.27c3.15,0,5.56,0.84,7.23,2.51c1.67,1.67,2.5,4.06,2.5,7.15v46.57
			c2.46-6.18,6.81-11.42,13.05-15.71c6.24-4.29,13.96-6.44,23.16-6.44c14.88,0,26.05,4.26,33.52,12.78
			c7.47,8.52,11.2,21.83,11.2,39.95v50.45c0,3.09-0.84,5.48-2.51,7.15c-1.67,1.67-4.08,2.51-7.23,2.51h-2.27
			c-3.15,0-5.56-0.84-7.23-2.51c-1.67-1.67-2.51-4.05-2.51-7.15v-48.65c0-12.37-2.4-21.41-7.19-27.12
			c-4.79-5.71-12.32-8.57-22.6-8.57c-10.02,0-17.43,3.19-22.22,9.56c-4.79,6.37-7.19,15.9-7.19,28.59v46.19
			c0,3.09-0.84,5.48-2.5,7.15c-1.67,1.67-4.08,2.51-7.23,2.51H1350.79z"/>
	</g>
	<g>
		<g>
			<path class="st1" d="M1225.19,193.02c-1.07,0.55-1.26,1.99-0.37,2.81c4.3,3.94,8.41,8.11,11.99,12.78
				c1.21,1.58,2.4,3.19,3.52,4.84c0.04,0.06,0.08,0.14,0.11,0.22c0.44,1.11-0.7,2.33-1.8,1.87c-0.17-0.07-0.33-0.18-0.46-0.33
				c-0.31-0.36-0.65-0.69-0.99-1.02c-26.23-26.23-57.9-37.95-94.79-35c-28.98,2.32-53.64,14.24-74.06,34.95
				c-0.33,0.34-0.99,1.03-0.99,1.03s-0.28,0.26-0.44,0.33c-1.09,0.48-2.17-0.7-1.8-1.84c0.05-0.14,0.1-0.27,0.17-0.37
				c5.71-8.4,12.63-15.69,20.71-21.82c37.76-28.69,88.12-30.36,127.63-4.15c2.57,1.7,4.21,1.6,6.68-0.02
				c13.51-8.88,27.93-15.75,43.86-19.04c5.6-1.16,11.26-1.86,16.94-0.54c5.88,1.37,8.64,4.86,8.83,10.93
				c0.2,6.48-2.02,12.34-4.84,17.97c-3.43,6.84-8.02,12.89-13.39,18.34c-0.73,0.74-1.67,2.15-2.93,1.31
				c-0.71-0.63,0.1-2.33,0.47-3.12c2.98-6.28,5.96-12.58,6.35-19.66c0.43-7.8-2.98-11.4-10.83-11.82
				c-6.06-0.32-11.91,0.93-17.67,2.57c-7.4,2.11-14.54,5.03-21.39,8.52L1225.19,193.02z"/>
			<path class="st1" d="M1131.89,402.67c-8.72-1.69-17.14-4.44-25-8.18c-0.53-0.25-0.63-0.98-0.2-1.38c1.7-1.58,3.33-3.11,4.98-4.61
				c0.96-0.86,1.98-0.26,2.95,0.08c11.33,3.83,22.97,5.84,34.92,6.21c9.21,0.29,17.05-0.9,21.39-1.75c2.84-0.56,5.39-1.2,7.58-1.82
				c0.87-0.25,0.79-1.5-0.1-1.62c-5.33-0.72-11.91-1.5-16.8-2.2c-0.8-0.11-1.38-0.83-1.31-1.64c0.05-0.8,0.71-1.43,1.52-1.43
				c6.61-0.03,15.94,0.13,22.1,0.08c1.89-0.01,4.47-0.01,7.67-0.08c1.61-0.04,2.92-0.08,3.74-0.1c0.47-0.05,0.84-0.42,0.89-0.88
				c0.05-0.47-0.26-0.92-0.71-1.06c-1.54-0.37-2.81-0.64-3.61-0.8c-7.34-1.49-14.51-2.62-17.5-3.08c-0.81-0.13-1.38-0.86-1.32-1.67
				c0-0.01,0-0.03,0-0.04c0.06-0.82,0.75-1.45,1.57-1.45l30.07,0.04c0.02,0,3.45,0.09,5.1-0.05c0.42-0.01,0.78-0.32,0.84-0.72
				c0.08-0.43-0.2-0.88-0.66-1c-1.25-0.32-2.5-0.64-3.75-0.97c-8.84-2.1-15.21-3.59-16.27-3.74c-0.17-0.03-0.79-0.1-1.14-0.56
				c-0.15-0.23-0.23-0.52-0.2-0.92c0.06-0.95,0.59-1.34,1.51-1.3c0.49,0.02,0.85-0.01,0.86-0.01c0.69,0.06,16.66,0.03,44.41-0.09
				c0.73,0,1.13,0.87,0.64,1.41c-5.64,6.13-11.8,11.57-18.12,16.13C1191.52,402.48,1160.09,408.13,1131.89,402.67z"/>
			<path class="st1" d="M1033.83,413c-2.08-0.13-4.18-0.12-6.24-0.42c-8-1.19-11.64-7.22-9.89-16.13c2.07-10.58,7.5-19.4,14.3-27.5
				c1.16-1.38,2.46-2.65,3.68-3.98c0.72-0.78,1.38-1.63,2.61-0.79c1.28,0.87,0.28,1.72-0.08,2.44c-2.65,5.39-5.01,10.87-6.11,16.82
				c-0.12,0.65-0.26,1.31-0.32,1.96c-0.73,8.67,2.76,12.66,11.45,12.91c7.85,0.22,15.29-1.83,22.61-4.35
				c4.76-1.64,9.4-3.58,13.87-5.9c6.7-3.48,9.71-3.66,6.37-6.15c-7.39-5.51-18.85-18.7-20.59-21.53c-0.28-0.45-1.01-1.65-0.57-2.34
				c0.23-0.36,0.72-0.5,1.1-0.5c0.65,0,1.2,0.55,1.75,1.13c7.34,7.66,15.55,14.2,24.64,19.69c1.98,1.2,3.34,0.97,5.08-0.24
				c5.23-3.61,10.42-7.33,15.27-11.44c0.73-0.62,1.38-1.05,1.92-1.33c1.32-0.69,2.95,0.61,2.34,1.97c-0.05,0.11-0.11,0.21-0.19,0.31
				c-27.19,34.06-68.96,43.04-68.96,43.04C1043.32,411.96,1038.63,412.8,1033.83,413z"/>
			<g>
				<path class="st1" d="M1109.58,213.68c-4.69,2.04-9.49-1.7-9.44-6.19c0.03-3.73,3.24-6.76,7.04-6.64
					c5.08,0.16,8.95,6.3,4.7,11.13C1111.24,212.7,1110.46,213.29,1109.58,213.68z"/>
			</g>
			<g>
				<path class="st1" d="M1129.61,203.41c-3.15,0.04-5.62-2.36-5.65-5.5c-0.03-3.11,2.42-5.64,5.52-5.66
					c3.07-0.03,5.67,2.49,5.71,5.53C1135.23,200.81,1132.7,203.38,1129.61,203.41z"/>
			</g>
			<g>
				<path class="st1" d="M1156.36,193.67c-0.01,2.03-1.8,3.82-3.81,3.8c-2.02-0.01-3.78-1.79-3.78-3.83c0-2.08,1.71-3.78,3.8-3.77
					C1154.65,189.89,1156.37,191.62,1156.36,193.67z"/>
			</g>
		</g>
	</g>
	<g>
		<path class="st0" d="M1255.22,411.67c-1.33,0-2.34-0.36-3.04-1.08c-0.7-0.72-1.05-1.75-1.05-3.1V370.3c0-1.35,0.35-2.39,1.05-3.12
			c0.7-0.73,1.72-1.09,3.04-1.09h8.92c7.73,0,13.25,1.31,16.54,3.92c3.29,2.61,4.94,6.92,4.94,12.92c0,5.98-1.63,10.26-4.9,12.84
			c-3.27,2.58-8.75,3.87-16.47,3.87h-3.4v7.84c0,1.35-0.35,2.39-1.05,3.1c-0.7,0.72-1.72,1.08-3.04,1.08H1255.22z M1265.74,390.92
			c3.48,0,6-0.63,7.58-1.89c1.58-1.26,2.37-3.34,2.37-6.25c0-2.87-0.79-4.93-2.37-6.18c-1.58-1.25-4.1-1.87-7.58-1.87h-4.88v16.19
			H1265.74z"/>
		<path class="st0" d="M1308.38,411.67c-2.33,0-3.91-1.11-4.73-3.32l-14.31-37.43c-0.54-1.43-0.51-2.6,0.09-3.49
			c0.6-0.89,1.66-1.34,3.16-1.34h1.99c2.25,0,3.8,1.14,4.64,3.41l10.82,30.51l10.79-30.51c0.82-2.27,2.37-3.41,4.64-3.41h2.02
			c1.51,0,2.56,0.45,3.16,1.35s0.63,2.07,0.09,3.5l-14.37,37.4c-0.84,2.21-2.42,3.32-4.73,3.32H1308.38z"/>
		<path class="st0" d="M1348.58,411.67c-1.33,0-2.34-0.36-3.04-1.08c-0.7-0.72-1.05-1.75-1.05-3.1v-32.51h-6.81
			c-1.33,0-2.34-0.36-3.04-1.09c-0.7-0.73-1.05-1.77-1.05-3.12v-0.46c0-1.35,0.35-2.39,1.05-3.12c0.7-0.73,1.72-1.09,3.04-1.09
			h23.26c1.33,0,2.35,0.36,3.06,1.09c0.71,0.73,1.07,1.77,1.07,3.12v0.46c0,1.35-0.36,2.39-1.07,3.12
			c-0.71,0.73-1.73,1.09-3.06,1.09h-6.72v32.51c0,1.35-0.36,2.39-1.07,3.1c-0.71,0.72-1.73,1.08-3.06,1.08H1348.58z"/>
		<path class="st0" d="M1368.41,412.13c-1.59,0-2.87-0.42-3.86-1.26c-0.98-0.84-1.48-2.03-1.48-3.56c0-1.54,0.49-2.72,1.48-3.56
			c0.98-0.84,2.27-1.26,3.86-1.26c1.51,0,2.78,0.43,3.81,1.29c1.03,0.86,1.55,2.04,1.55,3.53c0,1.5-0.52,2.67-1.55,3.53
			C1371.18,411.7,1369.91,412.13,1368.41,412.13z"/>
		<path class="st0" d="M1401.91,411.67c-1.33,0-2.34-0.36-3.04-1.08c-0.7-0.72-1.05-1.75-1.05-3.1V370.3c0-1.35,0.35-2.39,1.05-3.12
			c0.7-0.73,1.72-1.09,3.04-1.09h1.54c1.33,0,2.34,0.36,3.04,1.09c0.7,0.73,1.05,1.77,1.05,3.12v32.51H1420
			c1.33,0,2.34,0.36,3.06,1.09c0.71,0.73,1.07,1.77,1.07,3.12v0.46c0,1.35-0.36,2.39-1.07,3.1c-0.71,0.72-1.73,1.08-3.06,1.08
			H1401.91z"/>
		<path class="st0" d="M1435.82,411.67c-1.33,0-2.34-0.36-3.04-1.08c-0.7-0.72-1.05-1.75-1.05-3.1v-32.51h-6.81
			c-1.33,0-2.34-0.36-3.04-1.09c-0.7-0.73-1.05-1.77-1.05-3.12v-0.46c0-1.35,0.35-2.39,1.05-3.12c0.7-0.73,1.72-1.09,3.04-1.09
			h23.26c1.33,0,2.35,0.36,3.06,1.09c0.71,0.73,1.07,1.77,1.07,3.12v0.46c0,1.35-0.36,2.39-1.07,3.12
			c-0.71,0.73-1.73,1.09-3.06,1.09h-6.72v32.51c0,1.35-0.36,2.39-1.07,3.1c-0.71,0.72-1.73,1.08-3.06,1.08H1435.82z"/>
		<path class="st0" d="M1462.63,411.67c-1.33,0-2.34-0.36-3.04-1.08c-0.7-0.72-1.05-1.75-1.05-3.1V370.3c0-1.35,0.35-2.39,1.05-3.12
			c0.7-0.73,1.72-1.09,3.04-1.09h8.65c4.48,0,8.33,0.48,11.54,1.44c3.21,0.96,5.82,2.42,7.81,4.36c1.99,1.95,3.44,4.31,4.37,7.1
			c0.92,2.79,1.39,6.08,1.39,9.89c0,3.77-0.46,7.04-1.39,9.82c-0.92,2.78-2.38,5.14-4.37,7.1c-1.99,1.96-4.59,3.42-7.81,4.39
			c-3.21,0.97-7.06,1.46-11.54,1.46H1462.63z M1471.68,402.82c3.72,0,6.67-0.52,8.87-1.55c2.2-1.03,3.75-2.55,4.66-4.55
			s1.36-4.62,1.36-7.88c0-3.26-0.46-5.88-1.37-7.87c-0.91-1.99-2.48-3.5-4.69-4.55c-2.21-1.04-5.18-1.57-8.92-1.57h-3.32v27.96
			H1471.68z"/>
		<path class="st0" d="M1505.64,412.13c-1.59,0-2.87-0.42-3.86-1.26c-0.98-0.84-1.48-2.03-1.48-3.56c0-1.54,0.49-2.72,1.48-3.56
			c0.98-0.84,2.27-1.26,3.86-1.26c1.51,0,2.78,0.43,3.81,1.29c1.03,0.86,1.55,2.04,1.55,3.53c0,1.5-0.52,2.67-1.55,3.53
			C1508.41,411.7,1507.14,412.13,1505.64,412.13z"/>
	</g>
</g>
</svg>
