<svg version="1.2" xmlns="http://www.w3.org/2000/svg" viewBox="0 0 1255 765" width="1255" height="765">
	<title>logo-text-white-svg</title>
	<style>
		.s0 { fill: #ffffff } 
	</style>
	<g id="Layer">
		<g id="Layer">
			<path id="Layer" class="s0" d="m51.6 703.3q-16.3 0-29.9-7.2-13.6-7.2-20.2-18.6-2.2-3.7-1-6.1 1.1-2.5 5.7-4.4l1.9-0.8q1.8-0.7 3.1-0.8 1.3-0.1 2.7 0.6 1.4 0.7 2.7 1.8 1.2 1.2 3.4 3.6 12.7 14 31.4 14 12.6 0 19.6-5.2 7-5.1 7.1-14.3-0.1-4.8-2.6-8.3-2.5-3.5-6.7-5.7-4.3-2.1-9.8-3.7-5.5-1.5-11.6-3-6-1.4-12.1-3.1-6.1-1.7-11.6-4.5-5.5-2.8-9.8-6.6-4.2-3.8-6.7-10-2.6-6.1-2.5-14-0.1-16 12-26.2 12-10.1 30.9-10.1 14 0 26.7 6.3 12.6 6.4 18.3 16.2 4.4 7.7-4.1 10.3l-2.9 0.9q-3.2 1-5.3-0.1-2.2-1-6.3-4.9-5.7-5.3-11.7-7.9-5.9-2.5-13.7-2.5-11.3 0-17.9 4.8-6.6 4.9-6.6 13.2 0 5 2.5 8.7 2.6 3.7 6.9 5.8 4.3 2.2 9.8 3.7 5.5 1.6 11.7 2.9 6.1 1.4 12.2 3 6.1 1.6 11.6 4.2 5.6 2.7 9.9 6.5 4.3 3.8 6.8 9.9 2.5 6.1 2.5 14.2 0 16.8-12.8 27.1-12.8 10.3-33.6 10.3z"/>
			<path id="Layer" class="s0" d="m123.3 701.5q-4.3 0-6.6-2.3-2.2-2.3-2.2-6.5v-117.2q0-4.3 2.2-6.6 2.3-2.3 6.6-2.3h2q4.3 0 6.5 2.3 2.3 2.3 2.3 6.6v42.7q3.3-8.5 11.7-14.4 8.5-5.9 20.9-5.9 20.1 0 30.2 11.7 10.1 11.8 10.1 36.7v46.4q0 4.2-2.3 6.5-2.2 2.3-6.5 2.3h-2q-4.3 0-6.6-2.3-2.2-2.3-2.2-6.5v-44.7q0-17.1-6.5-24.9-6.5-7.9-20.4-7.9-13.5 0-20 8.8-6.4 8.8-6.4 26.2v42.5q0 4.2-2.3 6.5-2.3 2.3-6.5 2.3z"/>
			<path id="Layer" class="s0" d="m309.5 599.7q4.3 0 6.5 2.3 2.2 2.3 2.2 6.6v84.1q0 4.3-2.2 6.6-2.2 2.2-6.5 2.2h-2.1q-4.2 0-6.4-2.2-2.3-2.3-2.3-6.6v-10.2q-3.6 9.3-12 15-8.5 5.8-20.6 5.8-20.5 0-30.4-12.1-9.9-12-9.9-36.4v-46.2q0-4.3 2.3-6.6 2.2-2.3 6.4-2.3h2.1q4.3 0 6.5 2.3 2.2 2.3 2.2 6.6v44.7q0 16.8 6.5 24.8 6.5 8 20.3 8 13.8 0 20.2-8.9 6.4-9 6.4-26.3v-42.3q0-4.3 2.3-6.6 2.2-2.3 6.4-2.3c0 0 2.1 0 2.1 0z"/>
			<path id="Layer" class="s0" d="m394.3 597.9q20.5 0 30.4 12 9.9 12.1 9.9 36.4v46.4q0 4.2-2.3 6.5-2.3 2.3-6.5 2.3h-2.1q-4.2 0-6.5-2.3-2.2-2.3-2.2-6.5v-44.7q0-16.8-6.5-24.8-6.6-8-20.4-8-13.8 0-20.1 8.8-6.3 8.9-6.3 26.2v42.5q0 4.2-2.3 6.5-2.3 2.3-6.5 2.3h-2.1q-4.2 0-6.5-2.3-2.3-2.3-2.2-6.5v-84.1q-0.1-4.3 2.2-6.6 2.3-2.3 6.5-2.3h2.1q4.2 0 6.5 2.3 2.2 2.3 2.3 6.6v10.1q3.5-9.3 12-15.1 8.5-5.7 20.6-5.7z"/>
			<path id="Layer" class="s0" d="m479.7 734.5q-4.8 0-6.5-2.9-1.7-2.9 0.2-7.6l10.1-23.2-38.7-90.8q-2-4.6-0.1-7.5 1.8-2.8 6.6-2.8h3.3q7.1 0 10 6.9l29.3 72.7 29.4-72.7q2.9-6.9 10.1-6.9h3q5 0 6.9 2.8 1.8 2.9-0.1 7.5l-49.9 117.7q-2.9 6.8-10.4 6.8c0 0-3.2 0-3.2 0z"/>
			<path id="Layer" fill-rule="evenodd" class="s0" d="m596.9 703.9q-9.4 0-17.7-3.4-8.2-3.5-14.5-10-6.4-6.4-10-16.7-3.7-10.3-3.7-23.2 0-12.8 3.6-23 3.6-10.2 10-16.7 6.3-6.4 14.5-9.8 8.2-3.4 17.6-3.4 12 0 21.6 5.8 9.6 5.8 13.9 16.1v-11q0-4.3 2.2-6.6 2.3-2.3 6.5-2.3h2.1q4.2 0 6.5 2.3 2.2 2.3 2.2 6.6v83.9q0 4.4-2.2 6.6-2.3 2.3-6.5 2.3h-2.1q-4.2 0-6.5-2.3-2.2-2.2-2.2-6.6v-10.3q-4.2 10.1-13.8 15.9-9.6 5.8-21.5 5.8zm4.9-17.1q13.8 0 22.4-9.8 8.5-9.8 8.5-26.4 0-16.5-8.6-26.2-8.6-9.7-22.7-9.7-13.9 0-22.3 9.6-8.5 9.7-8.5 26.3 0 16.8 8.5 26.5 8.5 9.7 22.7 9.7z"/>
			<path id="Layer" class="s0" d="m715.5 701.7q-7.4 0-10.3-6.8l-36.3-84.9q-2-4.6-0.2-7.5 1.7-2.8 6.5-2.8h3.3q7.3 0 10.2 6.9l29.3 73.2 29.2-73.2q2.9-6.9 10.2-6.9h3.1q5 0 6.8 2.8 1.8 2.8-0.2 7.5l-36.5 84.9q-2.8 6.8-10 6.8z"/>
			<path id="Layer" class="s0" d="m865.6 690.5q4 4.3 2.7 7.7-1.3 3.3-7 3.3h-4.8q-6.4 0-10.8-4.7l-41.7-45.3v41.2q0 4.2-2.2 6.5-2.3 2.3-6.5 2.3h-2.1q-4.2 0-6.5-2.3-2.3-2.3-2.3-6.5v-117.2q0-4.3 2.3-6.6 2.3-2.3 6.5-2.3h2.1q4.2 0 6.5 2.3 2.2 2.3 2.2 6.6v71l39.8-42.2q4.4-4.6 10.7-4.6h4.3q5.9 0 7.2 3.5 1.4 3.5-2.9 7.6l-37.9 37.9z"/>
			<path id="Layer" fill-rule="evenodd" class="s0" d="m976.9 608.6v83.9q0 4.3-2.3 6.6-2.2 2.3-6.4 2.2h-2.2q-4.1 0.1-6.4-2.2-2.2-2.3-2.2-6.6v-10.4q-4.2 10.2-13.8 16-9.7 5.8-21.5 5.8-4.5 0-8.7-0.8c3-5.3 5.5-11.4 7.3-16.2q0.1-0.3 0.2-0.7c1.8-5 2.8-8.7 2.8-8.7-1.3 2.9-2.8 5.8-4.4 8.5q-0.2 0.2-0.3 0.5c-4.6 7.6-9.7 13.6-11.1 15.2q-1.8-0.5-3.5-1.2-8.2-3.5-14.5-10-6.4-6.4-10-16.8-3.7-10.3-3.7-23.1 0-12.8 3.6-23 3.6-10.3 10-16.7 6.3-6.4 14.5-9.8 8.2-3.4 17.7-3.4 12 0 21.5 5.8 9.6 5.8 13.9 16.1v-11q0-4.3 2.2-6.6 2.3-2.3 6.5-2.3h2.1q4.2 0 6.5 2.3 2.2 2.3 2.2 6.6zm-30.2 69.3c-2.4-6.7-6-13.1-10.7-18.7q1.2-4 1.7-8.1c1-7.9-0.1-16-3.2-23.4-0.3 0.3-0.7 0.6-1 0.8-5.4 5.3-9.2 11.7-11.4 18.5q-1.2 3.7-1.8 7.6c-7.1 2.6-13.8 6.7-19.7 12.1 6.4-1.1 13-1.2 19.5-0.2 3.8 0.6 7.6 1.6 11.3 2.9 5.4 2 10.5 4.8 15.3 8.5z"/>
			<path id="Layer" class="s0" d="m1041.4 703.3q-12.8 0-24.7-4.8-12-4.9-18.1-12.8-2.7-3.5-1.5-6.7 1.2-3.2 5.5-4.5l1.8-0.5q2.6-1.1 5.3-0.4 2.6 0.7 6.2 3.9 9.5 8.7 25.5 8.7 10.9 0 17-3.7 6.1-3.8 6.1-10.5 0-3.8-2.2-6.4-2.2-2.7-6-4.2-3.7-1.5-8.6-2.6-4.8-1.1-10.2-2-5.3-1-10.7-2.2-5.3-1.1-10.2-3.2-4.8-2.1-8.5-5-3.8-2.9-6-7.8-2.2-4.8-2.2-11.1 0-9.1 5.6-15.9 5.5-6.9 14.6-10.3 9-3.4 19.8-3.4 10.2 0 20.8 4 10.6 3.9 16.9 10.6 3.1 3.3 2.3 6.5-0.9 3.3-5.2 4.6l-1.7 0.5q-1.7 0.5-3.1 0.6-1.3 0.1-2.9-0.6-1.7-0.7-2.5-1.2-0.7-0.4-3.2-2-10.8-6.6-21.1-6.6-9.7 0-15.5 3.2-5.7 3.2-5.7 9 0 3.6 2.2 6.2 2.3 2.5 6.1 3.9 3.7 1.5 8.6 2.5 4.9 1.1 10.4 2 5.4 1 10.8 2.1 5.4 1.2 10.3 3.4 4.9 2.2 8.7 5.2 3.8 3.1 6 8.1 2.2 4.9 2.2 11.6 0 14.1-12 23-12.1 8.8-30.9 8.8z"/>
			<path id="Layer" class="s0" d="m1109.7 701.5q-4.2 0-6.5-2.3-2.2-2.3-2.2-6.5v-117.2q0-4.3 2.2-6.6 2.3-2.3 6.5-2.3h2.1q4.2 0 6.5 2.3 2.3 2.3 2.3 6.6v42.7q3.3-8.5 11.7-14.4 8.4-5.9 20.9-5.9 20.1 0 30.2 11.7 10.1 11.8 10.1 36.7v46.4q0 4.2-2.3 6.5-2.3 2.3-6.5 2.3h-2.1q-4.2 0-6.5-2.3-2.2-2.3-2.2-6.5v-44.7q0-17.1-6.5-24.9-6.5-7.9-20.4-7.9-13.5 0-20 8.8-6.5 8.8-6.5 26.2v42.5q0 4.2-2.2 6.5-2.3 2.3-6.5 2.3z"/>
		</g>
		<g id="Layer">
			<g id="Layer">
				<path id="Layer" class="s0" d="m996.6 562.2c-1 0.5-1.2 1.9-0.4 2.6 3.9 3.6 7.6 7.5 10.8 11.7q1.7 2.2 3.2 4.5 0.1 0.1 0.1 0.2c0.4 1-0.6 2.1-1.6 1.7q-0.2-0.1-0.4-0.3-0.4-0.5-0.9-0.9c-23.6-24.1-52.2-34.9-85.4-32.2-26.1 2.1-48.3 13.1-66.7 32.1-0.3 0.3-0.9 1-0.9 1 0 0-0.2 0.2-0.4 0.3-1 0.4-2-0.7-1.6-1.7q0-0.2 0.1-0.4 7.8-11.6 18.7-20c34-26.4 79.4-27.9 115-3.8 2.3 1.5 3.8 1.4 6 0 12.2-8.2 25.1-14.5 39.5-17.5 5-1.1 10.2-1.7 15.3-0.5 5.3 1.2 7.8 4.4 7.9 10 0.2 6-1.8 11.3-4.3 16.5-3.1 6.3-7.3 11.9-12.1 16.9-0.6 0.6-1.5 1.9-2.6 1.2-0.7-0.6 0.1-2.2 0.4-2.9 2.7-5.8 5.4-11.6 5.7-18.1 0.4-7.1-2.7-10.4-9.8-10.8-5.4-0.3-10.7 0.8-15.9 2.3-6.6 2-13.1 4.7-19.2 7.9z"/>
				<path id="Layer" class="s0" d="m912.5 754.8c-7.8-1.5-15.4-4-22.5-7.5-0.5-0.2-0.5-0.9-0.2-1.3 1.6-1.4 3-2.8 4.5-4.2 0.9-0.8 1.8-0.2 2.7 0.1 10.2 3.5 20.7 5.3 31.4 5.7 8.3 0.2 15.4-0.8 19.3-1.6 2.6-0.5 4.9-1.1 6.8-1.7 0.8-0.2 0.8-1.4 0-1.5-4.8-0.6-10.8-1.4-15.2-2-0.7-0.1-1.2-0.8-1.2-1.5 0.1-0.7 0.7-1.3 1.4-1.3 6 0 14.4 0.1 19.9 0.1 1.7 0 4 0 6.9-0.1 1.5 0 2.7-0.1 3.4-0.1 0.4 0 0.8-0.4 0.8-0.8 0-0.4-0.2-0.9-0.6-1-1.4-0.3-2.6-0.6-3.3-0.7-6.6-1.4-13.1-2.4-15.8-2.8-0.7-0.2-1.2-0.8-1.2-1.6q0 0 0 0c0.1-0.8 0.7-1.4 1.5-1.4l27 0.1c0.1 0 3.2 0.1 4.6-0.1 0.4 0 0.7-0.3 0.8-0.6 0.1-0.4-0.2-0.8-0.6-0.9q-1.7-0.5-3.4-0.9c-8-2-13.7-3.3-14.6-3.5-0.2 0-0.8-0.1-1.1-0.5q-0.2-0.3-0.1-0.8c0-0.9 0.5-1.3 1.3-1.2 0.5 0 0.8 0 0.8 0 0.6 0 15 0 40-0.1 0.7 0 1 0.8 0.6 1.3-5.1 5.6-10.7 10.6-16.4 14.8-23.8 17.5-52.1 22.6-77.5 17.6z"/>
				<path id="Layer" class="s0" d="m824.2 764.3c-1.9-0.1-3.8-0.1-5.6-0.4-7.2-1.1-10.5-6.6-8.9-14.8 1.8-9.7 6.7-17.8 12.9-25.3 1-1.2 2.2-2.4 3.3-3.6 0.6-0.7 1.2-1.5 2.3-0.7 1.2 0.8 0.3 1.5-0.1 2.2-2.4 4.9-4.5 10-5.5 15.4-0.1 0.6-0.2 1.2-0.3 1.8-0.6 8 2.5 11.7 10.3 11.9 7.1 0.2 13.8-1.7 20.4-4 4.3-1.5 8.5-3.3 12.5-5.4 6-3.2 8.7-3.4 5.7-5.7-6.6-5-16.9-17.1-18.5-19.7-0.2-0.5-0.9-1.5-0.5-2.2 0.2-0.3 0.6-0.4 1-0.4 0.6 0 1.1 0.5 1.6 1 6.6 7 14 13 22.2 18.1 1.7 1.1 3 0.9 4.5-0.2 4.8-3.4 9.4-6.8 13.8-10.5q1-0.9 1.7-1.3c1.2-0.6 2.7 0.6 2.1 1.8q0 0.2-0.1 0.3c-24.5 31.3-62.2 39.6-62.2 39.6-4.1 1.2-8.3 1.9-12.6 2.1z"/>
				<g id="Layer">
					<path id="Layer" class="s0" d="m892.4 581.2c-4.2 1.9-8.5-1.6-8.5-5.7 0.1-3.4 3-6.2 6.4-6.1 4.5 0.1 8 5.8 4.2 10.2-0.6 0.7-1.3 1.2-2.1 1.6z"/>
				</g>
				<g id="Layer">
					<path id="Layer" class="s0" d="m910.5 571.8c-2.8 0-5.1-2.2-5.1-5.1 0-2.9 2.2-5.2 5-5.2 2.7 0 5.1 2.3 5.1 5.1 0 2.8-2.2 5.1-5 5.2z"/>
				</g>
				<g id="Layer">
					<path id="Layer" class="s0" d="m934.6 562.8c0 1.9-1.6 3.5-3.5 3.5-1.8 0-3.4-1.6-3.4-3.5 0-1.9 1.6-3.5 3.4-3.5 1.9 0.1 3.5 1.6 3.5 3.5z"/>
				</g>
			</g>
		</g>
		<g id="Layer">
			<path id="Layer" fill-rule="evenodd" class="s0" d="m1023.6 763.1q-1.7 0-2.7-1-0.9-1-0.9-2.9v-34.1q0-1.9 0.9-2.9 1-1 2.7-1h8.1q10.4 0 14.9 3.6 4.4 3.6 4.4 11.9 0 8.2-4.4 11.8-4.4 3.5-14.8 3.5h-3.1v7.2q0 1.9-0.9 2.9-1 1-2.8 1zm9.5-19.1q4.7 0 6.8-1.7 2.2-1.7 2.2-5.8 0-3.9-2.2-5.6-2.1-1.7-6.8-1.7h-4.4v14.8c0 0 4.4 0 4.4 0z"/>
			<path id="Layer" class="s0" d="m1071.5 763.1q-3.1 0-4.2-3.1l-12.9-34.3q-0.8-2 0.1-3.2 0.8-1.3 2.8-1.3h1.8q3 0 4.2 3.2l9.7 28 9.7-28q1.2-3.2 4.2-3.2h1.8q2.1 0 2.9 1.3 0.8 1.2 0.1 3.2l-13 34.3q-1.1 3.1-4.2 3.1c0 0-3 0-3 0z"/>
			<path id="Layer" class="s0" d="m1107.7 763.1q-1.8 0-2.7-1-0.9-1-1-2.9v-29.8h-6.1q-1.8 0-2.7-1-1-1-1-2.9v-0.4q0-1.9 1-2.9 0.9-1 2.7-1h21q1.8 0 2.7 1 1 1 1 2.9v0.4q0 1.9-1 2.9-0.9 1-2.7 1h-6.1v29.8q0 1.9-0.9 2.9-1 1-2.8 1z"/>
			<path id="Layer" class="s0" d="m1125.6 763.5q-2.1 0-3.5-1.2-1.3-1.1-1.3-3.2 0-2.2 1.3-3.3 1.4-1.2 3.5-1.2 2 0 3.4 1.2 1.4 1.2 1.4 3.3 0 2-1.4 3.2-1.4 1.2-3.4 1.2z"/>
			<path id="Layer" class="s0" d="m1155.8 763.1q-1.8 0-2.8-1-0.9-1-0.9-2.9v-34.1q0-1.9 0.9-2.9 1-1 2.8-1h1.4q1.8 0 2.7 1 1 1 1 2.9v29.9h11.2q1.8 0 2.7 1 1 1 1 2.8v0.4q0 1.9-1 2.9-0.9 1-2.7 1z"/>
			<path id="Layer" class="s0" d="m1186.3 763.1q-1.8 0-2.7-1-1-1-1-2.9v-29.8h-6.1q-1.8 0-2.7-1-1-1-1-2.9v-0.4q0-1.9 1-2.9 0.9-1 2.7-1h21q1.7 0 2.7 1 1 1 1 2.9v0.4q0 1.9-1 2.9-0.9 1-2.7 1h-6.1v29.8q0 1.9-1 2.9-0.9 1-2.7 1z"/>
			<path id="Layer" fill-rule="evenodd" class="s0" d="m1210.5 763.1q-1.8 0-2.8-1-0.9-1-0.9-2.9v-34.1q0-1.9 0.9-2.9 1-1 2.8-1h7.8q6 0 10.4 1.3 4.3 1.4 7 4.1 2.7 2.6 4 6.5 1.2 3.8 1.2 9.1 0 5.2-1.2 9-1.3 3.8-4 6.5-2.7 2.7-7 4-4.4 1.4-10.4 1.4zm8.1-8.1q5.1 0 8-1.5 3-1.4 4.2-4.2 1.2-2.7 1.2-7.2 0-4.5-1.2-7.2-1.2-2.8-4.2-4.2-3-1.4-8.1-1.4h-2.9v25.6h3z"/>
			<path id="Layer" class="s0" d="m1249.2 763.5q-2.1 0-3.4-1.2-1.4-1.1-1.4-3.2 0-2.2 1.4-3.3 1.3-1.2 3.4-1.2 2.1 0 3.5 1.2 1.4 1.2 1.4 3.3 0 2-1.4 3.2-1.4 1.2-3.5 1.2z"/>
		</g>
	</g>
	<g id="Layer">
		<path id="Layer" fill-rule="evenodd" class="s0" d="m857.1 230.3c0 127-103 230-230 230-18.5 0-36.4-2.2-53.6-6.3 28.2-49.8 31.8-128.7 31.8-128.7-31.8 69.2-78.8 97.3-92.8 104.5-69-39.7-115.4-114.2-115.4-199.5 0-127 102.9-230 230-230 127 0 230 103 230 230zm-267.1-152.9c1.3 4.3 6.1 7 10.4 5.7 4.3-1.2 7-6.1 5.7-10.4-1.2-4.4-5.9-6.9-10.4-5.7-4.4 1.3-7 6-5.7 10.4zm-49.9 24.5c2 6.6 8.8 10.1 15.4 8.1 6.5-2 10.3-9 8.3-15.4-1.9-6.4-9-10.1-15.5-8.1-6.6 1.9-10.2 8.8-8.2 15.4zm-44.5 35.1c2.7 9.6 15.2 14.5 23.9 7.2 1.6-1.3 2.9-3.1 3.8-5 5.9-12.8-6.1-23.4-16.9-20.6-8.2 2.1-13.1 10.5-10.8 18.4zm217.2 209c-11.2-31.1-28.1-60.7-50.6-87.1 3.8-12.3 6.5-24.9 8-37.6 4.6-36.5-0.4-74.2-15.1-108.7-1.6 1.3-3.1 2.7-4.5 4-25.7 24.7-43.9 54.3-54.4 85.8q-5.8 17.3-8.4 35.3c-33.8 12.1-65.7 31-93.8 56.5 30.7-5.5 62-5.9 92.6-1.3 18.2 2.8 36.2 7.4 53.6 13.7 25.6 9.3 50.1 22.4 72.6 39.4z"/>
	</g>
</svg>