<svg xmlns="http://www.w3.org/2000/svg" version="1.1" xmlns:xlink="http://www.w3.org/1999/xlink" width="512" height="512" x="0" y="0" viewBox="0 0 128 128" style="enable-background:new 0 0 512 512" xml:space="preserve" class=""><g><path d="M14.193 22.57a4 4 0 0 0 4-4v-8.36h91.61v76.95a4 4 0 0 0 8 0V6.21a4 4 0 0 0-4-4h-99.61a4 4 0 0 0-4 4v12.36a4 4 0 0 0 4 4zM113.804 109.09a4 4 0 0 0-4 4v4.7h-91.61V45.02a4 4 0 0 0-8 0v76.77a4 4 0 0 0 4 4h99.61a4 4 0 0 0 4-4v-8.7a4 4 0 0 0-4-4z" fill="#000000" opacity="1" data-original="#000000" class=""></path><path d="M61.831 31.673a4 4 0 0 0-4-4H6.741a4 4 0 0 0 0 8h51.09a4 4 0 0 0 4-4zM67.564 54.673a4 4 0 0 0-4-4H27.74a4 4 0 0 0 0 8h35.824a4 4 0 0 0 4-4zM34.74 81.673h34.824a4 4 0 0 0 0-8H34.74a4 4 0 1 0 0 8zM121.26 96.673H46.74a4 4 0 1 0 0 8h74.52a4 4 0 1 0 0-8zM78.093 42.153c.08.005.16.008.241.008a4 4 0 0 0 2.66-1.013L93.16 30.32a4 4 0 1 0-5.318-5.976l-9.166 8.157-3.855-4.37a4 4 0 0 0-6 5.292l6.513 7.384a4 4 0 0 0 2.759 1.346zM82.334 63.807a4 4 0 0 0 2.759 1.346c.08.005.16.008.241.008a4 4 0 0 0 2.66-1.013L100.16 53.32a4 4 0 1 0-5.318-5.976l-9.166 8.157-3.855-4.37a4 4 0 0 0-6 5.292zM87.334 87.807a4 4 0 0 0 2.759 1.346c.08.005.16.008.241.008a4 4 0 0 0 2.66-1.013L105.16 77.32a4 4 0 1 0-5.318-5.976l-9.166 8.157-3.855-4.37a4 4 0 0 0-6 5.292z" fill="#000000" opacity="1" data-original="#000000" class=""></path></g></svg>