<svg xmlns="http://www.w3.org/2000/svg" stroke="#ffffff" stroke-width="30px" version="1.1" xmlns:xlink="http://www.w3.org/1999/xlink" width="512" height="512" x="0" y="0" viewBox="0 0 512 512.001" style="enable-background:new 0 0 512 512" xml:space="preserve" class=""><g><path d="m220.77 376.727-47.067 47.066c-23.57 23.57-61.922 23.578-85.504 0-23.566-23.57-23.558-61.922.012-85.492l94.504-94.504c21.84-21.84 56.379-23.453 80.078-4.817a60.585 60.585 0 0 1 5.414 4.81c10.496 10.491 26.77 10.663 37.047.382l29.617-29.617a131.286 131.286 0 0 0-16.824-20.61c-8.926-8.922-18.824-16.293-29.371-22.093-41.266-22.762-92.301-21.625-132.602 3.406a131.002 131.002 0 0 0-23.554 18.699l-94.153 94.152c-51.152 51.153-51.152 134.38-.008 185.528 51.157 51.152 134.38 51.152 185.536 0l84.699-84.7c-29.586 3.915-60.04-.148-87.824-12.21zm0 0" fill="#000000" opacity="1" data-original="#000000" class=""></path><path d="M473.637 38.36c-51.149-51.15-134.371-51.15-185.528.007l-84.691 84.692c29.586-3.918 60.039.144 87.824 12.21l47.07-47.07c23.57-23.57 61.915-23.57 85.485 0 23.578 23.578 23.578 61.922.008 85.492l-94.516 94.516c-21.598 21.598-55.875 23.09-79.547 4.543a59.29 59.29 0 0 1-5.566-4.926c-10.32-10.32-27.106-10.312-37.426.008l-29.617 29.617a132.205 132.205 0 0 0 16.824 20.59 130.937 130.937 0 0 0 29.594 22.227c41.492 22.777 92.785 21.445 133.113-3.98a130.975 130.975 0 0 0 22.816-18.24l94.157-94.151c51.152-51.157 51.152-134.38 0-185.536zm0 0" fill="#000000" opacity="1" data-original="#000000" class=""></path></g></svg>