<svg version="1.2" xmlns="http://www.w3.org/2000/svg" viewBox="0 0 486 486" width="486" height="486">
	<title>reference-svg</title>
	<style>
		.s0 { fill: #000000;stroke: #ffffff;stroke-width: 30 } 
	</style>
	<g id="Layer">
		<path id="Layer" class="s0" d="m207.8 362.7l-47.1 47.1c-23.6 23.6-61.9 23.6-85.5 0-23.6-23.6-23.6-61.9 0-85.5l94.5-94.5c21.9-21.8 56.4-23.5 80.1-4.8q0.7 0.5 1.4 1.1 0.7 0.6 1.4 1.2 0.6 0.6 1.3 1.2 0.7 0.6 1.3 1.3c10.5 10.5 26.8 10.7 37.1 0.4l29.6-29.6q-1.9-2.8-3.8-5.5-2-2.7-4.1-5.3-2.1-2.6-4.4-5-2.2-2.5-4.6-4.9c-8.9-8.9-18.8-16.2-29.3-22-41.3-22.8-92.3-21.7-132.6 3.4q-3.2 1.9-6.3 4.1-3.1 2.2-6 4.5-3 2.4-5.8 4.9-2.8 2.5-5.5 5.2l-94.1 94.1c-51.2 51.2-51.2 134.4 0 185.5 51.1 51.2 134.3 51.2 185.5 0l84.7-84.7c-29.6 4-60-0.1-87.8-12.2z"/>
		<path id="Layer" class="s0" d="m460.6 24.4c-51.1-51.2-134.3-51.2-185.5 0l-84.7 84.7c29.6-4 60.1 0.1 87.8 12.2l47.1-47.1c23.6-23.6 61.9-23.6 85.5 0 23.6 23.6 23.6 61.9 0 85.5l-94.5 94.5c-21.6 21.6-55.9 23.1-79.6 4.6q-0.7-0.6-1.4-1.2-0.7-0.6-1.4-1.2-0.7-0.6-1.4-1.3-0.7-0.6-1.3-1.3c-10.3-10.3-27.1-10.3-37.5 0l-29.6 29.6q1.9 2.8 3.8 5.5 2 2.7 4.1 5.3 2.1 2.5 4.4 5 2.2 2.5 4.6 4.8 3.2 3.3 6.7 6.4 3.6 3 7.3 5.8 3.7 2.8 7.6 5.3 3.9 2.5 8 4.8c41.4 22.7 92.7 21.4 133.1-4q3.1-2 6-4.1 3-2.1 5.9-4.4 2.8-2.3 5.6-4.7 2.7-2.5 5.3-5.1l94.1-94.1c51.2-51.2 51.2-134.4 0-185.5z"/>
	</g>
</svg>