<svg version="1.2" xmlns="http://www.w3.org/2000/svg" viewBox="0 0 531 310" width="531" height="310"><g id="&lt;Group&gt;">
		<path id="&lt;Compound Path&gt;" fill-rule="evenodd" fill="#0a3763" d="m234.4 294.7c-7.6 7.8-19.6 9.3-29.8 7-10.5-2.4-18.6-9.1-25.6-17-8.7-9.7-16.4-20.3-24.5-30.5-8.5-10.8-16.8-21.6-25.2-32.4-5.7-7.3-11.2-14.7-17.1-21.8q-19.5 16.5-40.4 31.1-0.1 0.4-0.3 0.8c-2.5 8.6-5.2 17.2-7.7 25.8-2.7 8.9-4.9 18.7-9.8 26.6-1.6 2.6-6.6 0.9-6.9-2-0.6-8.3 2.9-17.3 5.1-25.2q2.3-7.9 4.6-15.9c-13.5 9.2-33.3 23.3-49.1 13.9-8.8-5.3-9-15.5-5.6-24.1 4.1-10.4 10.7-20.4 17.2-29.4 12.5-17.3 30.8-32.1 53-32.4q3.4 0 6.7 0.4c4.2-13 8.7-26.1 13.3-39 6.6-18.1 14.4-35.7 20.9-53.8 0.7-1.7 3.7 0.5 3.2 2-5.3 16.6-9 33.6-13.9 50.3q-6.4 21.6-12.9 43.2c8.8 3.3 16.6 9.1 23.6 15.9 50.9-44.1 94.5-97.2 126.4-156.3 1.2-2.2 6.2 0.7 5 3-23.2 43.1-51.3 83.8-84.7 119.6-13 13.9-26.7 27.2-41 39.7q2.6 2.7 4.9 5.6c17 20.1 33.5 40.5 50.1 60.9 10.8 13.2 32.5 46.1 53 30.3 2.2-1.8 10.3 0.9 7.5 3.7zm-159.3-113.2q1-3 2-6c-18.9-2.1-36.9 12.2-47.8 26.6-6.3 8.3-12 17.5-16.6 26.9-2.3 4.6-4.6 10.8-2.8 16 1.8 5.5 6.6 6.8 11.7 5.8 9.3-1.8 17.5-8 25.2-13q6.9-4.4 13.7-9c4.7-15.8 9.6-31.6 14.6-47.3zm31.7 12.2c-5.5-6.1-11.7-11.8-19.1-15.2q-0.4 1.4-0.8 2.7-5.6 18.4-11.2 36.8 15.9-11.6 31.1-24.3z"/>
		<path id="&lt;Path&gt;" fill="#0a3763" d="m191.7 212.6c7.3-9.9 14.9-19.8 21.1-30.5 1.2-2-2.8-4.5-4.4-2.9-4.6 4.8-9 9.9-13.2 15 2-8.6 4.6-17.1 8.5-25.2 1.4-2.9-5.4-5.2-7.1-3-6.1 8.1-12.6 15.8-19.4 23.2-10.1 7.6-18.8 16.9-26.2 27.3-1.6 2.2 3.7 4.6 5.4 3.3 10.9-8.7 20.9-18.8 30.2-29.4-2.1 6.7-3.7 13.5-4.4 20.5-0.5 4.5 7.6 4.3 9.5 1.7z"/>
		<path id="&lt;Path&gt;" fill="#0a3763" d="m257.1 170.6c4.3 5.4 4.4 12.9 2.1 19.3q-1.4 2.6-2.6 5.2c-1.9 4.4 7.4 6.2 9.2 2.6 4.4-7.3 8.8-14.3 14.1-20.6-0.5 4.6-1.1 9.2-1.5 13.8-0.4 4.8 8.4 3.3 10.4 1.4q8.1-8.4 16.2-16.8c0.2 2.8 0.4 5.6 0.7 8.4 0.4 4 7.2 4 9.6 2q10.4-8.8 20.7-17.5c1.3 4.7 4.5 8.6 9.2 11.7 1.4 0.9 6.4 1.2 4.4-1.8-3.7-5.4-5.3-12.9-3.6-19.1 1-4.2-7.3-3.9-9.1-2.4-7 5.8-14 11.5-21 17.3-0.4-3.1-0.9-6.2-1.3-9.3-0.5-3.9-6.8-4.7-9.3-2.2q-7.4 7.4-14.8 14.9c0.2-4.2 0.5-8.4 0.7-12.6 0.3-3.9-6.6-4.5-8.8-2.5-5.2 4.7-10.4 9.8-15 15.5-1.3-4.1-3.8-7.9-7.5-10.7-2.6-2.1-5.6-3.6-8.8-4.5 3.1-22.4 6.1-44.7 8.5-67.2 0.1-1.2-2.4-3-2.6-1.3-3.1 22.6-6.6 45.3-11.1 67.7-5.3-0.2-10.6 1.4-14.6 5.4-1.4 1.4 2.1 4.2 3.5 2.8 2.8-2.4 6.5-3.9 10.2-4.2-2 9.7-4.2 19.3-6.5 29-1.8 7.5-4.3 15.3-6 23q-1.4-1.7-2.8-3.4c-1.2-1.5-5.9-2.4-4.5 0.8 2 4.4 3.7 8.9 5.6 13.3 1.2 2.7 8.2 4.5 9.4 0.9 3.2-10 4.2-21.1 5.8-31.5 1.6-10.5 3.1-21 4.5-31.6 2.6 0.7 4.8 2.1 6.6 4.2z"/>
		<path id="&lt;Compound Path&gt;" fill-rule="evenodd" fill="#0a3763" d="m385.1 254.4c-8.9 4.7-19.1 2.8-27.5-2.2-4-2.5-7.5-5.7-11-8.9q-10.3 11-21.2 21.4c-14.3 13.5-29.2 27-45.2 38.5-7.3 5.2-19.5 10.1-27.1 2.5-5.6-5.6-4.3-15.1-2.4-22.1 4.9-18 13.9-35.9 28.5-48 13.6-11.2 32.4-16.2 49.6-11.8 5.7 1.5 10.6 4.1 15.2 7.3q16.6-18.3 31.6-38c22.5-29.7 42-61.7 58.2-95.3 3.4-7.1 6.6-14.4 9.8-21.8-6.8 2.7-13.8 4.9-20.9 6.5-33.6 7.7-68.6 2.9-101.8-4.4-0.8-0.2-1.6-2.1-0.5-1.9 37 7.1 76.7 10.6 112.8-2.9 4.8-1.9 9.6-4 14.2-6.4 10.2-23.9 21.1-47.8 40.1-65.5 2.4-2.2 6.6-1.8 8.8 0.4 10.9 10.8 2.9 27.4-4.5 37.7-8.7 12-20 21.6-32.7 28.9-8.3 19.9-17.2 39.4-27.6 58.4-18.6 33.8-40.6 65.8-65.7 95.1q-6.8 8-13.9 15.7 0.1 0.1 0.3 0.2c7.4 6.8 16.8 16.2 27.7 11.8 2.5-1 8.9 2.9 5.2 4.8zm79.3-198.4c4.2-3.2 8.1-6.7 11.6-10.5 4.9-5.2 9.5-11.1 12.7-17.5 2.5-4.9 4.8-12.2 2.8-17.8-11.7 13.5-19.9 29.4-27.1 45.8zm-125.4 180.5c-1.9-1.4-3.8-2.8-5.9-3.9-18-9.9-40-0.3-52.5 14-6.1 7-10.5 15.3-13.8 24-2.6 6.9-6.1 15.6-4.9 23.1 0.6 3.2 2.4 6.8 6.2 5.9 3.6-0.9 7.3-4.8 10.2-7.1q11-8.6 21.4-17.9c13.7-12 26.8-24.8 39.3-38.1z"/>
		<path id="&lt;Path&gt;" fill="#0a3763" d="m528.1 192.1c-4.9-1.3-9.8-1-14.5-3.5-4.9-2.6-8.8-6.8-10.4-12.1-1.3-3.9-8.1-3.1-9.9-0.4-7.5 10.8-16.1 20.7-25.6 29.7-0.1-6.5-0.1-13 0.1-19.4 0.1-4.8-8.3-4-10.1-1.2-7 10.2-15.5 19.1-25.1 26.7 1.9-7.4 4.6-14.6 8.1-21.6 1.9-3.9-6.3-6.3-8.2-3.1q-1.4 2.5-2.7 5.1c-3.4 5.8-7.4 10.9-11.9 15.5q0.5-1 1-2c1.2-2.5-4.4-5.3-5.8-2.8-3.5 5.8-6.8 11.7-10.4 17.5-2.3 3.6 4.8 5.2 7 3.9 3.9-2.3 7.6-4.9 11-7.9q-0.7 2.7-1.3 5.4c-1 5.3 7 4.5 9.6 3 10.7-6.4 20.1-14.5 28.2-23.8-0.2 5.4-0.5 10.8-0.7 16.2-0.1 4.4 7.9 3.4 10 1.8 12-9.5 22.5-20.8 31.4-33.2 7.3 9.4 19.2 15.2 31.3 11.4 3.3-1 1.1-4.6-1.1-5.2z"/>
	</g>
</svg>