<svg version="1.2" xmlns="http://www.w3.org/2000/svg" viewBox="0 0 30 30" width="30" height="30">
	<title>website-svg</title>
	<style>
		.s0 { fill: #000000 } 
	</style>
	<g id="Layer">
		<path id="Layer 3" fill-rule="evenodd" class="s0" d="m20.7 1.1c1.9 0.8 3.5 1.9 4.9 3.3 1.4 1.4 2.5 3 3.3 4.9 0.7 1.8 1.1 3.7 1.1 5.7 0 6.1-3.7 11.5-9.3 13.9-5.6 2.3-12 1-16.3-3.3-4.3-4.3-5.6-10.7-3.3-16.3 2.4-5.6 7.8-9.3 13.9-9.3 2 0 3.9 0.4 5.7 1.1zm-0.4 19.9h-10.6c1.1 4.3 3.2 7 5.3 7 2.1 0 4.2-2.7 5.3-7zm0.4-2q0.1-0.5 0.1-1 0.1-0.5 0.1-1 0.1-0.5 0.1-1 0-0.5 0-1 0-0.5 0-1 0-0.5-0.1-1 0-0.5-0.1-1 0-0.5-0.1-1h-11.4q-0.2 1-0.2 2-0.1 1-0.1 2 0 1 0.1 2 0 1 0.2 2zm-18.7-3q0.1 0.5 0.1 1 0.1 0.5 0.2 1 0.2 0.5 0.3 1h4.7q-0.2-1-0.2-2-0.1-1-0.1-2 0-1 0.1-2 0-1 0.2-2h-4.7q-0.1 0.5-0.3 1-0.1 0.5-0.2 1 0 0.5-0.1 1 0 0.5 0 1 0 0.5 0 1zm7.7-7h10.6c-1.1-4.3-3.2-7-5.3-7-2.1 0-4.2 2.7-5.3 7zm13.1 3q0.1 0.5 0.1 1 0.1 0.5 0.1 1 0 0.5 0 1 0 0.5 0 1 0 0.5-0.1 1 0 0.5-0.1 1 0 0.5-0.1 1h4.7q0.3-1 0.4-2 0.2-1 0.2-2 0-1-0.2-2-0.1-1-0.4-2h-4.7q0.1 0.5 0.1 1zm2.5-4.9q-0.8-1-1.6-1.7-0.9-0.8-1.9-1.4-0.9-0.6-2-1.1 0.4 0.7 0.8 1.4 0.4 0.8 0.8 1.5 0.3 0.8 0.5 1.6 0.3 0.8 0.4 1.6h4.2q-0.5-1-1.2-1.9zm-17.2-3.1q-0.9 0.6-1.8 1.4-0.9 0.7-1.6 1.7-0.7 0.9-1.2 1.9h4.1q0.2-0.8 0.4-1.6 0.3-0.8 0.6-1.6 0.3-0.7 0.7-1.5 0.4-0.7 0.9-1.4-1.1 0.5-2.1 1.1zm-3.4 18.9q0.7 1 1.6 1.7 0.9 0.8 1.8 1.4 1 0.6 2.1 1.1-0.5-0.7-0.9-1.4-0.4-0.8-0.7-1.5-0.3-0.8-0.6-1.6-0.2-0.8-0.4-1.6h-4.1q0.5 1 1.2 1.9zm17.1 3.1q1-0.6 1.9-1.4 0.8-0.7 1.6-1.7 0.7-0.9 1.2-1.9h-4.2q-0.1 0.8-0.4 1.6-0.2 0.8-0.5 1.6-0.4 0.7-0.8 1.5-0.4 0.7-0.8 1.4 1.1-0.5 2-1.1z"/>
	</g>
</svg>