<svg version="1.2" xmlns="http://www.w3.org/2000/svg" viewBox="0 0 1406 447" width="1406" height="447">
	<g id="&lt;Group&gt;">
		<g id="&lt;Group&gt;">
			<path id="&lt;Compound Path&gt;" fill="#2A4062" d="m67.5 283.3q-27.8-13.2-42.9-31-15.1-17.7-20.6-44.2-2.4-12.8-1.9-30 0.5-17.1 4.2-36.3 3.7-19.3 10.6-38.5 7-19.2 17.1-35.7 10.2-16.5 23.4-28.7 13.1-12.2 30-17.2 19.8-5.8 34.9 0.8 15.2 6.6 25.8 19.2 10.7 12.7 17.7 28.4 7 15.7 10.6 27.6 6.5 22.8 9.8 47.6 3.3 24.8 4.3 50.2 1 25.4 1.2 50.8 0.3 25.5 1.3 49 0 5 0.7 18.4 0.8 13.4 1.8 28.7 1 15.3 2.7 29.4 1.7 14 4.2 20.2 2.5-5.3 6.5-20.6 3.9-15.3 7.9-35.6 4-20.2 8.4-42.8 4.5-22.5 8-42.9 3.4-20.5 6.2-36 2.7-15.5 4.2-21.7 0.5-3.7 2-11.8 1.5-8 3.7-18 2.2-9.9 5-20.6 2.7-10.8 5.9-19.7 3.2-8.8 7-14.6 3.7-5.8 8.1-6.2 9.4-0.9 16.4 8.4 6.9 9.3 11.7 24 4.7 14.7 7.6 32.3 3 17.5 4.8 33.4 1.7 15.9 2.4 27.9 0.8 12 1.3 15.7 3 27.7 5.2 57.5 2.2 29.7 7.2 56.4 4.9 26.7 13.6 47.1 8.7 20.5 24.6 29.6 11.4 6.6 22.8 4.7 11.4-1.8 21.8-9.5 10.4-7.6 19.8-19 9.5-11.4 16.9-23.1 7.4-11.8 12.9-22.8 5.5-10.9 8.4-17.5 13.9-32.7 22.3-68.9 8.5-36.1 10-73.1 1.5-37-5-73-6.4-35.9-21.3-69-4.5-10.3-12.2-22.5-7.7-12.2-18.3-20.7-10.7-8.4-23.8-10.1-13.2-1.6-28.5 8.7-14.4 9.9-19.6 26.2-5.2 16.4 1.2 31.6 1.5 3.4 0 5.2-1.5 1.9-3.7 2.5-2.2 0.6-4.7-0.4-2.5-1.1-3.5-3.9l-2-5q-3-8.3-1.2-17.8 1.7-9.5 6.4-18.4 4.7-8.9 11.9-16.5 7.2-7.6 15.7-12.2 16.8-9.1 31.2-6.4 14.4 2.7 25.8 11.8 11.4 9.1 19.6 21.7 8.2 12.6 13.1 23.7 12.4 26.9 18.9 55 6.4 28.1 7.9 57 1.5 29-1.7 57.7-3.3 28.7-10.2 56.4-3 11.2-7.7 26.3-4.7 15.1-11.4 31.4-6.7 16.3-15.4 32.8-8.7 16.6-19.1 30.4-10.4 13.9-22.5 23.8-12.2 9.9-26.1 13.2-6.4 1.2-10.4 0.8-20.8-0.4-35.9-12.6-15.2-12.2-25.8-31.2-10.7-19-17.4-42.1-6.7-23.2-10.7-45.3-3.9-22.1-5.9-41.1-2-19-3-29.4-1.5-17.3-2.2-39.6-0.8-22.4-2-42.6-1.3-20.3-3.3-35.1-2-14.9-5.9-17.8-2.5 1.6-4.8 7-2.2 5.4-4.4 11.8-2.3 6.4-3.8 12-1.5 5.6-2 8-13.9 53.8-21.9 108.3-7.9 54.6-20.4 108.7-0.5 1.3-2 8.3-1.5 7-4.2 14.2-2.8 7.3-6.2 11.8-3.5 4.6-8 1.3-10-7.1-16.2-23.6-6.2-16.5-10.2-40.1-4-23.5-6.2-52.7-2.3-29.1-4.2-61.8-1.5-27.2-3.5-54.1-2-26.9-5.2-50.4-3.2-23.6-8.5-42.6-5.2-19-13.3-31.2-8.2-12.2-20.1-15.7-11.9-3.5-28.3 3.5-13.9 6.2-25 17.8-11.2 11.5-19.6 26.4-8.5 14.9-14.4 31.8-6 17-9.4 33.7-3.5 16.8-4.5 32.1-1 15.3 0.5 26.8 3.5 27.3 19.3 44.5 15.9 17.1 44.2 30.3 2.9 1.3 3.4 3.5 0.5 2.3-0.7 4-1.2 1.6-3.7 2.5-2.5 0.8-5.5-0.9z"/>
			<path id="&lt;Compound Path&gt;" fill-rule="evenodd" fill="#2A4062" d="m390.5 446.9q-1.2 0-2.3-0.1c-14.1-0.3-26.5-4.7-36.9-13-10.2-8.3-19-19-26.2-31.8-7.2-12.7-13.1-27-17.6-42.5-4.4-15.5-8-30.8-10.7-45.5-2.6-14.6-4.6-28.5-5.9-41.2q-2-19-3-29.4c-1-11.5-1.8-24.9-2.3-39.8-0.5-14.7-1.1-29-1.9-42.5-0.9-13.4-2-25.2-3.3-35-1.3-9.5-2.9-13.7-4.2-15.5-0.8 1-1.9 2.6-3 5.2-1.4 3.6-2.9 7.5-4.4 11.7-1.5 4.3-2.7 8.3-3.7 11.9q-1.5 5.4-2 7.9c-9.2 35.7-16.6 72-21.8 108.2-5.3 36.2-12.2 72.8-20.5 108.8-0.2 0.7-0.7 2.1-2 8.3-1 4.7-2.4 9.6-4.3 14.5-1.9 5-4.1 9.1-6.5 12.2-2.9 3.9-6.7 4.5-10.5 1.6-6.9-4.8-12.5-13-16.8-24.3-4.2-11.1-7.6-24.7-10.3-40.5-2.7-15.7-4.8-33.5-6.2-52.8-1.5-19.3-3-40.1-4.3-61.9-0.9-17.6-2.1-35.8-3.5-54.1-1.3-17.7-3-34.7-5.1-50.3-2.2-15.6-5-29.8-8.4-42.3-3.4-12.4-7.9-22.8-13.2-30.7-5.2-7.7-11.6-12.7-19.1-15-7.4-2.2-16.5-1-27 3.5-8.9 4-17.2 9.8-24.4 17.3-7.3 7.6-13.8 16.4-19.3 26.1-5.6 9.8-10.4 20.4-14.3 31.6-3.9 11.1-7 22.4-9.3 33.4-2.3 11-3.8 21.7-4.5 31.8-0.6 10-0.5 18.9 0.5 26.5 2.3 17.7 8.6 32.3 18.9 43.4 10.4 11.2 25 21.3 43.6 30 2.4 1 4 2.6 4.4 4.7 0.5 2.1 0.1 4-1 5.5q-1.6 2.1-4.6 3.1-3.3 1.1-6.9-0.9c-18.6-8.9-33.3-19.5-43.5-31.5-10.2-12-17.3-27.2-21-45-1.6-8.7-2.3-18.9-2-30.4 0.4-11.5 1.8-23.8 4.3-36.7 2.5-12.8 6.1-25.8 10.7-38.7 4.7-12.9 10.5-25 17.3-36.1 6.8-11.1 14.8-20.9 23.6-29.1 8.9-8.3 19.3-14.2 30.7-17.6 13.6-3.9 25.8-3.6 36.3 0.9 10.3 4.5 19.2 11.2 26.4 19.8 7.2 8.5 13.3 18.1 18 28.7 4.7 10.5 8.3 19.9 10.6 27.9 4.4 15.3 7.7 31.3 9.9 47.8 2.2 16.5 3.6 33.5 4.3 50.4 0.7 17 1.1 34.1 1.3 50.9 0.2 16.9 0.6 33.3 1.2 48.9 0 3.4 0.3 9.5 0.8 18.4q0.7 13.4 1.7 28.7c0.7 10.2 1.6 20 2.7 29.2q1.2 9.2 2.6 14.9 1.9-5.6 4.5-15.5c2.6-10.1 5.3-22 7.9-35.4q4-20.3 8.4-42.8c3-14.9 5.7-29.3 8-43q3.4-20.4 6.2-35.9c1.8-10.3 3.2-17.6 4.2-21.8q0.4-3.4 2-11.7c1-5.5 2.2-11.5 3.7-18.1q2.2-9.9 5-20.7c1.8-7.1 3.8-13.8 6-19.8 2.2-6 4.6-11.1 7.1-15 2.8-4.4 6-6.7 9.6-7.1 6.9-0.5 13 2.5 18 9.2 4.7 6.4 8.7 14.6 11.9 24.6 3.2 9.8 5.8 20.7 7.8 32.4 1.9 11.7 3.5 23 4.7 33.6 1.1 10.6 2 20.1 2.5 28 0.5 8.1 0.9 13.2 1.2 15.6 2 18.4 3.7 37.7 5.2 57.5 1.5 19.7 3.9 38.7 7.2 56.3 3.2 17.5 7.8 33.2 13.5 46.7 5.6 13.2 13.6 22.8 23.8 28.7 7.2 4.1 14.4 5.7 21.6 4.5 7.3-1.2 14.3-4.3 21-9.2 6.8-5 13.4-11.2 19.5-18.7 6.2-7.5 11.9-15.2 16.7-22.9 4.9-7.7 9.2-15.3 12.9-22.6 3.6-7.2 6.4-13.1 8.4-17.5 9.1-21.5 16.6-44.6 22.2-68.5 5.5-23.9 8.8-48.4 9.8-72.8 1-24.4-0.7-48.8-4.9-72.5-4.3-23.7-11.4-46.8-21.2-68.6-2.9-6.8-7-14.3-12-22.3-5-7.9-11.1-14.7-18-20.2-6.8-5.4-14.5-8.7-22.9-9.8-8.2-1-17.4 1.8-27.2 8.4-9.2 6.3-15.5 14.8-18.9 25.3-3.3 10.4-2.9 20.6 1.2 30.3 1.3 2.9 1.2 5.2-0.3 7.1q-1.8 2.3-4.6 3.1-2.9 0.8-5.9-0.5c-2.2-0.9-3.7-2.6-4.5-5.1l-2-4.8c-2.1-5.9-2.5-12.2-1.3-18.8 1.1-6.5 3.4-12.9 6.6-18.9 3.2-6.1 7.3-11.8 12.2-17 4.9-5.2 10.3-9.4 16.1-12.5 11.5-6.3 22.5-8.5 32.4-6.6 9.9 1.8 18.8 5.9 26.6 12.1 7.8 6.2 14.5 13.7 20 22.2 5.5 8.4 10 16.5 13.3 24 8.3 17.9 14.7 36.6 19 55.3 4.3 18.8 7 38.1 7.9 57.4 1 19.2 0.4 38.7-1.7 57.9-2.2 19.2-5.6 38.3-10.2 56.7-2 7.3-4.6 16.2-7.7 26.3-3.2 10.1-7 20.7-11.5 31.6-4.4 10.8-9.6 21.9-15.4 33-5.9 11.1-12.3 21.4-19.3 30.6-7 9.3-14.7 17.4-22.9 24.1-8.2 6.8-17.3 11.3-26.7 13.6q-5.1 1-8.8 1zm-114.2-341.1l1.1 0.8c3.1 2.3 5.2 8.3 6.7 19 1.3 9.9 2.4 21.8 3.2 35.3 0.9 13.5 1.5 27.9 2 42.6 0.5 14.8 1.3 28.1 2.3 39.6q0.9 10.3 2.9 29.3c1.3 12.6 3.3 26.4 6 41 2.6 14.6 6.1 29.7 10.6 45.1 4.4 15.2 10.2 29.2 17.2 41.7 6.9 12.4 15.5 22.8 25.3 30.7 9.7 7.8 21.4 11.9 34.9 12.2q3.9 0.4 10-0.8c8.8-2.1 17.4-6.5 25.2-12.9 7.9-6.4 15.4-14.3 22.3-23.4 6.8-9.1 13.2-19.2 18.9-30.1 5.8-11 10.9-22 15.3-32.7 4.4-10.8 8.2-21.3 11.4-31.3 3.1-10.1 5.7-18.9 7.6-26.2 4.6-18.2 8-37.1 10.1-56.1 2.2-19 2.7-38.3 1.8-57.4-1-19-3.7-38.1-7.9-56.7-4.3-18.5-10.6-36.8-18.8-54.6-3.2-7.3-7.6-15.2-13-23.5-5.3-8.2-11.7-15.4-19.2-21.3-7.3-5.8-15.7-9.7-24.9-11.4-9.2-1.7-19.3 0.4-30.1 6.2-5.4 3-10.5 6.9-15.1 11.9-4.7 4.9-8.6 10.3-11.7 16.1-3 5.7-5.1 11.7-6.2 17.9-1.1 5.9-0.7 11.6 1.1 16.8l2 4.9c0.5 1.5 1.3 2.4 2.5 2.9 1.3 0.5 2.4 0.6 3.5 0.3 1.1-0.3 2-0.9 2.8-1.8q0.7-1-0.3-3.3c-4.4-10.6-4.9-21.7-1.3-32.9 3.6-11.3 10.4-20.4 20.3-27.2 10.6-7.2 20.6-10.2 29.8-9 9.1 1.1 17.4 4.7 24.7 10.5 7.3 5.7 13.6 12.8 18.8 21.1 5.1 8.2 9.3 15.9 12.3 22.8 9.9 22 17.1 45.4 21.4 69.4 4.3 24 6 48.7 5 73.4-1 24.6-4.3 49.3-10 73.5-5.6 24.1-13.1 47.3-22.4 69.1-2 4.4-4.8 10.4-8.5 17.6-3.6 7.4-8 15.1-12.9 22.9-5 7.9-10.7 15.7-17 23.4-6.4 7.6-13.2 14.1-20.2 19.3-7.2 5.2-14.8 8.6-22.6 9.8-8 1.3-16.1-0.3-24.1-4.9-10.8-6.3-19.4-16.5-25.3-30.5-5.8-13.7-10.4-29.6-13.7-47.5-3.3-17.7-5.8-36.7-7.3-56.6-1.4-19.8-3.2-39.1-5.2-57.4-0.3-2.4-0.7-7.6-1.2-15.8-0.5-7.9-1.3-17.2-2.5-27.8-1.1-10.5-2.7-21.7-4.7-33.3-1.9-11.6-4.5-22.4-7.6-32-3.1-9.6-6.9-17.5-11.4-23.5-4.2-5.7-9.1-8.2-14.7-7.7-2.4 0.2-4.7 2-6.8 5.4-2.4 3.7-4.7 8.5-6.8 14.3-2.1 5.8-4.1 12.4-5.9 19.4q-2.7 10.8-4.9 20.6c-1.5 6.5-2.7 12.6-3.7 18-1 5.4-1.7 9.2-2 11.6q-1.5 6.6-4.2 21.8-2.7 15.5-6.2 36c-2.3 13.6-5 28.1-8 43q-4.4 22.5-8.4 42.8c-2.6 13.5-5.3 25.5-7.9 35.6-2.7 10.4-4.9 17.3-6.6 21l-1.8 3.9-1.6-4c-1.7-4.3-3.1-11.1-4.3-20.7-1.2-9.3-2.1-19.2-2.8-29.5q-1-15.2-1.7-28.7c-0.5-8.9-0.7-15.2-0.7-18.5-0.7-15.6-1.1-32.1-1.3-48.9-0.2-16.8-0.6-33.9-1.3-50.8-0.6-16.9-2.1-33.7-4.2-50.1-2.2-16.3-5.5-32.2-9.8-47.2-2.3-7.9-5.8-17.2-10.5-27.5-4.6-10.2-10.4-19.6-17.4-27.9-6.9-8.1-15.3-14.4-25.1-18.7-9.6-4.2-21-4.4-33.7-0.7-10.9 3.2-20.8 8.8-29.3 16.7-8.6 8-16.3 17.5-23 28.3-6.7 10.9-12.4 22.8-16.9 35.5-4.6 12.6-8.2 25.5-10.6 38.1-2.5 12.7-3.9 24.8-4.2 36.1-0.3 11.3 0.3 21.2 2 29.6 3.5 17.2 10.3 31.8 20.1 43.3 9.9 11.6 24.1 21.9 42.3 30.6h0.1c1.5 0.9 2.8 1.1 4 0.7q1.9-0.6 2.8-1.8c0.3-0.5 0.7-1.2 0.4-2.5 0-0.3-0.3-1.3-2.3-2.2-19.1-8.9-34.1-19.2-44.8-30.8-10.8-11.7-17.5-26.9-19.8-45.4-1-7.8-1.2-17-0.5-27.3 0.6-10.2 2.1-21.1 4.5-32.2 2.3-11.2 5.5-22.6 9.4-34 4-11.3 8.9-22.1 14.6-32.1 5.6-10 12.3-19 19.8-26.8 7.6-7.9 16.2-14 25.6-18.2 11.3-4.8 21.3-6 29.6-3.6 8.3 2.5 15.4 8 21.1 16.5 5.5 8.2 10.1 18.9 13.6 31.7 3.5 12.7 6.3 27.1 8.5 42.8 2.1 15.7 3.9 32.7 5.2 50.6 1.4 18.2 2.5 36.5 3.5 54.1 1.3 21.7 2.7 42.5 4.2 61.8 1.5 19.2 3.6 36.9 6.2 52.5 2.6 15.5 6.1 28.9 10.1 39.8 4 10.6 9.3 18.2 15.6 22.7 2.2 1.6 3.7 1.3 5.4-0.9 2.2-2.9 4.2-6.7 6-11.3 1.8-4.7 3.2-9.4 4.1-14 1.4-6.4 1.9-8 2.1-8.6 8.2-35.6 15-72.1 20.3-108.2 5.3-36.3 12.7-72.8 22-108.5 0.3-1.6 0.9-4.3 2-8.1 0.9-3.7 2.2-7.8 3.7-12.1 1.5-4.3 3-8.3 4.5-11.9 1.7-4 3.5-6.5 5.5-7.8z"/>
		</g>
		<g id="&lt;Group&gt;">
			<path id="&lt;Compound Path&gt;" fill-rule="evenodd" fill="#2A4062" d="m583.3 253.6q7.5-0.4 12.7 2.7 5.2 3.1 7.7 8.4 2.4 5.4 2.2 11.8-0.3 6.4-4.2 12.2-4 5.8-11.9 10.1-8 4.4-19.9 5.6v1.7q-1.5 12.4-1 22.3 0.5 9.9 3 16.1 2.5 6.2 7.5 8.1 4.9 1.8 12.9-2.3 13.8-8.3 26-20.9 12.1-12.6 21.1-26.2 2.4-3.8 4.7-7.3 2.2-3.5 4.7-7.6 2.5-4.6 5-9.3 2.4-4.8 4.9-9.7h8.9l-11.4 21.5q-4.4 8.6-12.9 20.4-8.4 11.8-18.8 22.8-10.4 10.9-22.6 19-12.1 8-24.5 9.3-12.4 1.2-20.9-4.8-8.4-6-13.3-15.1-5-9.1-6.7-20-1.8-11-0.3-19.6 1.5-9.6 5.7-18.2 4.2-8.7 10.7-15.3 6.4-6.6 14.4-10.8 7.9-4.1 16.3-4.9zm3 7.4q-7 1.2-10.4 12.6-3.5 11.4-5.5 25 14.4-2.5 20.6-9.1 6.2-6.6 6.7-13.2 0.5-6.6-3-11.4-3.4-4.7-8.4-3.9z"/>
			<path id="&lt;Compound Path&gt;" fill-rule="evenodd" fill="#2A4062" d="m573.3 364.3c-6.9 0-12.9-1.8-17.8-5.3-5.8-4.1-10.5-9.4-14-15.7-3.4-6.2-5.7-13.1-6.9-20.6-1.1-7.5-1.2-14.3-0.2-20.3 1-6.4 3-12.7 5.9-18.6 2.8-6 6.5-11.3 11-15.8 4.4-4.5 9.4-8.3 14.8-11.1 5.5-2.9 11.2-4.6 17-5.2h0.1c5.3-0.3 9.9 0.7 13.7 3 3.8 2.2 6.6 5.3 8.4 9.3 1.8 3.8 2.6 8 2.4 12.6-0.2 4.6-1.7 9-4.5 13.1-2.8 4.1-7 7.7-12.5 10.7-5.2 2.8-11.5 4.7-18.9 5.6v0.1q-1.5 12.5-1 22.2c0.3 6.4 1.2 11.6 2.8 15.5 1.5 3.7 3.6 6 6.4 7 2.8 1.1 6.6 0.3 11.4-2.2 9-5.3 17.6-12.2 25.6-20.5 8-8.3 15-17 20.8-25.9q2.5-3.8 4.7-7.3 2.2-3.4 4.7-7.6c1.6-2.9 3.3-6 4.9-9.2q2.5-4.7 5-9.7l0.5-1h13.1l-12.8 24.2c-3 5.8-7.4 12.8-13.1 20.7-5.6 7.9-12 15.6-19 22.9-7 7.4-14.7 13.9-22.9 19.3-8.3 5.5-16.8 8.7-25.3 9.6q-2.2 0.2-4.3 0.2zm10.2-108.9c-5.4 0.5-10.7 2.1-15.7 4.8-5.1 2.6-9.8 6.1-13.9 10.4-4.1 4.2-7.6 9.2-10.3 14.8-2.8 5.6-4.6 11.5-5.6 17.6-0.9 5.6-0.8 12 0.3 19.1 1.1 7.1 3.3 13.6 6.5 19.4 3.1 5.8 7.5 10.7 12.8 14.5 5.2 3.7 11.8 5.2 19.6 4.4 7.9-0.8 15.9-3.8 23.7-9 8-5.2 15.5-11.6 22.3-18.7 6.8-7.2 13.1-14.8 18.6-22.5 5.6-7.8 9.9-14.6 12.8-20.3l10-18.8h-4.8q-2.2 4.5-4.4 8.7-2.5 4.8-5 9.4c-1.7 2.8-3.3 5.4-4.8 7.7q-2.2 3.5-4.7 7.3c-6 9.1-13.1 18-21.3 26.5-8.2 8.5-17.1 15.6-26.4 21.2q-8.8 4.5-14.5 2.4c-3.8-1.4-6.7-4.5-8.5-9.1-1.7-4.3-2.8-10-3.1-16.7-0.3-6.7 0-14.3 1-22.7v-3.1l1.6-0.1c7.7-0.8 14.1-2.6 19.2-5.4 5-2.7 8.8-5.9 11.3-9.5 2.4-3.6 3.7-7.4 3.8-11.3 0.2-3.9-0.5-7.6-2-10.9-1.5-3.2-3.9-5.8-7-7.7-3.1-1.8-7-2.6-11.5-2.4zm-15.3 45.5l0.4-2.5c1.3-9.2 3.2-17.7 5.5-25.3 2.5-8.3 6.5-12.9 11.9-13.9 2.7-0.5 6.8 0 10.2 4.6 2.6 3.6 3.7 7.8 3.3 12.6-0.3 4.9-2.7 9.7-7.1 14.4-4.4 4.7-11.7 7.9-21.7 9.6zm18.4-38c-3.9 0.7-6.9 4.5-9 11.3-2 6.8-3.7 14.2-5 22.2 7.9-1.7 13.6-4.4 17.1-8.1 3.8-4 5.9-8.1 6.2-12.1 0.3-4-0.6-7.3-2.7-10.1-1.9-2.6-4-3.6-6.6-3.2z"/>
		</g>
		<g id="&lt;Group&gt;">
			<path id="&lt;Compound Path&gt;" fill-rule="evenodd" fill="#2A4062" d="m769.3 298.2q0.5-1.2 1-1.2 4-6.6 7.7-13.7 3.7-7 7.2-14h8.9l-16.9 30.6-0.4 0.4q-0.1 0.4-0.3 0.4-0.2 0-0.2 0.4-6 9.5-14.9 23.8-9 14.2-19.6 27.9-10.7 13.6-22.1 23.5-11.4 9.9-21.3 10.8-11.9 0.8-19.6-7.3-7.7-8-12.4-21.5-4.7-13.4-6.9-29.9-2.3-16.6-3-32.5-0.8-15.9-0.8-29.3 0-13.4 0-20.5 0-22.3 2.5-53.3 2.5-31 8.9-61.6 7.5-36.3 21.9-58.7 14.3-22.3 28.5-29.1 14.1-6.8 24.3 2.3 10.1 9.1 9.7 35.5-0.5 26.5-15.2 70.5-14.6 44-50.3 106.8-1.5 19.9-2 40.3-0.5 20.5 1 37.4 1.5 17 5.5 27.9 3.9 11 12.4 11.8 4.9 0.4 13.3-7.6 8.5-8.1 17.4-19.5 8.9-11.3 17.4-23.5 8.4-12.2 13.8-20.1zm-81.8-61.1q26.3-50.9 38.7-88.1 12.4-37.2 14.6-60.1 2.3-22.9-2.7-31.6-5-8.7-12.9-3.1-7.9 5.6-16.4 25.6-8.4 20-12.4 54.8-1 9.1-2.2 23.7-1.2 14.7-2.5 29.8-1.2 15.1-2.2 28.7-1 13.6-2 20.3z"/>
			<path id="&lt;Compound Path&gt;" fill-rule="evenodd" fill="#2A4062" d="m696.2 389c-7.4 0-13.7-2.7-18.7-7.9-5.3-5.5-9.6-13-12.8-22.2-3.2-8.9-5.6-19.1-7.1-30.3-1.5-11-2.5-22-3-32.6-0.5-10.6-0.7-20.5-0.7-29.4v-20.5c0-14.9 0.8-32.9 2.5-53.4 1.6-20.7 4.6-41.5 8.9-61.9 5-24.3 12.5-44.3 22.1-59.3 9.7-15.1 19.6-25.1 29.3-29.8 10.1-4.8 19-4 26.3 2.6 7.3 6.5 10.6 18.6 10.3 37-0.3 17.7-5.5 41.6-15.2 71-9.8 29.2-26.7 65.2-50.3 106.8-1 13-1.6 26.4-2 39.8-0.3 13.5 0 26 1 37.2 1 11.1 2.8 20.3 5.4 27.4 2.4 6.6 5.9 10.1 10.8 10.6 1.9 0.2 5.5-1 12-7.2 5.5-5.3 11.3-11.8 17.2-19.2 5.8-7.5 11.6-15.4 17.2-23.5q8.5-12.2 13.9-20l4.4-6.8q0.5-1.3 1.3-1.9c2.5-4.2 5-8.6 7.4-13q3.7-7 7.1-14l0.5-1.1h13.2l-18.8 33.9q-0.2 0.4-0.5 0.7l-0.1 0.1-14.9 23.7c-5.9 9.6-12.5 19-19.7 28.1-7.1 9.2-14.6 17.2-22.3 23.8-7.9 6.9-15.4 10.6-22.4 11.2q-1.1 0.1-2.3 0.1zm32.7-346.7q-4.9 0-10.6 2.8c-9.1 4.3-18.4 13.9-27.8 28.4-9.4 14.6-16.7 34.2-21.6 58.1-4.2 20.2-7.2 40.9-8.9 61.4-1.6 20.4-2.4 38.3-2.4 53.1v20.5c0 8.9 0.2 18.7 0.7 29.2 0.5 10.5 1.5 21.4 3 32.3 1.4 10.9 3.8 20.9 6.8 29.6 3.1 8.7 7.1 15.7 12 20.9 4.8 5 10.7 7.2 18.2 6.6 6.1-0.5 12.9-4 20.2-10.3 7.5-6.5 14.8-14.3 21.8-23.3 7.1-9 13.6-18.3 19.5-27.7l14.7-23.4q0.1-0.6 0.4-0.9v-0.2l0.9-0.7 15.2-27.6h-4.7q-3.2 6.6-6.7 13.1c-2.5 4.7-5.1 9.3-7.7 13.7l-0.6 0.9h-0.2q-0.1 0-0.1 0.1l-0.1 0.3-4.5 7c-3.7 5.3-8.3 12-13.9 20.1-5.7 8.2-11.5 16.1-17.4 23.7-6 7.6-11.9 14.2-17.6 19.6-6.1 5.8-10.9 8.5-14.8 8.1-6.4-0.6-11.1-5-14-12.9-2.7-7.4-4.5-17-5.5-28.4-1-11.3-1.4-24-1-37.6 0.3-13.6 1-27.1 1.9-40.4l0.3-0.8c23.6-41.5 40.5-77.4 50.2-106.5 9.6-29 14.7-52.5 15-69.9 0.3-17-2.7-28.5-9-34.2-3.6-3.1-7.4-4.7-11.7-4.7zm-44.9 205.4l1.7-10.9c0.6-4.3 1.3-11.1 1.9-20.1q1-13.7 2.3-28.8 1.2-15.1 2.4-29.8 1.3-14.7 2.3-23.8c2.6-23.2 6.8-41.8 12.5-55.2 5.8-13.9 11.4-22.5 17-26.5 3-2.1 5.9-2.9 8.6-2.3 2.7 0.6 5 2.6 7 6 3.5 6.2 4.5 16.9 2.9 32.7-1.5 15.4-6.4 35.7-14.7 60.6-8.3 24.8-21.3 54.5-38.8 88.3zm46.9-194q-2.1 0.1-4.7 1.9c-5 3.5-10.2 11.9-15.7 24.8-5.5 13.2-9.7 31.4-12.3 54.3q-1 9.1-2.2 23.7-1.2 14.7-2.5 29.8-1.2 15-2.2 28.7-0.4 5.7-0.8 10.2c15-29.9 26.5-56.4 33.9-78.7 8.2-24.6 13.1-44.7 14.6-59.8 1.4-14.8 0.6-25.1-2.5-30.5q-2.2-3.7-4.6-4.2-0.5-0.2-1-0.2z"/>
		</g>
		<g id="&lt;Group&gt;">
			<path id="&lt;Compound Path&gt;" fill="#2A4062" d="m822.4 273.4q0-3.3 0-6.2 0-2.9-2.5-4.5-3-1.7-5.7 1.4-2.7 3.1-5.2 9.3-2.5 6.2-4.5 14.9-2 8.7-2.5 17.8-1.4 12.4-1 22.3 0.5 9.9 3 16.1 2.5 6.2 7.5 8.1 4.9 1.8 12.9-2.3 13.8-8.3 26-20.9 12.1-12.6 21.1-26.2 3.9-5.4 8.9-14.5l10.9-19.4h8.4l-11.4 21.5q-4.4 8.6-12.6 20.4-8.2 11.8-18.6 22.8-10.4 10.9-22.8 19-12.4 8-24.8 9.3-12.4 1.2-20.8-4.8-8.5-6-13.4-15.1-5-9.1-6.7-20-1.8-11-0.3-19.6 1.5-9.6 5.7-18.9 4.2-9.3 10.7-16.3 6.4-7 14.4-10.9 7.9-4 16.3-3.1 10.4 0.8 12.9 7.4 2.5 6.6 1.5 13.6 0 2.9-4.4 2.9-4-0.8-3-4.1z"/>
			<path id="&lt;Compound Path&gt;" fill-rule="evenodd" fill="#2A4062" d="m805.4 364.3c-6.9 0-12.9-1.8-17.8-5.3-5.8-4.1-10.5-9.4-14-15.7-3.3-6.2-5.7-13.2-6.9-20.6-1.1-7.5-1.2-14.3-0.2-20.3 1-6.4 3-12.9 5.8-19.2 2.9-6.4 6.6-12 11-16.8 4.4-4.8 9.5-8.7 14.9-11.4 5.6-2.7 11.5-3.8 17.4-3.3 7.7 0.6 12.5 3.5 14.5 8.7 1.7 4.6 2.2 9.5 1.5 14.5 0.1 1.2-0.6 4.5-6.2 4.5-2.4-0.5-3.7-1.3-4.5-2.5q-0.9-1.6-0.4-3.7v-6c0-1.3-0.5-2.3-1.6-3-0.8-0.4-1.8-0.6-3.3 1.1-1.7 1.9-3.3 4.9-4.9 8.8-1.6 4-3.1 8.9-4.4 14.6-1.3 5.7-2.1 11.5-2.4 17.5-1 8.2-1.3 15.6-1 22.1 0.3 6.4 1.3 11.6 2.8 15.5 1.5 3.7 3.6 6 6.4 7 2.8 1.1 6.6 0.3 11.4-2.2 9-5.3 17.6-12.2 25.6-20.5 8-8.3 15-17 20.8-25.9q4-5.4 8.9-14.4l11.4-20.4h12.6l-12.8 24.2c-3 5.8-7.3 12.8-12.8 20.7-5.5 7.9-11.8 15.6-18.8 22.9-7 7.4-14.7 13.9-23.1 19.3-8.5 5.5-17.1 8.7-25.6 9.6q-2.2 0.2-4.3 0.2zm7.2-109q-6.6 0-12.7 3c-5.1 2.5-9.7 6.1-13.9 10.6-4.1 4.5-7.6 9.8-10.3 15.8-2.7 6-4.6 12.2-5.6 18.3-0.9 5.6-0.8 12 0.3 19.1 1.1 7.1 3.3 13.6 6.5 19.4 3.1 5.9 7.5 10.7 12.8 14.5 5.2 3.7 11.8 5.2 19.6 4.4 7.9-0.8 16-3.8 24-9 8.1-5.3 15.7-11.6 22.5-18.7 6.8-7.2 13-14.8 18.4-22.5 5.4-7.8 9.6-14.6 12.5-20.3l10-18.8h-4.3l-10.4 18.5c-3.3 6.1-6.4 11-9 14.7-6 9-13.1 17.9-21.3 26.4-8.2 8.5-17 15.6-26.4 21.2q-8.8 4.5-14.5 2.4c-3.8-1.4-6.6-4.5-8.5-9.1-1.7-4.3-2.8-9.9-3.1-16.7-0.3-6.7 0-14.3 1-22.7 0.3-6 1.2-12.1 2.5-17.9 1.4-5.9 2.9-11 4.6-15.2 1.7-4.3 3.5-7.6 5.5-9.8 3.2-3.7 6.4-2.7 8-1.8 2.3 1.5 3.4 3.6 3.4 6.1l-0.1 6.7c0 0.3-0.2 0.8 0 1.1 0.1 0.1 0.4 0.5 1.6 0.7 2.3 0 2.3-0.7 2.3-1.1 0.6-4.6 0.1-8.8-1.4-12.9-1.4-3.8-5.1-5.8-11.3-6.3q-1.4-0.1-2.7-0.1z"/>
		</g>
		<g id="&lt;Group&gt;">
			<path id="&lt;Compound Path&gt;" fill-rule="evenodd" fill="#2A4062" d="m943.9 298.6q19.8 0 37.7-6.6 17.8-6.6 32.2-22.7l8 2.9q-16.4 18.2-35.8 25.6-19.3 7.4-42.6 7.8-1 8.7-3.7 18-2.8 9.3-7.2 17.4-4.5 8-10.2 13.4-5.7 5.4-13.1 6.2-10.5 1.3-17.9-1.8-7.4-3.1-12.1-8.9-4.7-5.8-7-13.5-2.2-7.6-2.7-15.9-0.5-9.5 1.7-18.2 2.3-8.6 4.7-14.4-11.9-9.1-13.4-20.9-1.4-11.8 3.5-21.7 5-9.9 14.9-16.3 9.9-6.4 20.3-5.2 9 1.3 15.9 5.4 6.9 4.1 11.7 10.1 4.7 6 7.9 13.2 3.2 7.3 5.2 14.7l2.5 15.3q0 3.3 0 7.4 0 4.2-0.5 8.7zm-23.8-32.6q-1.5 0-3.7 2-2.3 2.1-4.8 6-2.4 4-4.7 9.1-2.2 5.2-2.7 11 11.9 3.3 27.8 4.5h4.4q0-2.9 0.3-5.4 0.2-2.4-0.3-4.5 0-10.3-2.9-22.7-3.5-12.4-11.2-23.2-7.7-10.7-22.1-12.4-7.9-0.8-15.3 4.2-7.5 4.9-11.4 12.6-4 7.6-3.3 16.9 0.8 9.3 9.2 17.2l1-1.3q3-4.1 7.4-8.5 4.5-4.3 9.7-7.2 5.2-2.9 11.2-3.9 5.9-1 11.9 1.4 3.9 1.3 3.7 2.7-0.3 1.5-4.2 1.5zm-11.4 88q6.4-0.4 11.1-6.6 4.7-6.2 8-14.1 3.2-7.8 5.2-15.9 1.9-8 2.5-12.2-2.5 0-5.5-0.2-3-0.2-5.5-0.6-6.9-0.8-11.6-1.6-4.7-0.9-10.2-2.5-1 2.9-2.5 11.7-1.4 8.9-1.4 18.4-0.1 9.6 1.9 16.8 2 7.2 8 6.8z"/>
			<path id="&lt;Compound Path&gt;" fill-rule="evenodd" fill="#2A4062" d="m903.5 362.8c-4.8 0-9.1-0.8-12.9-2.3-5.2-2.2-9.5-5.4-12.9-9.5-3.3-4-5.7-8.7-7.3-14-1.5-5.2-2.4-10.7-2.7-16.4-0.4-6.5 0.2-12.8 1.7-18.7 1.4-5.2 2.8-9.7 4.3-13.4-7.6-6.2-12-13.3-13-21.3-1-8.1 0.2-15.8 3.7-22.7 3.4-6.9 8.6-12.6 15.5-17.1 7-4.5 14.2-6.3 21.5-5.4 6.2 0.8 11.8 2.7 16.6 5.6 4.8 2.9 8.9 6.4 12.2 10.6 3.2 4 6 8.6 8.2 13.6 2.2 4.9 3.9 9.9 5.3 14.9l2.5 15.5v7.7q0 3.3-0.3 6.9c12.2-0.3 24-2.4 35-6.5 11.6-4.3 22.2-11.8 31.5-22.3l0.9-0.9 11.6 4.3-1.8 2c-11 12.3-23.3 21.1-36.4 26.1-12.6 4.9-26.6 7.5-41.7 7.9-0.7 5.4-1.9 11-3.6 16.7-1.8 6.4-4.3 12.3-7.3 17.8-3.1 5.5-6.6 10.2-10.5 13.9-4.1 3.8-8.9 6.1-14.2 6.6q-3.1 0.4-5.9 0.4zm-5.6-137.3c-5.4 0-10.8 1.6-16 5-6.3 4.1-11.1 9.4-14.2 15.6-3.2 6.3-4.3 13.2-3.3 20.7 0.9 7.3 5.2 13.9 12.7 19.6l1.1 0.9-0.6 1.3c-1.6 3.8-3.1 8.6-4.6 14.2-1.4 5.6-2 11.5-1.7 17.6 0.3 5.4 1.2 10.6 2.7 15.5 1.4 4.9 3.6 9.2 6.6 12.8 2.9 3.6 6.8 6.4 11.4 8.4 4.7 1.9 10.4 2.5 16.9 1.7 4.7-0.5 8.6-2.4 12.1-5.7 3.7-3.5 7-7.8 9.9-13 2.9-5.2 5.2-10.9 7-17 1.8-6.1 3-12 3.7-17.7l0.1-1.6h1.7c15.2-0.3 29.3-2.9 42-7.7 11.8-4.6 23-12.4 33.1-23.1l-4.1-1.6c-9.6 10.5-20.4 18-32.2 22.3-12 4.5-24.9 6.8-38.3 6.8h-2.1l0.3-2.1c0.3-3 0.4-5.9 0.4-8.5v-7.4l-2.4-15c-1.3-4.6-3-9.5-5.1-14.2-2.1-4.7-4.7-9-7.7-12.9-3-3.8-6.7-7-11.1-9.6-4.4-2.7-9.6-4.4-15.2-5.2q-1.6-0.1-3.1-0.1zm10.1 130.4c-3.2 0-7.2-1.6-9-8.2-1.4-5-2.1-10.8-2.1-17.3 0-6.4 0.5-12.7 1.5-18.7 1-6 1.9-10 2.6-12l0.6-1.7 1.7 0.5c3.5 1.1 6.9 1.9 9.9 2.4 3.1 0.6 7 1.1 11.6 1.7 1.6 0.3 3.4 0.5 5.3 0.6q2.9 0.2 5.4 0.2h2l-0.2 2.1c-0.4 2.8-1.2 6.8-2.5 12.4-1.4 5.4-3.2 10.8-5.3 16.1-2.2 5.4-5 10.3-8.2 14.5-3.5 4.6-7.7 7-12.5 7.3q-0.4 0.1-0.8 0.1zm-4-53.3q-0.8 3.2-1.9 9.8c-1 5.8-1.5 11.8-1.5 18 0 6.2 0.6 11.7 1.9 16.3 1.4 5.2 4.2 5.6 6 5.5h0.1c3.7-0.3 6.9-2.2 9.8-5.9 3-4 5.6-8.6 7.7-13.7 2.1-5.1 3.8-10.4 5.1-15.6q1.5-6.2 2.1-10-1.6 0-3.4-0.1-3.1-0.2-5.7-0.7c-4.5-0.5-8.5-1.1-11.6-1.6q-4.1-0.7-8.6-2zm34.3-2.1h-6.3c-10.8-0.9-20.3-2.4-28.3-4.7l-1.5-0.4 0.2-1.5c0.3-4 1.3-7.9 2.8-11.5 1.6-3.5 3.2-6.7 4.9-9.4 1.7-2.7 3.4-4.8 5-6.3 1.9-1.7 3.5-2.6 5-2.6q0.8 0 1.3 0-0.5-0.2-1.4-0.5c-3.7-1.6-7.4-2-11-1.4-3.8 0.7-7.3 1.9-10.6 3.7-3.3 1.9-6.4 4.2-9.3 7-2.9 2.8-5.3 5.5-7.2 8.2l-2.3 2.9-1.4-1.4c-6-5.5-9.3-11.7-9.8-18.3-0.5-6.6 0.6-12.6 3.4-18 2.8-5.3 6.9-9.8 12-13.3 5.3-3.5 10.9-5 16.6-4.4 10.1 1.2 18 5.6 23.4 13.2 5.2 7.3 9.1 15.2 11.4 23.7 2.1 8.4 3.1 16.2 3.1 23.2 0.3 1.2 0.4 2.9 0.2 4.7q-0.2 2.4-0.2 5.2zm-32.1-7.7c7.4 1.9 16.2 3.3 25.9 4h2.5q0.1-1.9 0.3-3.7 0.2-2.1-0.2-3.9c-0.1-7.2-1.1-14.7-3-22.7-2.3-8-5.9-15.6-10.9-22.5-4.8-6.8-11.6-10.6-20.8-11.7-4.8-0.5-9.5 0.8-14.1 3.8-4.7 3.2-8.3 7.2-10.8 12-2.5 4.7-3.5 10.1-3 15.9 0.4 5.2 2.8 10.1 7.1 14.6 2-2.7 4.4-5.5 7.4-8.3 3-3 6.4-5.5 10-7.5 3.7-2.1 7.6-3.4 11.8-4.2 4.3-0.7 8.6-0.2 12.9 1.6 1.3 0.4 5.3 1.7 4.8 4.7-0.5 3-4.7 3-6 3-0.1 0-0.8 0-2.5 1.5-1.4 1.3-2.8 3.2-4.4 5.7-1.6 2.5-3.1 5.4-4.6 8.8q-1.8 4.2-2.4 8.9z"/>
		</g>
		<g id="&lt;Group&gt;">
			<path id="&lt;Compound Path&gt;" fill="#2A4062" d="m1036.6 280.8q0 7.5-0.7 16-0.8 8.4-2 16.7-1.2 8.3-2.5 15.9-1.2 7.7-1.7 13.9 3-6.2 7.4-20.3 4.5-14 11.2-28.9 6.7-14.9 14.9-27.1 8.1-12.2 18.6-14.7 6.4-1.6 10.6 1.3 4.2 2.9 6.7 8.6 2.5 5.8 3.2 13.7 0.8 7.8 0.3 16.1-0.5 8.7-1.7 17-1.3 8.2-2.3 14-1 5.8-1.2 8.3-0.3 2.5 1.7-0.4 7.5-10.4 15.4-24.6 7.9-14.3 16.4-29.6 5.4-9.1 9.6-16.5 4.2-7.5 7.2-12 3-4.5 9.7-12.2 6.7-7.6 14.1-11 9.9-3.7 16.9-0.4 6.9 3.3 11.4 11.6 4.5 8.3 6.2 20.1 1.7 11.7 0.7 25.4-0.5 9.9-3.4 26.2-3 16.3-5 31.8-2 15.5-1 26.3 1 10.7 8.4 9.5 5.5-1.2 13.7-9.1 8.2-7.8 17.1-18.6 8.9-10.7 17.1-22.3 8.2-11.6 14.1-20.3l0.5-0.4 5.5-8.7q1-1.2 2-3.7l1-1.2q2.9-5.4 6.2-10.8 3.2-5.3 5.7-11.1h8.9l-13.4 24.4-2.5 4.1q-9.9 16.1-20.1 31.2-10.1 15.1-20 26.9-10 11.7-19.4 18.8-9.4 7-17.3 7.4-12.9 0.8-20.4-4.5-7.4-5.4-11.1-14.5-3.8-9.1-4.5-20.7-0.7-11.5 0-23.1 0.7-11.6 2.2-21.9 1.5-10.3 2-17.4 1-12 2.2-24.2 1.3-12.1-0.5-17.9-1.7-5.8-7.6-1.5-6 4.4-18.9 25.4-10.9 18.2-20.1 36-9.2 17.8-21 35.5-1.5 2.1-3.8 5.8-2.2 3.7-4.7 7.3-2.5 3.5-5.4 5.7-3 2.3-5 1.5-5-1.3-7.7-7.2-2.7-6-3.5-14.5-0.7-8.5-0.5-18.2 0.3-9.7 1.3-18.8 0.5-3.7 1.2-9.7 0.8-6 1-11.4 0.3-5.3-0.5-8.9-0.7-3.5-3.2-3.1-4.5 1.3-9.9 10.6-5.5 9.3-10.7 20.8-5.2 11.6-9.2 22.4-3.9 10.7-5.4 14-1 2.5-2.7 7.5-1.8 4.9-4.3 9.5-2.4 4.5-5.9 7.4-3.5 2.9-7.9 0.8-7-2.9-10.2-9.3-3.2-6.4-4.5-14.6-1.2-8.3-0.7-17.4 0.5-9.1 1.7-17.6 1.3-8.4 2.2-15.1 1-6.6 1-10.3 0-2.9 4-2.7 4 0.2 8.9 2.1 5 1.9 9.2 5 4.2 3.1 4.7 5.9z"/>
			<path id="&lt;Compound Path&gt;" fill-rule="evenodd" fill="#2A4062" d="m1201.5 384.1c-7.5 0-13.5-1.7-18.2-5-5.2-3.8-9.1-9-11.7-15.3-2.6-6.2-4.1-13.4-4.6-21.3-0.5-7.7-0.5-15.6 0-23.3 0.5-7.7 1.2-15.2 2.2-22.1 1-6.7 1.6-12.5 2-17.2q1-12 2.2-24.2c0.8-7.9 0.7-13.7-0.4-17.3-0.2-0.6-0.6-1.7-1.3-2-0.2 0-1.2-0.2-3.6 1.5-3.7 2.7-9.9 11.1-18.3 24.9-7.2 12-13.9 24-20 35.8-6.2 11.9-13.3 24-21.2 35.8-1 1.4-2.2 3.2-3.7 5.7-1.5 2.5-3.1 4.9-4.8 7.3-1.8 2.5-3.7 4.6-5.8 6.2q-3.8 2.9-6.8 1.7c-3.6-0.9-6.6-3.7-8.7-8.2-1.9-4.1-3.1-9.2-3.6-15-0.5-5.8-0.7-12-0.5-18.4 0.2-6.6 0.6-13 1.3-19q0.5-3.8 1.2-9.7c0.5-3.9 0.8-7.7 1-11.3 0.1-3.4 0-6.2-0.5-8.4-0.4-1.8-0.8-1.7-1.1-1.6-1.5 0.4-4.4 2.5-8.6 9.6-3.6 6.1-7.1 13-10.6 20.7-3.4 7.7-6.5 15.1-9.1 22.2-2.7 7.3-4.5 12-5.5 14.2-0.7 1.5-1.6 4-2.7 7.3-1.2 3.4-2.7 6.7-4.3 9.7-1.8 3.3-4 6-6.4 8-2.9 2.4-6.3 2.8-9.9 1.1-5-2.1-8.7-5.5-11.1-10.1-2.2-4.5-3.7-9.6-4.6-15.3-0.8-5.6-1.1-11.5-0.8-17.7 0.4-6.1 1-12.1 1.8-17.7l2.2-15.1c0.7-4.3 1-7.7 1-10.1 0-1.6 0.7-2.7 1.3-3.2q1.5-1.5 4.6-1.3c2.8 0.1 6 0.9 9.5 2.2 3.4 1.3 6.7 3 9.6 5.2 3.2 2.3 5 4.7 5.4 7.1l0.1 0.3c0 5-0.3 10.4-0.8 16.1-0.5 5.6-1.2 11.3-2 16.9q-1.1 7.5-2.2 14.5 0.9-2.7 1.9-5.9c3-9.4 6.7-19.2 11.2-29.1 4.5-9.9 9.5-19.1 15-27.3 5.7-8.5 12.4-13.7 19.7-15.5 4.8-1.2 8.9-0.7 12.2 1.6 3 2.1 5.5 5.3 7.3 9.4 1.7 4.1 2.9 8.8 3.4 14.2 0.5 5.3 0.6 10.8 0.2 16.4-0.3 5.8-0.9 11.5-1.7 17.1q-1.3 8.3-2.3 14.1-0.3 1.8-0.5 3.2c4.2-6.1 8.6-13.2 13-21.1q7.9-14.3 16.3-29.6c3.7-6.1 6.9-11.6 9.7-16.5 2.8-4.9 5.2-9 7.3-12.1 2-3.1 5.2-7.2 9.8-12.4 4.6-5.3 9.6-9.1 14.8-11.4 7.1-2.7 13.3-2.8 18.4-0.4 5 2.3 9.1 6.5 12.2 12.3 3.1 5.7 5.2 12.6 6.4 20.7 1.2 7.9 1.4 16.6 0.8 25.8-0.4 6.6-1.5 15.6-3.5 26.4-2 11-3.7 21.6-5 31.8-1.3 10.1-1.6 18.8-0.9 25.8 0.3 3.6 1.2 6.1 2.6 7.2 0.9 0.7 2.1 0.9 3.6 0.7 3.2-0.7 7.5-3.6 12.7-8.6 5.4-5.2 11.1-11.4 17-18.5 5.9-7.1 11.6-14.5 17-22.2q8.2-11.5 14.1-20.2l0.6-0.6 5.3-8.4c0.7-0.9 1.3-2 1.9-3.5l0.2-0.4 1-1.3c1.9-3.3 3.9-6.9 6.1-10.5 2.1-3.5 4-7.2 5.6-11l0.5-1.1h13.2l-17.4 31.3c-6.6 10.8-13.4 21.3-20.1 31.3-6.8 10.1-13.6 19.1-20.2 27-6.7 8-13.3 14.4-19.7 19.1-6.5 4.9-12.7 7.5-18.3 7.8q-1.8 0.2-3.4 0.2zm-30.1-151.4q0.8 0 1.5 0.3 2.6 0.8 3.6 4.3c1.2 4.2 1.4 10.3 0.6 18.7q-1.3 12.2-2.3 24.2c-0.3 4.7-1 10.6-1.9 17.4-1 6.9-1.8 14.2-2.3 21.8-0.5 7.6-0.5 15.3 0 22.9 0.5 7.5 2 14.2 4.4 20.1 2.3 5.7 5.8 10.3 10.5 13.7 4.6 3.3 11 4.7 19.1 4.2 5-0.3 10.5-2.7 16.4-7.1 6.2-4.6 12.6-10.8 19.1-18.5 6.5-7.8 13.2-16.8 19.9-26.7 6.8-10 13.5-20.5 20.1-31.2l2.4-4.1 11.9-21.6h-4.6c-1.6 3.6-3.4 7-5.3 10.3q-3.3 5.3-6.2 10.7l-1 1.2c-0.7 1.8-1.4 3.1-2.2 4l-6 9.2q-5.9 8.6-14 20c-5.4 7.8-11.2 15.3-17.2 22.5-6 7.2-11.8 13.5-17.2 18.7-5.8 5.6-10.5 8.7-14.5 9.6q-4 0.7-6.6-1.4c-2.3-1.7-3.7-5-4.1-9.7-0.7-7.3-0.4-16.3 1-26.7 1.3-10.2 3-20.9 5-31.9 1.9-10.7 3.1-19.5 3.4-26 0.6-9 0.4-17.4-0.7-25.1-1.2-7.6-3.2-14.1-6-19.4-2.8-5.1-6.4-8.8-10.6-10.8-4.1-2-9.3-1.8-15.4 0.5-4.6 2-9.2 5.5-13.4 10.4-4.4 5.1-7.6 9.1-9.5 12-2.1 3.1-4.5 7.1-7.2 11.9q-4.2 7.5-9.7 16.6-8.4 15.2-16.3 29.5c-5.3 9.5-10.5 17.8-15.5 24.7-0.7 1.1-1.9 2.9-3.7 2.2q-1.6-0.6-1.4-3c0.2-1.7 0.6-4.6 1.3-8.4q1-5.8 2.2-14c0.8-5.5 1.4-11.1 1.7-16.8 0.4-5.4 0.3-10.8-0.2-15.8-0.5-5-1.5-9.5-3.1-13.1-1.5-3.5-3.5-6.2-6-7.9-2.4-1.6-5.4-2-9.2-1-6.5 1.6-12.3 6.2-17.5 13.9-5.4 8-10.3 17.1-14.7 26.8-4.5 9.8-8.2 19.5-11.1 28.8-3.1 9.5-5.5 16.2-7.6 20.5l-3.9 8.2c2-1.8 3.7-4 5.1-6.6 1.6-2.9 3-6 4.1-9.3q1.8-5 2.8-7.5c1-2.2 2.7-6.7 5.4-14 2.7-7.1 5.8-14.7 9.2-22.4 3.5-7.8 7.2-14.9 10.8-21.1 3.9-6.6 7.5-10.4 11-11.3 1.5-0.3 4.5-0.3 5.5 4.5 0.6 2.5 0.7 5.5 0.6 9.3-0.2 3.7-0.6 7.5-1 11.5q-0.8 6-1.3 9.7c-0.6 5.9-1 12.2-1.2 18.7-0.2 6.3 0 12.3 0.5 17.9 0.5 5.5 1.6 10.1 3.3 13.9 1.6 3.5 3.7 5.5 6.5 6.2 0.9 0.4 2-0.1 3.3-1.1 1.9-1.4 3.6-3.2 5.1-5.4 1.6-2.3 3.2-4.7 4.7-7.1q2.2-3.8 3.8-5.9c7.7-11.7 14.8-23.6 20.9-35.4 6.1-11.8 12.9-23.9 20.1-36 8.8-14.4 15.2-22.9 19.4-26q3-2.2 5.4-2.2zm-158.1 37c-0.8 0-1.3 0.1-1.5 0.3-0.1 0.1-0.1 0.4-0.1 0.5 0 2.6-0.4 6.2-1 10.6l-2.3 15.1c-0.8 5.6-1.3 11.4-1.7 17.4-0.3 5.9 0 11.6 0.7 17 0.8 5.3 2.3 10 4.3 14.1 2 3.9 5 6.7 9.3 8.4 2.4 1.1 4.3 1 6-0.5q0.1 0 0.1-0.1l0.7-9.4c0.4-4.1 1-8.9 1.8-14q1.2-7.6 2.5-15.9c0.8-5.5 1.5-11.1 1.9-16.6 0.5-5.5 0.8-10.7 0.8-15.6-0.3-1.4-1.7-3-4-4.7-2.6-1.9-5.6-3.5-8.7-4.7-3.1-1.1-5.9-1.8-8.4-1.9q-0.2 0-0.4 0z"/>
		</g>
		<g id="&lt;Group&gt;">
			<path id="&lt;Compound Path&gt;" fill-rule="evenodd" fill="#2A4062" d="m1317.8 253.6q7.5-0.4 12.7 2.7 5.2 3.1 7.7 8.4 2.4 5.4 2.2 11.8-0.2 6.4-4.2 12.2-4 5.8-11.9 10.1-7.9 4.4-19.9 5.6v1.7q-1.4 12.4-0.9 22.3 0.4 9.9 2.9 16.1 2.5 6.2 7.5 8.1 4.9 1.8 12.9-2.3 13.8-8.3 26-20.9 12.2-12.6 21.1-26.2 2.5-3.8 4.7-7.3 2.2-3.5 4.7-7.6 2.5-4.6 5-9.3 2.4-4.8 4.9-9.7h9l-11.5 21.5q-4.4 8.6-12.8 20.4-8.5 11.8-18.9 22.8-10.4 10.9-22.6 19-12.1 8-24.5 9.3-12.4 1.2-20.8-4.8-8.5-6-13.4-15.1-5-9.1-6.7-20-1.8-11-0.3-19.6 1.5-9.6 5.7-18.2 4.2-8.7 10.7-15.3 6.4-6.6 14.4-10.8 7.9-4.1 16.3-4.9zm3 7.4q-6.9 1.2-10.4 12.6-3.5 11.4-5.5 25 14.4-2.5 20.6-9.1 6.2-6.6 6.7-13.2 0.5-6.6-3-11.4-3.4-4.7-8.4-3.9z"/>
			<path id="&lt;Compound Path&gt;" fill-rule="evenodd" fill="#2A4062" d="m1307.8 364.3c-6.9 0-12.9-1.8-17.8-5.3-5.8-4.1-10.5-9.4-13.9-15.7-3.4-6.2-5.8-13.1-6.9-20.6-1.2-7.5-1.3-14.3-0.3-20.3 1-6.4 3-12.7 5.9-18.6 2.9-6 6.6-11.3 11-15.8 4.4-4.5 9.4-8.3 14.8-11.1 5.5-2.9 11.2-4.6 17.1-5.2 5.3-0.3 10 0.7 13.7 3 3.8 2.2 6.6 5.3 8.4 9.3 1.8 3.8 2.6 8 2.4 12.6-0.1 4.6-1.7 9-4.5 13.1-2.8 4.1-7 7.7-12.5 10.7-5.1 2.8-11.5 4.7-18.9 5.6v0.1q-1.5 12.5-1 22.2c0.3 6.4 1.3 11.6 2.8 15.5 1.5 3.7 3.6 6 6.4 7 2.8 1.1 6.6 0.3 11.4-2.2 9-5.3 17.6-12.2 25.6-20.5 8-8.3 15-17 20.8-25.9q2.5-3.8 4.7-7.3 2.3-3.4 4.7-7.6c1.6-2.9 3.3-6 4.9-9.2q2.5-4.7 5-9.7l0.5-1h13.1l-12.8 24.2c-3 5.8-7.4 12.8-13.1 20.7-5.6 7.9-12 15.6-19 22.9-7 7.4-14.7 13.9-22.8 19.3-8.4 5.5-16.9 8.7-25.4 9.6q-2.2 0.2-4.3 0.2zm10.2-108.9c-5.4 0.5-10.6 2.1-15.7 4.8-5.1 2.6-9.7 6.1-13.9 10.4-4.1 4.2-7.6 9.2-10.3 14.8-2.7 5.6-4.6 11.5-5.6 17.6-0.9 5.6-0.8 12 0.3 19.1 1.1 7.1 3.3 13.6 6.5 19.4 3.1 5.8 7.5 10.7 12.8 14.5 5.2 3.7 11.8 5.2 19.6 4.4 7.9-0.8 15.9-3.8 23.7-9 8-5.2 15.5-11.6 22.3-18.7 6.8-7.2 13.1-14.8 18.7-22.5 5.5-7.8 9.8-14.6 12.7-20.3l10-18.8h-4.7q-2.3 4.5-4.5 8.7-2.5 4.8-5 9.4c-1.7 2.8-3.3 5.4-4.7 7.7q-2.3 3.5-4.8 7.3c-6 9.1-13.1 18-21.3 26.5-8.1 8.5-17 15.6-26.4 21.2q-8.8 4.5-14.5 2.4c-3.8-1.4-6.6-4.5-8.5-9.1-1.7-4.3-2.7-10-3.1-16.7-0.3-6.7 0-14.3 1-22.7v-3.1l1.7-0.1c7.6-0.8 14-2.6 19.1-5.4 5-2.7 8.8-5.9 11.3-9.5 2.4-3.6 3.7-7.4 3.9-11.3 0.1-3.9-0.6-7.6-2.1-10.9-1.5-3.2-3.8-5.8-7-7.7-3.1-1.8-7-2.6-11.5-2.4zm-15.2 45.5l0.3-2.5c1.3-9.2 3.2-17.7 5.5-25.3 2.6-8.3 6.5-12.9 11.9-13.9 2.8-0.5 6.8 0 10.2 4.6 2.6 3.6 3.7 7.8 3.4 12.6-0.4 4.9-2.8 9.7-7.2 14.4-4.4 4.7-11.7 7.9-21.6 9.6zm18.3-38c-3.8 0.7-6.9 4.5-8.9 11.3-2.1 6.8-3.8 14.2-5 22.2 7.8-1.7 13.5-4.4 17-8.1 3.8-4 5.9-8.1 6.2-12.1 0.3-4-0.6-7.3-2.6-10.1-2-2.6-4-3.6-6.7-3.2z"/>
		</g>
	</g>
</svg>