<svg version="1.2" xmlns="http://www.w3.org/2000/svg" viewBox="0 0 1271 719" width="1271" height="719">
	<title>8961433_4035928-ai</title>
	<style>
		.s0 { fill: #ffffff } 
		.s1 { fill: #ebebeb } 
		.s2 { fill: #37474f } 
		.s3 { fill: #ffc727 } 
		.s4 { fill: #a6a6a6 } 
		.s5 { fill: #c7c7c7 } 
		.s6 { fill: #263238 } 
		.s7 { fill: #f7a9a0 } 
		.s8 { fill: #455a64 } 
		.s9 { fill: none;stroke: #f4a69d;stroke-linecap: round;stroke-linejoin: round;stroke-width: .4 } 
		.s10 { fill: #00a282 } 
		.s11 { fill: #000000 } 
		.s12 { fill: #ad6359 } 
		.s13 { fill: #eb9481 } 
	</style>
	<g id="Background Complete">
		<g id="&lt;Group&gt;">
			<g id="&lt;Group&gt;">
				<g id="&lt;Group&gt;">
					<path id="&lt;Path&gt;" class="s0" d="m342.3 413.1h-306.6v-206.6h306.6z"/>
					<path id="&lt;Compound Path&gt;" fill-rule="evenodd" class="s1" d="m343.3 414.1h-308.6v-208.6h308.6zm-306.6-2h304.6v-204.7h-304.6z"/>
				</g>
			</g>
			<g id="&lt;Group&gt;">
				<path id="&lt;Path&gt;" class="s2" d="m65.3 222.1c0 3.9-3.2 7.1-7.1 7.1-3.9 0-7-3.2-7-7.1 0-3.9 3.1-7.1 7-7.1 3.9 0 7.1 3.2 7.1 7.1z"/>
				<path id="&lt;Path&gt;" class="s1" d="m94.1 222.1c0 3.9-3.1 7.1-7 7.1-3.9 0-7.1-3.2-7.1-7.1 0-3.9 3.2-7.1 7.1-7.1 3.9 0 7 3.2 7 7.1z"/>
				<path id="&lt;Path&gt;" class="s3" d="m123 222.1c0 3.9-3.2 7.1-7.1 7.1-3.9 0-7.1-3.2-7.1-7.1 0-3.9 3.2-7.1 7.1-7.1 3.9 0 7.1 3.2 7.1 7.1z"/>
			</g>
			<path id="&lt;Path&gt;" class="s1" d="m342.3 238.6h-306.6v-2h306.6z"/>
		</g>
		<g id="&lt;Group&gt;">
			<g id="&lt;Group&gt;">
				<g id="&lt;Group&gt;">
					<path id="&lt;Path&gt;" class="s0" d="m1266.3 557.3h-306.6v-206.7h306.6z"/>
					<path id="&lt;Compound Path&gt;" fill-rule="evenodd" class="s1" d="m1267.3 558.3h-308.6v-208.7h308.6zm-306.6-2h304.6v-204.6h-304.6z"/>
				</g>
			</g>
			<g id="&lt;Group&gt;">
				<path id="&lt;Path&gt;" class="s2" d="m989.3 366.3c0 3.9-3.2 7-7.1 7-3.9 0-7-3.1-7-7 0-3.9 3.1-7.1 7-7.1 3.9 0 7.1 3.2 7.1 7.1z"/>
				<path id="&lt;Path&gt;" class="s1" d="m1018.1 366.3c0 3.9-3.1 7-7 7-3.9 0-7.1-3.1-7.1-7 0-3.9 3.2-7.1 7.1-7.1 3.9 0 7 3.2 7 7.1z"/>
				<path id="&lt;Path&gt;" class="s3" d="m1047 366.3c0 3.9-3.2 7-7.1 7-3.9 0-7.1-3.1-7.1-7 0-3.9 3.2-7.1 7.1-7.1 3.9 0 7.1 3.2 7.1 7.1z"/>
			</g>
			<path id="&lt;Path&gt;" class="s1" d="m1266.3 382.8h-306.6v-2h306.6z"/>
		</g>
		<g id="&lt;Group&gt;">
			<path id="&lt;Path&gt;" class="s4" d="m251.2 409.3c0 17.9-14.6 32.4-32.5 32.4q-0.9 0-1.7 0c0 0-56.8 0.1-57.7 0.1-18 0-32.5-14.5-32.5-32.5 0-17.9 14.5-32.4 32.5-32.4h57.2q1.1-0.1 2.2-0.1c17.9 0 32.5 14.5 32.5 32.5z"/>
			<g id="&lt;Group&gt;">
				<g id="IaQ7Yo 2 ">
					<g id="&lt;Group&gt;">
						<g id="&lt;Group&gt;">
							<path id="&lt;Path&gt;" class="s0" d="m159.6 410.3c0.1-1.2 0.5-2.3 1.2-3.4q0.4-0.6 0.9-1.3l1.9-2c0.8-0.5 1.5-1.1 2.3-1.6 3.1-2.1 6.6-3.3 10.3-4 8.5-1.7 17-1.6 25.6 0 3.6 0.7 7 1.9 10.1 4 0.8 0.5 1.6 1.1 2.4 1.7l1.9 1.8c0.4 0.8 1 1.5 1.3 2.3 0.4 0.7 0.6 1.6 0.9 2.4-0.3 0.1-0.5 0.1-0.6 0.1q-8.1 0-16.2 0c-0.3 0-0.5-0.1-0.6-0.4-1.1-1.8-2.6-2.9-4.8-3q-7.3-0.5-14.6 0c-2.1 0.1-3.7 1.2-4.7 3.1-0.2 0.2-0.3 0.3-0.6 0.3q-8.2 0-16.4 0-0.1 0-0.3 0z"/>
							<path id="&lt;Path&gt;" class="s0" d="m159.6 419.8q0-2.9 0-5.7 0-0.3 0-0.4c5.6 0 11 0 16.6 0 0 0.3-0.1 0.7-0.1 1.2q0 2.4 0 4.8 0 2.1-2.1 2.1-6.1 0-12.3 0-2.1 0-2.1-2z"/>
							<path id="&lt;Path&gt;" class="s0" d="m201.7 419.8c0.1-2 0.1-4.1 0.2-6.2 5.3 0 10.8 0 16.3 0q0 0.2 0 0.4 0 2.9 0 5.8c0 1.3-0.7 2-2 2q-6.2 0-12.5 0c-1.2 0-2-0.7-2-2z"/>
						</g>
					</g>
				</g>
			</g>
		</g>
		<g id="&lt;Group&gt;">
			<path id="&lt;Compound Path&gt;" fill-rule="evenodd" class="s1" d="m1254.9 366.9l-32.1 19.9-6.2-9.9c-1.7-2.9-5-4.4-8.4-4.1q-2.7 0.3-5.5 0.2c-3.4-0.1-6.7 1.7-8.3 4.7l-5.4 10.2-33.4-17.9 5.5-10.2c1.6-2.9 1.4-6.5-0.5-9.2q-1.7-2.5-3.2-5.1c-1.6-3-4.7-4.7-8-4.6l-11.6 0.4-1.2-37.8 11.6-0.4c3.4-0.1 6.4-2.1 7.8-5.1q0.6-1.3 1.3-2.6 0.7-1.3 1.5-2.6c1.7-2.8 1.7-6.4 0-9.2l-6.2-9.9 32.1-20 6.2 10c1.8 2.8 5.1 4.3 8.4 4.1q2.8-0.3 5.5-0.2c3.5 0 6.7-1.7 8.3-4.7l5.5-10.2 33.3 17.9-5.5 10.2c-1.6 3-1.3 6.6 0.7 9.4q1.5 2.3 2.9 4.7c1.6 3 4.6 4.9 8 4.8l11.7-0.4 1.2 37.8-11.6 0.3c-3.4 0.2-6.4 2.2-7.8 5.3q-0.6 1.3-1.3 2.5-0.6 1.2-1.3 2.4c-1.8 2.9-1.9 6.6-0.1 9.5zm-26-28.6c11.8-16.6 4.9-39.7-14.2-47-13-5-28-0.5-36.1 10.9-11.8 16.6-4.9 39.7 14.2 47 13 5 28.1 0.4 36.1-10.9z"/>
			<path id="&lt;Compound Path&gt;" fill-rule="evenodd" class="s1" d="m1122.2 249.4l-13.2 22.9-7-4c-2.1-1.2-4.6-1.1-6.6 0.2q-1.7 1.1-3.5 2c-2.1 1.1-3.4 3.2-3.4 5.6v8.1h-26.5v-8.1c0-2.4-1.4-4.5-3.5-5.6q-1.8-0.9-3.4-2c-2-1.3-4.6-1.4-6.6-0.2l-7.1 4-13.2-22.9 7.1-4.1c2-1.2 3.2-3.4 3.1-5.8q-0.1-1-0.1-2 0-0.9 0.1-1.9c0.1-2.4-1.1-4.6-3.1-5.8l-7.1-4.1 13.2-22.9 7.1 4c2.1 1.2 4.6 1.1 6.6-0.2q1.6-1.1 3.4-2c2.1-1.1 3.5-3.2 3.5-5.6v-8.1h26.5v8.1c0 2.4 1.3 4.5 3.4 5.6q1.8 0.9 3.5 2c2 1.3 4.5 1.4 6.6 0.2l7-4 13.2 22.9-7 4.1c-2.1 1.1-3.2 3.4-3.1 5.8q0.1 1 0.1 1.9 0 1-0.1 2c-0.1 2.4 1 4.6 3.1 5.8zm-25.3-11.8c0-12-9.7-21.7-21.7-21.7-12 0-21.7 9.7-21.7 21.7 0 12 9.7 21.7 21.7 21.7 12 0 21.7-9.7 21.7-21.7z"/>
			<path id="&lt;Compound Path&gt;" fill-rule="evenodd" class="s1" d="m161.8 179.9c2-1.2 3.2-3.5 3-5.9q0-1 0-1.9 0-1 0-2c0.2-2.4-1-4.6-3-5.8l-7.1-4.1 13.3-22.9 7 4c2.1 1.2 4.6 1.1 6.6-0.2q1.7-1.1 3.4-2c2.1-1.1 3.5-3.2 3.5-5.6v-8.1h26.5v8.1c0 2.4 1.3 4.5 3.5 5.6q1.7 0.9 3.4 2c2 1.3 4.5 1.4 6.6 0.2l7-4 13.2 22.9-7 4.1c-2.1 1.2-3.2 3.4-3.1 5.8q0.1 1 0.1 2 0 0.9-0.1 1.9c-0.1 2.4 1 4.7 3.1 5.9l7 4-13.2 22.9-7-4c-2.1-1.2-4.6-1.1-6.6 0.2q-1.7 1.1-3.4 2c-2.2 1.1-3.5 3.2-3.5 5.6v8.1h-26.5v-8.1c0-2.4-1.4-4.5-3.5-5.6q-1.8-0.9-3.4-2c-2-1.3-4.6-1.4-6.6-0.2l-7 4-13.3-22.9zm40 13.9c12 0 21.7-9.7 21.7-21.7 0-12-9.7-21.7-21.7-21.7-12 0-21.7 9.7-21.7 21.7 0 12 9.7 21.7 21.7 21.7z"/>
		</g>
		<g id="&lt;Group&gt;">
			<path id="&lt;Path&gt;" class="s1" d="m686.5 176.4c0 65-52.7 117.7-117.7 117.7-64.9 0-117.6-52.7-117.6-117.7 0-64.9 52.7-117.6 117.6-117.6 65 0 117.7 52.7 117.7 117.6z"/>
			<path id="&lt;Path&gt;" class="s0" d="m658.6 176.4c0 49.6-40.2 89.8-89.8 89.8-49.6 0-89.7-40.2-89.7-89.8 0-49.5 40.1-89.7 89.7-89.7 49.6 0 89.8 40.2 89.8 89.7z"/>
			<path id="&lt;Path&gt;" class="s1" d="m633 176.4c0 35.5-28.7 64.2-64.2 64.2-35.4 0-64.1-28.7-64.1-64.2 0-35.4 28.7-64.1 64.1-64.1 35.5 0 64.2 28.7 64.2 64.1z"/>
			<path id="&lt;Path&gt;" class="s0" d="m604.3 176.4c0 19.6-15.9 35.5-35.5 35.5-19.6 0-35.4-15.9-35.4-35.5 0-19.5 15.8-35.4 35.4-35.4 19.6 0 35.5 15.9 35.5 35.4z"/>
			<path id="&lt;Path&gt;" class="s1" d="m584.9 176.4c0 8.9-7.2 16.1-16.1 16.1-8.8 0-16-7.2-16-16.1 0-8.8 7.2-16 16-16 8.9 0 16.1 7.2 16.1 16z"/>
			<g id="&lt;Group&gt;">
				<g id="&lt;Group&gt;">
					<path id="&lt;Path&gt;" class="s5" d="m579.7 168.8l-3.2-3.3 134.7-134.7 3.3 3.2z"/>
					<g id="&lt;Group&gt;">
						<path id="&lt;Path&gt;" class="s4" d="m586.4 171.7l-17.6 4.7 4.7-17.6z"/>
					</g>
				</g>
				<path id="&lt;Path&gt;" class="s4" d="m735.4 23.7l-25.3 25.2-19.8 6.1 6-19.8 25.3-25.3-6 19.8z"/>
			</g>
		</g>
	</g>
	<g id="Desk">
		<path id="&lt;Path&gt;" class="s6" d="m-32.4 658l164.9-0.4 164.8-0.2 329.7-0.4 329.7 0.4 164.8 0.2 164.9 0.4-164.9 0.5-164.8 0.2-329.7 0.3-329.7-0.3-164.8-0.2z"/>
	</g>
	<g id="Devices">
		<g id="&lt;Group&gt;">
			<g id="&lt;Group&gt;">
				<path id="&lt;Path&gt;" class="s2" d="m384.8 669.8h-275.7l-21.3-187.2h275.6z"/>
			</g>
			<g id="&lt;Group&gt;">
				<path id="&lt;Path&gt;" class="s0" d="m369.7 657.3h-248.4l-18.5-162.1h248.5z"/>
			</g>
			<g id="&lt;Group&gt;">
				<path id="&lt;Path&gt;" class="s2" d="m540.6 657.3v12.5h-282.9v-12.5z"/>
				<path id="&lt;Path&gt;" class="s6" d="m540.6 657.3v12.5h-142.4v-12.5z"/>
			</g>
			<g id="&lt;Group&gt;">
				<path id="&lt;Path&gt;" class="s1" d="m282 495.2l-160.8 160.8-4.8-42 118.7-118.8z"/>
				<path id="&lt;Path&gt;" class="s1" d="m365.5 620.4l-36.9 36.9h-46.9l79-79z"/>
				<path id="&lt;Path&gt;" class="s1" d="m133.6 495.2l-27.6 27.6-1.7-14.3 13.3-13.3z"/>
				<path id="&lt;Path&gt;" class="s1" d="m357.7 551.2l-106.1 106.1h-16l120.4-120.4z"/>
				<path id="&lt;Path&gt;" class="s1" d="m154.4 495.2l-46.3 46.3-0.4-3.6 42.7-42.7z"/>
				<path id="&lt;Path&gt;" class="s1" d="m305 495.2l-162.1 162.1h-4l162.1-162.1z"/>
				<path id="&lt;Path&gt;" class="s1" d="m355 527.5l-129.8 129.8h-4l133.4-133.4z"/>
			</g>
		</g>
		<g id="&lt;Group&gt;">
			<g id="&lt;Group&gt;">
				<path id="&lt;Path&gt;" class="s2" d="m867.6 669.8h275.6l21.4-187.2h-275.7z"/>
			</g>
			<g id="&lt;Group&gt;">
				<path id="&lt;Path&gt;" class="s0" d="m882.6 657.3h248.5l18.5-162.1h-248.5z"/>
			</g>
			<g id="&lt;Group&gt;">
				<path id="&lt;Path&gt;" class="s2" d="m711.8 657.3v12.5h282.9v-12.5z"/>
				<path id="&lt;Path&gt;" class="s6" d="m711.8 657.3v12.5h142.4v-12.5z"/>
			</g>
			<g id="&lt;Group&gt;">
				<path id="&lt;Path&gt;" class="s1" d="m1142.4 558l-6 52.9-46.4 46.4h-46.9z"/>
				<path id="&lt;Path&gt;" class="s1" d="m1054.3 495.2l-162.1 162.1h-9.6l4.8-42.1 120-120z"/>
				<path id="&lt;Path&gt;" class="s1" d="m948.7 495.2l-53.7 53.7 2-18 35.7-35.7z"/>
				<path id="&lt;Path&gt;" class="s1" d="m1125.5 495.2l-162.1 162.1h-16l162.1-162.1z"/>
				<path id="&lt;Path&gt;" class="s1" d="m1144.7 537.8l-0.5 4.5-115 115h-4z"/>
				<path id="&lt;Path&gt;" class="s1" d="m1142.3 495.2l-162.1 162.1h-4l162.1-162.1z"/>
				<path id="&lt;Path&gt;" class="s1" d="m991.3 495.2l-101.8 101.8 0.5-4.5 97.3-97.3z"/>
			</g>
		</g>
	</g>
	<g id="Characters">
		<g id="&lt;Group&gt;">
			<g id="&lt;Group&gt;">
				<g id="&lt;Group&gt;">
					<g id="&lt;Group&gt;">
						<path id="&lt;Path&gt;" class="s7" d="m365.2 387.9c34.2 69 84.8 137.9 98.4 150.9 36.4 35 133.7 60.1 162.4 60.9 12.4 0.4 29.5-81.9 20.4-91.4-9.2-9.6-129.3-35.8-135.7-40.7-4.5-3.4-61.8-57.9-99.8-90.2-47.2-40.2-54.7-7.6-45.7 10.5z"/>
					</g>
					<path id="&lt;Path&gt;" class="s8" d="m619.8 496.8l-31 97.9c0 0-101.6-26.8-128.8-52.9-27.2-26-83.6-119.8-94.6-150.6-11-30.9-3.8-55.3 45.9-15.2 49.8 40 92.1 81 101 87.6 8.8 6.6 107.5 33.2 107.5 33.2z"/>
					<g id="&lt;Group&gt;">
						<path id="&lt;Path&gt;" class="s6" d="m588.4 500.8c0.4 2.7 2.9 4.6 5.6 4.2 2.8-0.5 4.7-3 4.2-5.7-0.4-2.8-2.9-4.6-5.7-4.2-2.7 0.4-4.6 2.9-4.1 5.7z"/>
						<path id="&lt;Path&gt;" class="s6" d="m563.5 493.6c0.4 2.7 2.9 4.6 5.6 4.2 2.8-0.4 4.7-3 4.2-5.7-0.4-2.7-2.9-4.6-5.7-4.2-2.7 0.4-4.6 3-4.1 5.7z"/>
					</g>
					<path id="&lt;Path&gt;" class="s6" d="m513.8 570.5c-22.2-8.7-43.4-18.7-53.8-28.7-27.2-26-83.6-119.8-94.6-150.6-7-19.8-6.6-36.9 7.6-36.2z"/>
				</g>
				<g id="&lt;Group&gt;">
					<g id="&lt;Group&gt;">
						<path id="&lt;Path&gt;" class="s8" d="m203.1 657.2l256.6 0.1c1.1-9.4-51.7-270.8-76.9-303.6-5.4-7-23.1-9-38.2-7.1-4.1 0.5-8.1 1.3-11.6 2.4q-0.1 0-0.4 0.1c-3.5 1.1-6.4 2.5-8.5 4.2-41.9 33.4-123 301.6-121 303.9z"/>
					</g>
				</g>
				<g id="&lt;Group&gt;">
					<path id="&lt;Path&gt;" class="s6" d="m361.9 412.8l11-21.3 14 15.4-3.4 15.3-13.9 1.8z"/>
					<path id="&lt;Path&gt;" class="s6" d="m369.6 424l-6.7 156.2 29.3 51.7 15.2-58.1-23.9-151.6z"/>
				</g>
				<g id="&lt;Group&gt;">
					<g id="&lt;Group&gt;">
						<g id="&lt;Group&gt;">
							<path id="&lt;Path&gt;" class="s7" d="m369.2 388.7c-4.1-0.2-30.9-21.1-39.1-37.5-0.6-1.1 1.5-12.6 3.4-26.7 1.1-8.6 2.1-18.2 2.4-27 0-1.8 6.1 1.7 6.1 1.7l11.3 3.1 37.4 10.5c0 0-6.1 18.2-6.5 33.6q0 1.9 0.3 3.6c0 0.2 0 0.4 0 0.6 0.9 6.9-8.7 38.4-15.3 38.1z"/>
						</g>
						<path id="&lt;Path&gt;" class="s6" d="m384.5 350c0 0.2 0 0.4 0 0.6q-2.6 0.3-5.7 0.1c-37.1-2-40.2-49.5-40.2-49.5l14.7 1.1 37.4 10.5c0 0-6.1 18.2-6.5 33.6q0 1.9 0.3 3.6z"/>
					</g>
					<g id="&lt;Group&gt;">
						<path id="&lt;Path&gt;" class="s9" d="m356.4 335.7q-0.1 0 0 0"/>
						<g id="&lt;Group&gt;">
							<path id="&lt;Path&gt;" class="s7" d="m327.2 232.8c-5.6 19.7 5.8 76.1 20 88.5 20.5 17.9 53.7 19 68.7-5.6 14.7-23.8-1.5-97.1-17.3-108.3-23.3-16.4-63.1-3.7-71.4 25.4z"/>
						</g>
						<g id="&lt;Group&gt;">
							<g id="&lt;Group&gt;">
								<path id="&lt;Path&gt;" class="s6" d="m383.1 265.6c-0.1-0.1-0.3 0.3-0.3 0.4 0.9 3.8 1.3 8.3-1.9 10.2-0.1 0.1-0.1 0.3 0.1 0.2 4-1.4 3.5-7.3 2.1-10.8z"/>
								<path id="&lt;Path&gt;" class="s6" d="m378.9 262.3c-6.2 0.8-4.3 13.1 1.5 12.4 5.6-0.6 3.7-13-1.5-12.4z"/>
							</g>
							<g id="&lt;Group&gt;">
								<path id="&lt;Path&gt;" class="s6" d="m405.3 262.8c0-0.2 0.4 0.1 0.4 0.2 0.5 3.9 1.7 8.2 5.3 8.9 0.1 0.1 0.2 0.3 0 0.3-4.3 0-5.8-5.7-5.7-9.4z"/>
								<path id="&lt;Path&gt;" class="s6" d="m408.1 258.2c6.1-1.4 8.5 10.9 2.9 12.2-5.6 1.3-8-11-2.9-12.2z"/>
							</g>
							<path id="&lt;Path&gt;" class="s6" d="m373.1 257.4c1.6-0.7 3-1.6 4.5-2.4 1.8-1 3.2-1.6 4.2-3.4 0.5-1 0-2.5-0.9-3.1-2.2-1.3-4.6-0.7-6.7 0.4-2.3 1.1-3.8 2.6-4.8 5-1 2.2 1.6 4.4 3.7 3.5z"/>
							<path id="&lt;Path&gt;" class="s6" d="m411.9 251.2c-1.7 0-3.4-0.3-5.1-0.5-1.9-0.2-3.5-0.1-5.1-1.5-0.9-0.7-1-2.3-0.4-3.2 1.5-2 3.9-2.4 6.3-2.2 2.6 0.2 4.5 1 6.4 2.7 1.8 1.7 0.2 4.8-2.1 4.7z"/>
							<path id="&lt;Path&gt;" class="s6" d="m385.1 301.7c1.1 0.8 2.2 1.9 3.6 1.8 1.3-0.1 2.8-1 4-1.7 0.1 0 0.2 0.1 0.1 0.2-0.7 1.6-2.7 2.9-4.5 2.9-1.8-0.1-2.9-1.4-3.5-3-0.1-0.2 0.2-0.3 0.3-0.2z"/>
							<g id="&lt;Group&gt;">
								<path id="&lt;Path&gt;" class="s0" d="m399.7 292.3c0 0-2.1 3.9-5.4 5.8-1.3 0.7-2.7 1.1-4.2 0.9-3.2-0.3-3.7-3.1-3.5-5.6 0.1-2 0.7-3.9 0.7-3.9 0 0 5.2 3.5 12.4 2.8z"/>
							</g>
							<g id="&lt;Group&gt;">
								<g id="&lt;Group&gt;">
									<path id="&lt;Path&gt;" class="s6" d="m387.3 289.6c2.7 3 6.1 4.3 9.6 4.5 1.6 0 3.2-0.2 4.8-0.6q0.4-0.1 0.9-0.2c0.2-0.1 0.5-0.2 0.8-0.3 0.4-0.1 0.6-0.5 0.6-1q0-0.2-0.1-0.4 0 0 0 0l-0.1-0.3c-0.3-3-1.3-7.4-1.3-7.4 1.1 0.3 7 1.9 6.7 0.4-2.8-12.6-5.9-26.7-11.3-38.7-0.1-0.4-0.8-0.2-0.7 0.3 2.2 12.2 6.5 24 8.9 36.3-1.8-0.4-4.9-1.2-6.4-1-0.4 0.2 2 8.6 2.1 9.9q0 0 0 0.2c-4.9 1.4-8.8 0.5-14.2-2.1-0.3-0.2-0.5 0.1-0.3 0.4z"/>
								</g>
							</g>
						</g>
						<g id="&lt;Group&gt;">
							<path id="&lt;Path&gt;" class="s6" d="m333.8 276.8c13.5-2 12.5-26.9 12.5-26.9 0 0 22.6-7.2 23.4-25.1 0 0 24.1 10.9 40.4 2.1 16.4-8.8 9.9-27.8 7.4-31.7-2.6-3.9-11 5.3-11 5.3 0 0-2.7-10.9-5.8-11.6-3.1-0.7-5.4 6.4-5.4 6.4 0 0-23.3-4.2-43.4-0.7-20.1 3.6-27.1 25.4-27.1 25.4 0 0-10.5 3.8-12.9 11.9-2.4 8.1 13.3 46.2 21.9 44.9z"/>
							<path id="&lt;Path&gt;" class="s6" d="m340.9 250.9c18.3-0.3 28.4-13.9 28.5-31.4 0-0.2 0.3-0.2 0.3 0 1.8 16-10.5 36-28.8 32.2-0.5-0.1-0.5-0.8 0-0.8z"/>
							<path id="&lt;Path&gt;" class="s6" d="m325.2 219.6c0.2-0.1 0.4 0.2 0.2 0.3-4.7 3.1-10.2 5.6-13 10.7-3.5 6.1-1.5 13.2 1 19.3 3.9 9.3 10.7 21.2 20.2 25.6 0.6 0.3 0.2 1.1-0.4 0.9-11.3-4.6-19.7-20.1-22.8-31.3-3.5-12.6 3.4-21.1 14.8-25.5z"/>
							<path id="&lt;Path&gt;" class="s6" d="m390.1 227c8.6 3.6 20.3 2.1 27.2-4.5 8.5-7.9 4.9-18.5-0.5-26.9-0.3-0.4 0.3-1 0.7-0.6 6.7 7.1 8.9 19.1 2.2 27.1-6.9 8.2-20.8 10-30.2 6.1-0.8-0.4-0.2-1.6 0.6-1.2z"/>
						</g>
						<g id="&lt;Group&gt;">
							<path id="&lt;Compound Path&gt;" fill-rule="evenodd" class="s8" d="m379.9 288.1c-7.4 0.2-14.4-4.5-16.6-11.9-2.6-8.8 2.5-18 11.2-20.6 8.8-2.6 18.1 2.4 20.7 11.2 2.6 8.7-2.5 18-11.3 20.6q-2 0.6-4 0.7zm-1.2-31q-1.8 0.1-3.5 0.6c-7.6 2.2-12 10.2-9.7 17.8 2.2 7.6 10.2 12 17.8 9.8 7.6-2.3 12-10.3 9.7-17.9-1.9-6.4-7.9-10.5-14.3-10.3z"/>
							<path id="&lt;Compound Path&gt;" fill-rule="evenodd" class="s8" d="m417.5 282c-6.4 0.2-12.4-6.1-13.7-14.6-0.7-4.3-0.1-8.6 1.7-12 1.8-3.5 4.6-5.8 7.9-6.3 3.4-0.5 6.7 0.7 9.5 3.6 2.8 2.7 4.6 6.6 5.3 10.9 1.4 9-2.9 17.2-9.6 18.3q-0.6 0.1-1.1 0.1zm-2.9-30.8q-0.4 0-0.8 0.1c-2.6 0.4-4.9 2.2-6.4 5.1-1.5 3-2 6.8-1.4 10.7 1.2 7.8 6.7 13.5 12.2 12.6 5.5-0.9 9-7.9 7.8-15.8-0.6-3.8-2.2-7.3-4.6-9.7-2.1-2-4.4-3.1-6.8-3z"/>
							<path id="&lt;Path&gt;" class="s8" d="m394.9 268.8l-1.7-1.5c2.2-2.5 7.5-6.2 12.2-2.5l-1.4 1.7c-4.2-3.3-8.9 2-9.1 2.3z"/>
							<path id="&lt;Path&gt;" class="s8" d="m322.5 284.4l-2.1-0.7c0.3-1 3.4-9.7 8.1-11.2 4.5-1.5 34.3-3.3 35.6-3.4l0.1 2.2c-8.6 0.6-31.5 2.2-35 3.3-3.1 1-5.9 7.4-6.7 9.8z"/>
						</g>
						<g id="&lt;Group&gt;">
							<path id="&lt;Path&gt;" class="s7" d="m342.4 279.3c0 0-13.5-17.8-21.6-12.9-8.2 4.9 2.5 31 12.4 34.3 9.9 3.2 13.1-5.9 13.1-5.9z"/>
							<path id="&lt;Path&gt;" class="s6" d="m324 273.8c-0.1 0-0.2 0.2 0 0.3 6.9 2.5 10.8 8.7 13.5 15.1-2.1-2.4-4.9-3.7-8.2-1.2-0.2 0.2 0 0.5 0.2 0.4 2.8-0.7 4.8-0.3 6.8 1.9 1.4 1.5 2.4 3.5 3.4 5.3 0.4 0.6 1.4 0.2 1.2-0.5q0-0.1-0.1-0.1c-0.2-8.8-7.4-20.7-16.8-21.2z"/>
						</g>
					</g>
					<g id="&lt;Group&gt;">
						<path id="&lt;Path&gt;" class="s8" d="m384.7 351.4l-13.4 32.7-40.5-41.4-11.5 13.3c0 0 39.5 65.7 39.8 62.7l13.5-28.1 19.4 19.6-1.5-49.1z"/>
						<path id="&lt;Path&gt;" class="s6" d="m392.6 385.9c-0.5-8.1-0.8-16.3-1.7-24.4 0-0.3-0.4-0.4-0.5 0-1.7 7.8 0.5 38.8 0.4 46.2q0 0-0.1-0.1c-0.8-0.8-17.9-17.2-18.1-17-2.9 4.5-12.8 25-13.5 26.8-6.3-10.4-30.2-48.4-37.7-58.3-0.2-0.2-0.6 0-0.4 0.3 5.5 11.1 37.2 62.2 37.7 62 0.3 0.3 12.6-24.9 14.1-29.7 2.9 3.6 20.2 22.1 20.3 20.9 0.4-8.1 0.1-18.6-0.5-26.7z"/>
					</g>
				</g>
				<g id="&lt;Group&gt;">
					<g id="&lt;Group&gt;">
						<g id="&lt;Group&gt;">
							<path id="&lt;Path&gt;" class="s10" d="m468.5 693.3l-199.8 19.8-0.6-154.9 199.8-19.8z"/>
							<path id="&lt;Path&gt;" class="s10" d="m333.3 534.6l-65.4 6.5 0.2 17.1 70-6.9z"/>
						</g>
						<g id="&lt;Group&gt;" style="opacity: .1">
							<path id="&lt;Path&gt;" class="s11" d="m468.5 691.3l-199.8 19.8-0.6-154.9 199.8-19.8z"/>
							<path id="&lt;Path&gt;" class="s11" d="m331.3 533.6l-65.4 6.5 0.2 17.1 70-6.9z"/>
						</g>
					</g>
					<path id="&lt;Path&gt;" class="s1" d="m468.4 693.3l-192.7 19.1-27.6-155.3 205.4-17.3z"/>
					<path id="&lt;Path&gt;" class="s0" d="m468.4 693.3l-197.6 19.6-29.6-149.3 207.8-20.6z"/>
					<path id="&lt;Path&gt;" class="s10" d="m468 693.4l-200.2 19.8-29.2-146.1 200.2-19.8z"/>
				</g>
				<g id="&lt;Group&gt;">
					<path id="&lt;Path&gt;" class="s7" d="m297.2 376.6c-68.3 62-117.6 168.8-116 197.6 2 38 70.8 103 115.7 121.8 11.3 4.8 55.2-88.1 38.6-92.9-17.5-5.1-58-41.8-60-43.5-4.2-3.6 28.5-84.8 42.1-134.2 15.4-55.7 8.4-74.9-20.4-48.8z"/>
					<g id="&lt;Group&gt;">
						<path id="&lt;Path&gt;" class="s7" d="m271.5 681.8c43.5 31.4 102.5 38.2 112.7 37.2 8.7-0.9 13.2-1.4 13.2-1.4 15.6-1.2 21.2-8.6 21.2-8.6 0 0 18.5 3.8 22.7-6.9 4.7-12.1-22.1-15.2-35.9-25.9-31.4-24.7-69.3-68.5-77.6-76.5z"/>
						<path id="&lt;Path&gt;" class="s6" d="m354.3 673.5c9.4 7.1 18.5 14.3 28.8 20 11.3 6.3 23.3 10.5 35.3 15.1 0.4 0.1 0.2 0.6-0.2 0.6-23.1-4.8-47.8-18.3-64.5-34.9-0.4-0.4 0.2-1.1 0.6-0.8z"/>
						<path id="&lt;Path&gt;" class="s6" d="m336.7 690.4c9.5 6.3 26.4 17.4 60.8 26.8 0.1 0 0.1 0.2 0 0.2-23.2-3.1-43.3-11.6-61.4-26.1-0.6-0.4 0-1.4 0.6-0.9z"/>
						<path id="&lt;Path&gt;" class="s7" d="m369.4 644.1c-2.8-4.8-0.3-6.4 8.9-2.7 9.4 3.7 42.9 25.9 49.6 13.5 6.9-12.4-41-43.1-56.9-47.9-15.8-5-43.2-7.3-43.2-7.3 8.1 7.9 25.9 28.8 41.6 44.4z"/>
					</g>
					<g id="&lt;Group&gt;">
						<path id="&lt;Path&gt;" class="s8" d="m273.1 688.8l54.4-91.3c0 0-50.9-35.7-51.1-39.3-0.3-3.6 35.7-102 46.6-150.4 10.9-48.5 5.5-71.6-42.2-17.6-47.6 54-108.8 144.9-105.5 183.8 3.2 38.9 97.8 114.8 97.8 114.8z"/>
						<path id="&lt;Path&gt;" class="s6" d="m314 454.1c-2 3.4-4.1 6.8-5.9 10.4q-0.9 1.7-1.8 3.5 0.7-2.1 1.4-4.2c2.8-8.8 5.5-17.6 7.8-26.5 0.1-0.2-0.2-0.4-0.3-0.2-6.3 15.2-11.5 30.7-16.7 46.3-5.2 15.6-10.1 31.4-14.7 47.2-2.6 8.8-5.3 17.7-7.3 26.7-0.1 0.2 0.2 0.2 0.3 0.1 3-7.7 5.5-15.6 8.1-23.5 2.6-7.8 5.3-15.6 7.8-23.5q6.1-18.8 12.1-37.6c1.8-2.2 3-4.9 4.3-7.5 1.9-3.6 3.4-7.4 5-11.1 0.1-0.1-0.1-0.2-0.1-0.1z"/>
						<g id="&lt;Group&gt;">
							<path id="&lt;Path&gt;" class="s6" d="m263.4 665.9c-0.8 2.6 0.6 5.4 3.2 6.3 2.7 0.9 5.5-0.6 6.4-3.2 0.8-2.6-0.6-5.5-3.3-6.3-2.6-0.9-5.4 0.6-6.3 3.2z"/>
							<path id="&lt;Path&gt;" class="s6" d="m244.4 648.3c-0.8 2.6 0.6 5.4 3.2 6.3 2.7 0.9 5.5-0.6 6.3-3.2 0.9-2.6-0.5-5.5-3.2-6.3-2.6-0.9-5.4 0.6-6.3 3.2z"/>
						</g>
						<path id="&lt;Path&gt;" class="s6" d="m210.2 630.3c6.3 5.3 12.2 11.1 18.1 16.9 2.9 2.9 5.8 5.8 8.7 8.8 2.9 3 5.7 6 8.5 9-6.7-4.9-12.7-10.6-18.6-16.4-5.8-5.8-11.5-11.9-16.7-18.3z"/>
					</g>
				</g>
			</g>
		</g>
		<g id="&lt;Group&gt;">
			<g id="&lt;Group&gt;">
				<g id="&lt;Group&gt;">
					<path id="&lt;Path&gt;" class="s6" d="m906.9 218c4.3-13.8 23-44.1 53.2-34.9 43.1 13 41.5 98.3 60.9 126.8 35.1 51.6 31.9 99.1-1.3 103.6-37.2 5-69-37.4-59.6-121.9 5.8-52.8-6.9-77.6-17.6-77-10.7 0.6-17.7 13.3-17.7 13.3z"/>
					<path id="&lt;Path&gt;" class="s6" d="m908.9 212.8c2.7-6.3 6.3-12.3 10.5-17.8 4.3-5.4 9.5-10.3 15.9-13.7 6.2-3.4 13.7-4.9 20.8-4 7.1 0.9 14 3.5 19.9 7.6 5.9 4.2 10.6 9.8 14.1 15.9 3.5 6.1 6.1 12.6 8.1 19.3 3.9 13.4 5.6 27.1 6.4 40.8-2.3-13.5-5-27-9.3-39.9-2.3-6.4-4.8-12.6-8.3-18.3-3.5-5.7-7.8-10.9-13.2-14.6-5.3-3.8-11.7-6.2-18.2-7.1-6.4-1.1-13 0.1-19 3-5.9 2.9-11.2 7.2-15.7 12.3-2.3 2.4-4.4 5.1-6.4 7.9q-3 4.2-5.6 8.6z"/>
					<path id="&lt;Path&gt;" class="s6" d="m962.6 262.5c-0.4 8.4-1.7 16.8-2.6 25.1-1.1 8.4-2.1 16.7-2.9 25.1-0.8 8.3-1.3 16.7-1.3 25 0 8.3 0.6 16.7 2.2 24.7 1.6 8.1 4.2 16 8.6 22.9 4.5 6.7 10.4 12.8 16.9 17.6 6.7 4.9 14.4 8.3 22.5 9.7 4.1 0.7 8.3 0.9 12.4 0.5q3.1-0.3 6.2-1c2-0.5 4.1-1.1 5.9-2.1-3.6 2.3-7.8 3.4-12 4.1-4.2 0.7-8.5 0.8-12.7 0.4-4.3-0.5-8.5-1.6-12.6-3.1-4-1.5-7.8-3.6-11.4-6-3.6-2.4-6.9-5.2-9.9-8.2l-2.3-2.3-2.1-2.5c-1.4-1.6-2.8-3.3-3.9-5.1-4.9-7.3-7.7-15.7-9.4-24.1-3.2-16.9-2.2-34.1-0.1-50.9 1-8.4 2.5-16.7 4-25 1.6-8.2 3.3-16.5 4.5-24.8z"/>
					<path id="&lt;Path&gt;" class="s8" d="m904.4 218c-0.2-4 2.7-9.1 5.3-9.8 2.5-0.7 21.5 7.4 23.1 12.3 1.6 4.9-6.8 9.2-6.8 9.2z"/>
				</g>
				<g id="&lt;Group&gt;">
					<path id="&lt;Path&gt;" class="s12" d="m919 392.6c-11.3 24.5-95.1 139.8-136.7 142.9-43.6 3.3-148.1-67.9-158.1-73.8-27.5-16.2 49.1-91.2 62.3-77.9 22.2 22.3 75.1 64.2 88 61.4 27.2-6 83.8-53.6 124-78.3 24.2-14.9 33-1.4 20.5 25.7z"/>
					<g id="&lt;Group&gt;">
						<g id="&lt;Group&gt;">
							<path id="&lt;Path&gt;" class="s12" d="m630.8 465.5c-4.8-3.1-42.9-24.3-57.2-44.7-7.5-10.8-25-42.9-19-48.3 5.5-5 12.4 2.6 12.4 2.6 0 0-7.6-14.4 0.1-21.2 7.7-6.8 18.8 6.7 18.8 6.7 0 0-6.7-15.4 1.5-21.6 8.1-6.3 17 9.1 17 9.1 0 0-6.8-13.7 2.1-16 10.7-2.8 20.3 24 30.7 34.3 2.3 2.3 51 44 51 44z"/>
							<g id="&lt;Group&gt;">
								<path id="&lt;Path&gt;" class="s6" d="m605 348.1c7.1 19.7 13.6 27.1 29.9 39.7 0.3 0.3 0 0.8-0.3 0.6-17.1-11-26.6-19-30.6-40-0.2-1 0.6-1.2 1-0.3z"/>
								<path id="&lt;Path&gt;" class="s6" d="m586.5 360.5c9.2 19.8 16.2 27.8 32.3 42.3 0.2 0.2-0.1 0.6-0.4 0.5-16.9-12.9-26.2-21.2-32.8-42.2-0.3-0.9 0.5-1.5 0.9-0.6z"/>
								<path id="&lt;Path&gt;" class="s6" d="m567.8 375.8c10.3 18.5 17.6 27.7 35 39.8 0.4 0.3 0.1 0.9-0.4 0.6-18.9-10.5-28.1-21.9-35.1-40-0.5-1.2-0.1-1.6 0.5-0.4z"/>
							</g>
						</g>
						<g id="&lt;Group&gt;">
							<path id="&lt;Path&gt;" class="s12" d="m704.7 404.4c0 0-10.8-23.9-17.9-33.4-7-9.4-46.3-35-52.3-26.8-7.8 10.6 12 29.8 22.9 37.9 0 0-17.9 24.4-6.7 41.3 11.2 16.8 54-19 54-19z"/>
							<path id="&lt;Path&gt;" class="s6" d="m633.3 347.8c-0.1 14.7 14.9 24.5 24.9 33.2 0.8 0.6 0.5 1.5-0.1 2-6.8 10.7-13.4 27.8-8.2 40.2 0.2 0.4-0.3 0.6-0.5 0.3-7.4-12.5-2.4-29.9 5.9-41.2-10.4-8.7-25.1-19.2-22.1-34.5 0-0.1 0.1-0.1 0.1 0z"/>
						</g>
					</g>
					<g id="&lt;Group&gt;">
						<path id="&lt;Path&gt;" class="s10" d="m917.9 399.6c-13.1 26-89.2 137-130.3 138.7-41.1 1.8-127.3-33.3-127.3-33.3l63.8-97.2c0 0 44.2 31.9 51.1 32.2 7 0.2 99.7-61.1 121.4-74.5 21.7-13.5 42.5-8.3 21.3 34.1z"/>
						<g id="&lt;Group&gt;">
							<path id="&lt;Path&gt;" class="s0" d="m718.6 505.7c-0.4-3-0.2-5.9 0.2-8.8 0.4-3 1-5.8 2.2-8.6 0.4 3 0.2 5.9-0.2 8.8-0.5 2.9-1 5.8-2.2 8.6z"/>
							<path id="&lt;Path&gt;" class="s0" d="m845.6 486.3c-0.4-3-0.1-6 0.2-8.9 0.5-2.9 1-5.8 2.2-8.6 0.4 3 0.2 6-0.2 8.9-0.4 2.9-1 5.8-2.2 8.6z"/>
							<path id="&lt;Path&gt;" class="s0" d="m852.6 412.3c-3 0.4-5.9 0.2-8.8-0.2-2.9-0.4-5.8-1-8.6-2.2 3-0.4 5.9-0.1 8.8 0.2 2.9 0.5 5.8 1 8.6 2.2z"/>
							<path id="&lt;Path&gt;" class="s0" d="m750.3 445.9c-3.1 0.3-6 0.1-8.9-0.3-2.9-0.4-5.8-1-8.6-2.2 3-0.3 6-0.1 8.9 0.3 2.9 0.4 5.8 1 8.6 2.2z"/>
							<path id="&lt;Path&gt;" class="s0" d="m765.2 536.2q-0.2 0.2-0.4 0.4-0.2 0-0.5-0.1 0.4-0.2 0.9-0.3z"/>
							<path id="&lt;Path&gt;" class="s0" d="m693 470.8c1.9-2.4 4.1-4.3 6.5-6.1 2.3-1.7 4.8-3.4 7.6-4.5-1.9 2.4-4.1 4.3-6.4 6.1-2.4 1.8-4.9 3.4-7.7 4.5z"/>
							<path id="&lt;Path&gt;" class="s0" d="m799.5 448.8c1.8-2.4 4.1-4.4 6.4-6.2 2.4-1.7 4.8-3.3 7.6-4.5-1.8 2.4-4.1 4.3-6.4 6.1-2.4 1.8-4.8 3.4-7.6 4.6z"/>
							<path id="&lt;Path&gt;" class="s0" d="m764.1 479.2c2.4 1.9 4.4 4.1 6.2 6.5 1.7 2.3 3.3 4.8 4.5 7.6-2.4-1.9-4.3-4.1-6.1-6.4-1.8-2.4-3.4-4.8-4.6-7.7z"/>
							<path id="&lt;Path&gt;" class="s0" d="m865.2 433.7c2.4 1.8 4.3 4.1 6.1 6.4 1.8 2.4 3.4 4.8 4.5 7.6-2.4-1.8-4.3-4.1-6.1-6.4-1.7-2.4-3.3-4.8-4.5-7.6z"/>
						</g>
						<path id="&lt;Path&gt;" class="s6" d="m737.9 423.6c-8 14.6-15.7 29.2-24.4 43.4-8.6 14-17.4 28-27.4 41-0.2 0.3-0.6 0-0.4-0.3 7.6-14.5 16.4-28.5 25-42.5 8.6-14.1 17.7-27.9 26.3-42 0.4-0.5 1.2-0.1 0.9 0.4z"/>
						<path id="&lt;Path&gt;" class="s6" d="m917.9 399.6c-13.1 26-89.2 137-130.3 138.7-10 0.5-22.7-1.3-36.1-4.2 32-34.2 121.4-130.6 162.8-175.2 12.5-0.7 18.6 10.6 3.6 40.7z"/>
					</g>
				</g>
				<g id="&lt;Group&gt;">
					<path id="&lt;Path&gt;" class="s10" d="m842 657.2h241.3c0 0-93.8-237.5-143.8-285.3-13.6-13-47.1-12.1-63.6 9.9-13.4 17.9-50.9 89.4-52.6 115.2-1.6 25.8 18.5 51.1 18.5 51.1z"/>
					<g id="&lt;Group&gt;">
						<path id="&lt;Path&gt;" class="s0" d="m872.8 568.2c-0.3-3-0.1-5.9 0.3-8.8 0.4-3 1-5.8 2.2-8.6 0.4 3 0.1 5.9-0.3 8.8-0.4 2.9-1 5.8-2.2 8.6z"/>
						<path id="&lt;Path&gt;" class="s0" d="m1038.7 612.9c-0.4-3-0.2-5.9 0.2-8.8 0.4-2.9 1-5.8 2.2-8.6 0.4 3 0.2 5.9-0.2 8.9-0.5 2.9-1 5.7-2.2 8.5z"/>
						<path id="&lt;Path&gt;" class="s0" d="m934.6 652c-0.4-3-0.2-5.9 0.2-8.8 0.4-3 1-5.8 2.2-8.6 0.4 3 0.1 5.9-0.2 8.8-0.5 2.9-1.1 5.8-2.2 8.6z"/>
						<path id="&lt;Path&gt;" class="s0" d="m910.6 472.7c-0.4-3-0.2-6 0.2-8.9 0.4-2.9 1-5.8 2.2-8.6 0.4 3 0.2 6-0.2 8.9-0.5 2.9-1 5.8-2.2 8.6z"/>
						<path id="&lt;Path&gt;" class="s0" d="m974.7 544.9c-0.4-3-0.1-6 0.2-8.9 0.5-2.9 1.1-5.8 2.2-8.6 0.4 3 0.2 6-0.2 8.9-0.4 2.9-1 5.8-2.2 8.6z"/>
						<path id="&lt;Path&gt;" class="s0" d="m845.6 486.3c-0.4-3-0.1-6 0.2-8.9 0.5-2.9 1-5.8 2.2-8.6 0.4 3 0.2 6-0.2 8.9-0.4 2.9-1 5.8-2.2 8.6z"/>
						<path id="&lt;Path&gt;" class="s0" d="m930.5 557.3c-3 0.4-6 0.1-8.9-0.2-2.9-0.5-5.8-1.1-8.6-2.2 3-0.4 6-0.2 8.9 0.2 2.9 0.4 5.8 1 8.6 2.2z"/>
						<path id="&lt;Path&gt;" class="s0" d="m1003.3 488.3c-3 0.3-6 0.1-8.9-0.3-2.9-0.4-5.8-1-8.6-2.2 3-0.4 6-0.1 8.9 0.3 2.9 0.4 5.8 1 8.6 2.2z"/>
						<path id="&lt;Path&gt;" class="s0" d="m873.4 638.5c-3 0.3-6 0.1-8.9-0.3-2.9-0.4-5.8-1-8.6-2.2 3-0.4 6-0.1 8.9 0.2 2.9 0.5 5.8 1.1 8.6 2.3z"/>
						<path id="&lt;Path&gt;" class="s0" d="m1008.8 578.7c-3 0.3-6 0.1-8.9-0.3-2.9-0.4-5.8-1-8.6-2.2 3-0.3 6-0.1 8.9 0.3 2.9 0.4 5.8 1 8.6 2.2z"/>
						<path id="&lt;Path&gt;" class="s0" d="m894.5 611.5c1.9-2.4 4.2-4.4 6.5-6.1 2.3-1.8 4.8-3.4 7.6-4.6-1.8 2.4-4.1 4.3-6.4 6.1-2.4 1.8-4.8 3.4-7.7 4.6z"/>
						<path id="&lt;Path&gt;" class="s0" d="m985.8 628.9c1.9-2.4 4.1-4.3 6.4-6.1 2.4-1.8 4.9-3.4 7.7-4.5-1.9 2.4-4.1 4.3-6.5 6.1-2.3 1.7-4.8 3.4-7.6 4.5z"/>
						<path id="&lt;Path&gt;" class="s0" d="m1010 543.5c1.8-2.4 4.1-4.3 6.4-6.1 2.4-1.7 4.8-3.4 7.6-4.5-1.8 2.4-4.1 4.3-6.4 6.1-2.4 1.8-4.8 3.4-7.6 4.5z"/>
						<path id="&lt;Path&gt;" class="s0" d="m865.9 512.8c1.8-2.4 4.1-4.3 6.4-6.1 2.4-1.7 4.8-3.4 7.6-4.5-1.8 2.4-4.1 4.3-6.4 6.1-2.4 1.8-4.8 3.4-7.6 4.5z"/>
						<path id="&lt;Path&gt;" class="s0" d="m959.2 454.1c1.9-2.4 4.1-4.3 6.4-6.1 2.4-1.8 4.8-3.4 7.7-4.6-1.9 2.4-4.1 4.4-6.5 6.2-2.3 1.7-4.8 3.3-7.6 4.5z"/>
						<path id="&lt;Path&gt;" class="s0" d="m848.2 583.1c-1.8 2.4-4 4.3-6.3 6.1v-2.5c1.9-1.4 4-2.6 6.3-3.6z"/>
						<path id="&lt;Path&gt;" class="s0" d="m911.6 416.4c1.9-2.4 4.2-4.3 6.5-6.1 2.3-1.7 4.8-3.4 7.6-4.5-1.8 2.4-4.1 4.3-6.4 6.1-2.4 1.8-4.8 3.4-7.7 4.5z"/>
						<path id="&lt;Path&gt;" class="s0" d="m832.1 525c2.4 1.9 4.3 4.1 6.1 6.5 1.7 2.3 3.4 4.8 4.5 7.6-2.4-1.9-4.3-4.1-6.1-6.4-1.8-2.4-3.4-4.8-4.5-7.7z"/>
						<path id="&lt;Path&gt;" class="s0" d="m865.2 433.7c2.4 1.8 4.3 4.1 6.1 6.4 1.8 2.4 3.4 4.8 4.5 7.6-2.4-1.8-4.3-4.1-6.1-6.4-1.7-2.4-3.3-4.8-4.5-7.6z"/>
						<path id="&lt;Path&gt;" class="s0" d="m948.9 581.4c2.4 1.9 4.3 4.1 6.1 6.4 1.8 2.4 3.4 4.9 4.5 7.7-2.4-1.9-4.3-4.1-6.1-6.5-1.7-2.3-3.3-4.8-4.5-7.6z"/>
						<path id="&lt;Path&gt;" class="s0" d="m1035.8 639.4c2.4 1.9 4.3 4.1 6.1 6.5 1.8 2.3 3.4 4.8 4.5 7.6-2.4-1.9-4.3-4.1-6.1-6.4-1.7-2.4-3.4-4.8-4.5-7.7z"/>
						<path id="&lt;Path&gt;" class="s0" d="m947.3 390.5c2.4 1.9 4.3 4.1 6.1 6.4 1.8 2.4 3.4 4.9 4.5 7.7-2.4-1.9-4.3-4.1-6.1-6.4-1.7-2.4-3.4-4.9-4.5-7.7z"/>
						<path id="&lt;Path&gt;" class="s0" d="m931.7 503.1c2.4 1.9 4.3 4.1 6.1 6.5 1.8 2.3 3.4 4.8 4.6 7.6-2.4-1.9-4.4-4.1-6.2-6.4-1.7-2.4-3.3-4.9-4.5-7.7z"/>
					</g>
				</g>
				<g id="&lt;Group&gt;">
					<g id="&lt;Group&gt;">
						<path id="&lt;Path&gt;" class="s12" d="m923.5 374.2c-1.3 3.5-22 25.1-38.7 22.1-5.4-0.9-1.4-30.8-1.4-30.8l-0.2-2.3-2.9-31.9 39.4-18.6 5.6-2.4c0 0 0.2 8.8 0.4 19.7q0 0.8 0 1.6 0.1 0.9 0.1 1.7 0.1 2.5 0.1 5c0 1.3 0 2.5 0 3.8-0.1 1.3-0.1 2.6-0.1 4-0.3 13.1-1.8 26.6-2.3 28.1z"/>
						<path id="&lt;Path&gt;" class="s6" d="m925.7 330c-12.1 23.5-33 31-42.5 33.2l-2.9-31.9 39.4-18.6 5.6-2.4c0 0 0.2 8.8 0.4 19.7z"/>
					</g>
					<g id="&lt;Group&gt;">
						<path id="&lt;Path&gt;" class="s12" d="m839.8 284.4c-4.5 56 28.5 65 40.6 65.9 10.9 0.9 48.4 2.4 58.6-52.8 10.2-55.2-14.4-74.9-39.4-78.2-24.9-3.3-55.4 9.2-59.8 65.1z"/>
						<g id="&lt;Group&gt;">
							<path id="&lt;Path&gt;" class="s6" d="m849.2 272.5c1.3-0.1 2.5-0.5 3.8-0.7 1.5-0.3 2.6-0.4 3.7-1.6 0.6-0.6 0.6-1.8 0-2.4-1.2-1.4-3.1-1.5-4.8-1.2-1.9 0.3-3.3 1.1-4.6 2.5-1.2 1.5 0.2 3.6 1.9 3.4z"/>
							<path id="&lt;Path&gt;" class="s6" d="m886.4 273.3c-1.3-0.1-2.5-0.5-3.7-0.8-1.5-0.3-2.7-0.5-3.7-1.6-0.6-0.6-0.5-1.8 0-2.4 1.2-1.5 3.1-1.5 4.9-1.1 1.9 0.3 3.3 1.1 4.5 2.6 1.2 1.4-0.2 3.5-2 3.3z"/>
							<g id="&lt;Group&gt;">
								<g id="&lt;Group&gt;">
									<path id="&lt;Path&gt;" class="s6" d="m877.7 287.4c0-0.1 0.3 0.2 0.3 0.4-0.3 3.8 0.1 8.2 3.5 9.6 0.1 0 0.1 0.2 0 0.2-4.2-0.7-4.7-6.6-3.8-10.2z"/>
									<path id="&lt;Path&gt;" class="s6" d="m881.2 283.6c6.2-0.3 6.3 12 0.6 12.3-5.7 0.2-5.7-12.1-0.6-12.3z"/>
								</g>
								<path id="&lt;Path&gt;" class="s6" d="m883.6 284.2c1.1 0.7 2.2 1.9 3.5 2 1.5 0.2 2.6-1.1 3.6-2.4 0.1-0.1 0.2 0 0.2 0.2 0.1 2.3-0.8 4.8-3.4 5.1-2.3 0.4-3.9-1.7-4.6-4.1-0.1-0.4 0.3-1.1 0.7-0.8z"/>
							</g>
							<g id="&lt;Group&gt;">
								<g id="&lt;Group&gt;">
									<path id="&lt;Path&gt;" class="s6" d="m856.5 286.6c-0.1-0.2-0.3 0.2-0.3 0.3 0.2 3.9-0.3 8.3-3.7 9.6-0.1 0-0.1 0.2 0 0.2 4.2-0.7 4.7-6.5 4-10.1z"/>
									<path id="&lt;Path&gt;" class="s6" d="m853 282.6c-6.2-0.3-6.5 12-0.8 12.4 5.6 0.3 6-12 0.8-12.4z"/>
								</g>
								<path id="&lt;Path&gt;" class="s6" d="m850.4 283.4c-1 0.6-2 1.8-3.1 1.8-1.4 0.1-2.4-1.3-3.2-2.6-0.1-0.1-0.2 0-0.2 0.2-0.1 2.3 0.6 4.8 2.9 5.3 2 0.5 3.6-1.5 4.2-3.9 0.1-0.4-0.2-1.1-0.6-0.8z"/>
							</g>
							<path id="&lt;Path&gt;" class="s6" d="m878 317.7c-0.9 0.9-1.8 2.2-3.1 2.4-1.4 0.2-2.9-0.4-4.2-0.8-0.1 0-0.2 0.1-0.1 0.2 1 1.4 3.2 2.3 4.9 1.9 1.7-0.4 2.5-2 2.8-3.6 0.1-0.2-0.2-0.3-0.3-0.1z"/>
							<g id="&lt;Group&gt;">
								<path id="&lt;Path&gt;" class="s6" d="m862.1 303.8c0 0-0.9 5.7-0.9 8.4 0 0.2 0.7 0.3 1.6 0.4q0 0 0.1 0c4.7 0.8 9.5-0.8 12.4-4.7 0.2-0.3-0.1-0.5-0.3-0.4-3.6 2.6-7.5 3.3-11.8 3.3-0.1-0.7 1.8-9.7 1.3-9.8-1.4-0.1-4.3 0.9-6.1 1.4 1.4-11.9 4.7-23.5 5.8-35.4 0.1-0.5-0.5-0.6-0.7-0.2-4.2 11.9-6.1 25.6-7.8 37.9-0.3 1.5 5.3-0.5 6.4-0.9z"/>
							</g>
							<g id="&lt;Group&gt;">
								<path id="&lt;Path&gt;" class="s6" d="m863.4 312c0 0 2.6 3.6 6.2 5 1.3 0.5 2.7 0.7 4.2 0.3 3.2-0.8 3.3-3.6 2.7-6.1-0.4-2-1.3-3.7-1.3-3.7 0 0-4.6 4.2-11.8 4.5z"/>
								<path id="&lt;Path&gt;" class="s13" d="m869.6 317c1.3 0.5 2.7 0.7 4.2 0.3 3.2-0.8 3.3-3.6 2.7-6.1-3.3 0.3-6.6 2.6-6.9 5.8z"/>
							</g>
						</g>
						<g id="&lt;Group&gt;">
							<path id="&lt;Path&gt;" class="s6" d="m936.5 303.1c-12.3-5.9-12.8-18.8-12.8-18.8-15.3-6.6-23.6-18.6-24.4-19.8 0.4 1.1 3 9.4 4.5 13.6-35.4-6.7-46.2-33.9-46.2-33.9-11.6 11.4-13.9 18.7-15.6 22.4 0 0-0.1-21.7 11.1-36.2 13.8-17.8 60-22.4 81.2 0.9 22.9 25.2 2.2 71.8 2.2 71.8z"/>
							<path id="&lt;Path&gt;" class="s6" d="m876.9 272.2c5.6 3.2 11.9 5.3 18.2 6.7 0 0 0-0.1 0-0.1-10-2.8-18.9-8.1-26-15.8q-4.4-4.9-7.6-10.7c-2.1-4.1-4.2-8.9-4.6-13.6 0-0.3-0.6-0.3-0.6 0.1 0.4 4.9 0.8 9.4 2.8 14 1.8 4.3 4.5 8.3 7.8 11.7 3 3 6.3 5.6 10 7.7z"/>
						</g>
						<g id="&lt;Group&gt;">
							<g id="&lt;Group&gt;">
								<path id="&lt;Path&gt;" class="s12" d="m929.7 301.1c0 0 12.2-17.6 20.1-13.3 8 4.3-1 29.8-10.3 33.3-9.3 3.6-12.8-5-12.8-5z"/>
								<path id="&lt;Path&gt;" class="s6" d="m947.1 295c0.1 0 0.1 0.2 0 0.3-6.5 2.7-9.9 8.8-12.3 15.1 2-2.5 4.6-3.8 7.9-1.5 0.1 0.1 0 0.4-0.2 0.3-2.7-0.5-4.6 0-6.4 2.1-1.3 1.6-2.2 3.5-3.1 5.2-0.3 0.6-1.3 0.3-1.1-0.3q0-0.1 0-0.2c-0.2-8.3 6.2-20.1 15.2-21z"/>
							</g>
							<path id="&lt;Path&gt;" class="s0" d="m931.7 319.8c0 2.3 1.8 4.1 4.1 4.1 2.2 0 4.1-1.8 4.1-4.1 0-2.2-1.9-4-4.1-4-2.3 0-4.1 1.8-4.1 4z"/>
						</g>
					</g>
				</g>
				<path id="&lt;Path&gt;" class="s12" d="m865.2 385.6c0 0-11.5 32.5 9.2 34.8 20.7 2.3 74.8-37.7 74.8-37.7 0 0-15-24.3-39-21.7-19.9 2.2-45 24.6-45 24.6z"/>
				<g id="&lt;Group&gt;">
					<g id="&lt;Group&gt;">
						<path id="&lt;Path&gt;" class="s12" d="m962.9 423.7c0 40.1-23 160.5-45.2 176.8-44.3 32.4-148.3 30.2-177 30.7-12.4 0.2-28.6-82.2-19.4-91.7 9.2-9.5 135.9-13 142.4-17.9 4.5-3.4 40.2-62 60.9-99.7 28-50.9 38.4-18.5 38.3 1.8z"/>
						<g id="&lt;Group&gt;">
							<g id="&lt;Group&gt;">
								<path id="&lt;Path&gt;" class="s12" d="m743.4 535.1c0 0-37.5-4.2-62.1-5.7-13.7-0.9-37.4-0.3-47.8 3.7-15.5 6-76.6 40.7-68.5 55.7 7.4 13.6 26-1.4 26-1.4 0 0-21.9 14.5-10.5 25.7 11.5 11.3 34-10.6 34-10.6 0 0-24.4 13.8-11.1 24.6 11.6 9.4 40.2-13 40.2-13 0 0-27.2 11.6-16.3 22.4 12.1 11.9 59.1-16.4 59.1-16.4 30.6 10.2 50.4 12.2 73.8 10.7 4.3-0.2-16.8-95.7-16.8-95.7z"/>
							</g>
							<g id="&lt;Group&gt;">
								<path id="&lt;Path&gt;" class="s6" d="m607.6 607.5c1.9-1.7 3.7-3.3 5.6-4.9 3.6-3.2 7.1-6.4 11.1-9.1 3.8-2.7 7.8-5.2 11.8-7.6 4.2-2.6 8.8-4.7 13-7.3 0.3-0.2 0.6 0.3 0.2 0.5-4.2 2.4-8.1 5.5-12 8.3-3.8 2.9-7.7 5.7-11.5 8.6-3.8 2.8-7.7 5.3-11.5 8-1.9 1.4-3.7 2.8-5.6 4.2-1.7 1.4-3.4 3-5.3 4-0.2 0.1-0.4-0.2-0.3-0.3 1.2-1.7 3-3.1 4.5-4.4z"/>
								<path id="&lt;Path&gt;" class="s6" d="m586.5 590.5c2.6-3.3 16.5-14.7 20.3-17.4 7.2-5.2 15-9.8 23.1-13.5 0.3-0.1 0.5 0.3 0.3 0.5-7.3 5.3-14.6 10.4-21.9 15.6-3.5 2.5-19.4 14.5-21.2 15.5-0.4 0.3-0.8-0.3-0.6-0.7z"/>
								<path id="&lt;Path&gt;" class="s6" d="m627.1 623.9c2.5-3 15.7-13.6 19.3-16 3.4-2.2 18.3-9.9 23-11.4 0.3-0.1 0.6 0.3 0.3 0.5-7.4 4.4-14.8 8.6-21.9 13.3-3.5 2.3-16.8 12.3-20.3 14.2-0.3 0.2-0.7-0.3-0.4-0.6z"/>
							</g>
						</g>
					</g>
					<g id="&lt;Group&gt;">
						<path id="&lt;Path&gt;" class="s10" d="m768.6 637.2l-34.2-108.6c0 0 124.4-8 128.5-10.1 4-2.1 48.4-80.4 65.9-110.9 17.5-30.5 44.7-17.9 34.6 50.8-10.2 69.2-21.4 123-36.9 139-18.8 19.4-87.6 39.4-157.9 39.8z"/>
						<g id="&lt;Group&gt;">
							<path id="&lt;Path&gt;" class="s0" d="m872.8 568.2c-0.3-3-0.1-5.9 0.3-8.8 0.4-3 1-5.8 2.2-8.6 0.4 3 0.1 5.9-0.3 8.8-0.4 2.9-1 5.8-2.2 8.6z"/>
							<path id="&lt;Path&gt;" class="s0" d="m804.1 630.4c-0.4-3-0.2-5.9 0.2-8.9 0.4-2.9 1-5.7 2.2-8.6 0.4 3.1 0.2 6-0.2 8.9-0.5 2.9-1 5.8-2.2 8.6z"/>
							<path id="&lt;Path&gt;" class="s0" d="m910.6 472.7c-0.4-3-0.2-6 0.2-8.9 0.4-2.9 1-5.8 2.2-8.6 0.4 3 0.2 6-0.2 8.9-0.5 2.9-1 5.8-2.2 8.6z"/>
							<path id="&lt;Path&gt;" class="s0" d="m930.5 557.3c-3 0.4-6 0.1-8.9-0.2-2.9-0.5-5.8-1.1-8.6-2.2 3-0.4 6-0.2 8.9 0.2 2.9 0.4 5.8 1 8.6 2.2z"/>
							<path id="&lt;Path&gt;" class="s0" d="m811 560.7c-3 0.4-6 0.2-8.9-0.2-2.9-0.5-5.8-1-8.6-2.2 3-0.4 6-0.2 8.9 0.2 2.9 0.4 5.8 1 8.6 2.2z"/>
							<path id="&lt;Path&gt;" class="s0" d="m894.5 611.5c1.9-2.4 4.2-4.4 6.5-6.1 2.3-1.8 4.8-3.4 7.6-4.6-1.8 2.4-4.1 4.3-6.4 6.1-2.4 1.8-4.8 3.4-7.7 4.6z"/>
							<path id="&lt;Path&gt;" class="s0" d="m751.1 546.8c1.9-2.4 4.1-4.3 6.5-6.1 2.3-1.8 4.8-3.4 7.6-4.5-1.9 2.4-4.1 4.3-6.4 6.1-2.4 1.7-4.9 3.3-7.7 4.5z"/>
							<path id="&lt;Path&gt;" class="s0" d="m879.9 502.2c-1.8 2.4-4.1 4.3-6.4 6.1-1.8 1.4-3.7 2.6-5.8 3.7q1-1.5 2-3.2 0.1 0 0.1 0 1.2-1.1 2.5-2.1c2.4-1.7 4.8-3.4 7.6-4.5z"/>
							<path id="&lt;Path&gt;" class="s0" d="m964.6 448.8q-0.1 1.2-0.3 2.5c-1.6 1.1-3.3 2-5.1 2.8 1.6-2.1 3.4-3.7 5.4-5.3z"/>
							<path id="&lt;Path&gt;" class="s0" d="m834.1 593.8c1.9-2.4 4.2-4.4 6.5-6.2 2.3-1.7 4.8-3.3 7.6-4.5-1.8 2.4-4.1 4.3-6.4 6.1-2.4 1.8-4.8 3.4-7.7 4.6z"/>
							<path id="&lt;Path&gt;" class="s0" d="m832.1 525c2.4 1.9 4.3 4.1 6.1 6.5 1.7 2.3 3.4 4.8 4.5 7.6-2.4-1.9-4.3-4.1-6.1-6.4-1.8-2.4-3.4-4.8-4.5-7.7z"/>
							<path id="&lt;Path&gt;" class="s0" d="m957.9 404.6c-2.4-1.9-4.3-4.1-6.1-6.4-1.4-2-2.8-4-3.9-6.3q0.6 0 1.1 0.1c1.7 1.5 3.1 3.2 4.4 4.9 1.8 2.4 3.4 4.9 4.5 7.7z"/>
							<path id="&lt;Path&gt;" class="s0" d="m931.7 503.1c2.4 1.9 4.3 4.1 6.1 6.5 1.8 2.3 3.4 4.8 4.6 7.6-2.4-1.9-4.4-4.1-6.2-6.4-1.7-2.4-3.3-4.9-4.5-7.7z"/>
						</g>
						<path id="&lt;Path&gt;" class="s6" d="m901.8 453.6c-4 6-7.8 12.3-11.5 18.6q-0.2 0.2-0.4 0.5 0.3-0.7 0.6-1.4c1.2-3.1 2.3-6.3 3.6-9.4 0.1-0.2-0.2-0.3-0.2-0.1-1.4 3-2.9 5.9-4.2 9q-1.3 3.1-2.4 6.2-4.1 7-8.3 14c-3.6 6.3-7.3 12.6-11 18.9q-1.4 2.3-2.7 4.6c-0.8 1.3-1.7 2.5-3.3 3-1.5 0.5-3.4 0.5-5.1 0.6q-2.7 0.3-5.4 0.7c-8.3 1-16.5 2.3-24.8 3.4-0.2 0-0.2 0.4 0 0.3 7.6-0.5 15.2-0.8 22.8-1.4 3.8-0.3 7.6-0.6 11.3-1.1 1.4-0.2 2.8-0.5 3.9-1.4 1.1-0.9 1.8-2.1 2.5-3.3q11.3-19.5 22.6-39.1c4.3-7.4 8.6-14.8 12.5-22.4 0.2-0.3-0.3-0.5-0.5-0.2z"/>
						<path id="&lt;Path&gt;" class="s6" d="m963.6 482.6c-0.2 2.4-1.1 5-1.8 7.3-0.6 2.2-1.1 4.3-1.8 6.4-0.7 2.4-1.6 4.8-2.4 7.2q2.5-15.9 4-31.9c0-0.4-0.5-0.4-0.6-0.1-2 14.9-4.7 29.8-7.8 44.5-3.2 14.8-7 29.5-11.3 43.9-2.1 7.1-4.3 14.2-6.8 21.2-2.2 6-4.7 12.1-8.7 17.1-4.4 5.4-10.4 8.9-16.6 11.7q-10 4.6-20.4 8c-15.7 5.2-32 8.5-48.1 12.3-0.2 0.1-0.1 0.4 0 0.3 14.8-2.2 29.5-4.9 43.9-8.8 7.3-2.1 14.6-4.3 21.5-7.2 6.4-2.7 13.1-5.6 18.2-10.4 4.9-4.5 8.3-10.4 10.8-16.5 2.7-6.6 4.8-13.4 6.9-20.1 4.6-14.8 8.4-29.7 11.6-44.8q1.3-6.6 2.5-13.2c1.8-4.1 3.2-8.6 4.3-12.9 0.6-2.3 1.2-4.6 1.7-7 0.4-2.3 0.6-4.7 1.2-7 0.1-0.2-0.3-0.3-0.3 0z"/>
						<path id="&lt;Path&gt;" class="s6" d="m790.2 628.5c-5.6-15.6-11.6-31.1-16.5-47-4.9-15.6-9.7-31.5-12.9-47.6 0-0.3 0.4-0.4 0.5-0.1 5.9 15.3 10.7 31.1 15.6 46.8 4.9 15.7 9.3 31.7 14.2 47.5 0.2 0.6-0.6 1-0.9 0.4z"/>
						<path id="&lt;Path&gt;" class="s6" d="m769.3 526c-3-0.2-6 0-9 0q-4.5 0.2-8.9 0.4c-6 0.2-11.9 0.7-17.9 1.2-0.4 0-0.9 0.5-0.7 0.9 0.8 2.1 1.7 4.5 3.1 6.3 0.1 0.1 0.3 0 0.3-0.1-0.2-1.9-0.9-3.9-1.6-5.7 5.7-0.4 11.4-0.7 17.1-1.2 2.9-0.2 5.9-0.4 8.9-0.6 2.9-0.2 5.8-0.3 8.7-0.8 0.3 0 0.2-0.4 0-0.4z"/>
					</g>
				</g>
				<g id="&lt;Group&gt;">
					<path id="&lt;Path&gt;" class="s7" d="m634.9 502.7c7.4 3.7 41.3 5.1 51.2 17.3 6.6 8 6 16.2 9.8 40.4 3.3 20.9-14.1 15.9-19 5.2-7.9-16.9-14.6-35.3-14.6-35.3-8-0.6-17.4 0.2-17.4 0.2z"/>
					<g id="&lt;Group&gt;">
						<path id="&lt;Path&gt;" class="s7" d="m659.4 582c11.7-7.5 49.2 39.9 30.5 52.5-18.8 12.5-43.8-44.1-30.5-52.5z"/>
						<path id="&lt;Path&gt;" class="s7" d="m640.3 592.1c11.8-7.5 49.3 39.9 30.6 52.5-18.8 12.5-43.9-44.1-30.6-52.5z"/>
						<path id="&lt;Path&gt;" class="s7" d="m626.9 593.9c11.7-5.1 39.2 43.2 20.4 52-18.8 8.8-33.7-46.2-20.4-52z"/>
						<path id="&lt;Path&gt;" class="s7" d="m613.1 592.6c12.3-1.5 24.2 51.1 4.3 54-19.9 2.9-18.3-52.3-4.3-54z"/>
						<path id="&lt;Path&gt;" class="s6" d="m656.7 598.4c2.2 2.3 4 5 5.8 7.6 2 2.8 3.9 5.7 5.6 8.7 1.5 2.8 3.1 5.8 4.4 8.8 1.3 3.2 2.2 6.7 3.6 9.9 0.2 0.3-0.3 0.5-0.5 0.2-1.2-3.1-3.1-6.1-4.8-9-1.6-2.9-3.1-5.9-4.7-8.8-1.6-2.8-3.1-5.7-4.7-8.5-1.7-2.9-3.6-5.7-5.1-8.6-0.1-0.3 0.2-0.5 0.4-0.3z"/>
						<path id="&lt;Path&gt;" class="s6" d="m637.1 598.1c1.3 3.6 5.3 17.2 6.6 20.7q2.1 5.3 4.4 10.5c1.6 3.5 3 7.3 4.8 10.7 0.2 0.3-0.3 0.5-0.4 0.2-1.9-3.4-4.1-6.5-5.8-10q-2.6-5.2-4.6-10.6c-1.4-3.6-5.1-17.7-5.5-21.4-0.1-0.4 0.4-0.4 0.5-0.1z"/>
						<path id="&lt;Path&gt;" class="s6" d="m622.4 601.5c0.9 5.1 1.6 10.2 2.5 15.3q0.7 3.8 1.4 7.5 0.4 1.8 0.7 3.7c0.2 1.3 0.3 2.9 0.8 4.1 0.1 0.4-0.5 0.5-0.6 0.1-0.2-1.5-1-3-1.4-4.5q-0.5-1.7-1-3.5-0.9-3.7-1.5-7.5c-0.8-4.9-1.6-10.1-1.6-15.1 0-0.4 0.6-0.5 0.7-0.1z"/>
					</g>
				</g>
			</g>
		</g>
	</g>
	<g id="Speech Bubble">
		<g id="&lt;Group&gt;">
			<path id="&lt;Path&gt;" class="s10" d="m805.4 265.2c4.9-7.5 7.7-16 7.7-24.9 0-31.5-34.6-57.1-77.3-57.1-42.6 0-77.2 25.6-77.2 57.1 0 31.5 34.6 57.1 77.2 57.1 20.7 0 39.5-6 53.3-15.8l26.7 6.7z"/>
			<g id="&lt;Group&gt;">
				<path id="&lt;Path&gt;" class="s6" d="m708.1 240.3c0 4.4-3.6 8-8 8-4.5 0-8.1-3.6-8.1-8 0-4.4 3.6-8 8.1-8 4.4 0 8 3.6 8 8z"/>
				<path id="&lt;Path&gt;" class="s6" d="m743.9 240.3c0 4.4-3.6 8-8 8-4.5 0-8.1-3.6-8.1-8 0-4.4 3.6-8 8.1-8 4.4 0 8 3.6 8 8z"/>
				<path id="&lt;Path&gt;" class="s6" d="m779.7 240.3c0 4.4-3.6 8-8 8-4.5 0-8.1-3.6-8.1-8 0-4.4 3.6-8 8.1-8 4.4 0 8 3.6 8 8z"/>
			</g>
		</g>
	</g>
	<g id="Light Bulb">
		<g id="&lt;Group&gt;">
			<g id="&lt;Group&gt;">
				<path id="&lt;Path&gt;" class="s10" d="m526.5 94c-4.4 37.3-28.4 44.1-32.4 54.1-2.2 5.4-5.1 19-5.1 19l-39-0.1c0 0-2.8-13.7-4.9-19-4-10-28-16.9-32.2-54.3-2.8-24.5 15.7-63.2 57-63.1 41.2 0.1 59.5 38.9 56.6 63.4z"/>
				<g id="&lt;Group&gt;">
					<path id="&lt;Path&gt;" class="s0" d="m459 169.8l-11.5-62.1 2-0.3 11.4 62z"/>
					<path id="&lt;Path&gt;" class="s0" d="m480.1 169.8l-2-0.3 11.7-62 2 0.4z"/>
					<path id="&lt;Compound Path&gt;" fill-rule="evenodd" class="s0" d="m469.6 128.2q0 0 0 0c-3 0-6.1-2.4-8.6-6.8q-0.2-0.3-0.4-0.6c-1.1 1.2-2.2 1.8-3.3 1.8q0 0 0 0c-5.9 0-8.2-12.1-8.3-12.6l1-0.2c0 0.2 2.2 11.8 7.3 11.8q0 0 0 0c0.9 0 1.9-0.6 2.8-1.8-2.4-5.1-3.8-11.7-2.1-14.7 0.6-1 1.6-1.6 2.7-1.6q0 0 0 0c1.5 0 2.6 0.6 3.3 1.8 1.7 3.1 0.4 9.4-1.9 13.4q-0.4 0.7-0.8 1.2 0.2 0.5 0.5 1c1.4 2.4 4.2 6.3 7.8 6.3q0 0 0 0c2.5 0 4.9-1.9 6.9-5.3q0.2-0.4 0.5-0.9-0.8-0.8-1.4-1.9c-2.4-4.2-2.9-10.4-1.1-13.6 0.8-1.3 1.9-2 3.2-2q0 0 0 0c1 0 1.9 0.6 2.5 1.6 1.7 3 0.7 10.1-2 15.7 1 1 2.3 1.7 3.9 1.7q0 0 0 0c3.6 0 6.7-8.5 7.7-11.8l0.9 0.2c-0.1 0.6-3.6 12.6-8.6 12.6q0 0 0 0c-1.6 0-3.1-0.6-4.4-1.7q-0.2 0.3-0.3 0.6c-1.6 2.7-4.2 5.8-7.8 5.8zm8.1-23.7q-1.4 0.1-2.3 1.5c-1.6 2.9-1.2 8.7 1.1 12.6q0.4 0.7 1 1.4c2.4-5.2 3.3-11.8 1.8-14.4q-0.6-1.1-1.6-1.1 0 0 0 0zm-17 0q-1.2 0-1.8 1.1c-1.4 2.4-0.5 8.2 1.9 13.3q0.2-0.3 0.4-0.7c2.2-3.7 3.4-9.6 1.9-12.4q-0.8-1.3-2.4-1.3 0 0 0 0z"/>
				</g>
				<g id="&lt;Group&gt;">
					<path id="&lt;Path&gt;" class="s8" d="m493.6 174.9l-48.1-0.1v-9.4l48.1 0.1z"/>
					<path id="&lt;Path&gt;" class="s8" d="m493.5 185.8l-48.1-0.1 0.1-9.4 48.1 0.1z"/>
					<path id="&lt;Path&gt;" class="s8" d="m493.5 196.7l-48.1-0.1v-9.4l48.1 0.1z"/>
				</g>
			</g>
			<g id="&lt;Group&gt;">
				<path id="&lt;Path&gt;" class="s6" d="m471.6 0c0.8 2.6 0.9 5.2 0.9 7.8-0.1 2.6-0.3 5.2-1.1 7.8-0.8-2.6-0.9-5.2-0.9-7.8 0.1-2.6 0.3-5.2 1.1-7.8z"/>
				<path id="&lt;Path&gt;" class="s6" d="m428 10.7c2 1.9 3.4 4 4.7 6.3 1.2 2.3 2.3 4.6 2.9 7.3-2-1.9-3.4-4.1-4.7-6.3-1.2-2.3-2.3-4.7-2.9-7.3z"/>
				<path id="&lt;Path&gt;" class="s6" d="m395.6 41.7c2.6 0.7 4.9 1.8 7.2 3.1 2.2 1.4 4.3 2.9 6.1 4.9-2.6-0.7-4.9-1.8-7.2-3.1-2.2-1.4-4.3-2.9-6.1-4.9z"/>
				<path id="&lt;Path&gt;" class="s6" d="m383 84.8c2.6-0.7 5.2-0.9 7.8-0.9 2.6 0.1 5.2 0.3 7.8 1.1-2.6 0.8-5.2 0.9-7.8 0.9-2.6 0-5.2-0.3-7.8-1.1z"/>
				<path id="&lt;Path&gt;" class="s6" d="m393.7 128.4c1.9-1.9 4-3.3 6.3-4.6 2.3-1.3 4.6-2.4 7.3-2.9-1.9 1.9-4.1 3.3-6.3 4.6-2.3 1.2-4.7 2.3-7.3 2.9z"/>
				<path id="&lt;Path&gt;" class="s6" d="m543.8 131.7c-2.6-0.6-4.9-1.8-7.1-3.1-2.2-1.4-4.4-2.8-6.2-4.8 2.6 0.6 4.9 1.8 7.2 3.1 2.2 1.3 4.3 2.8 6.1 4.8z"/>
				<path id="&lt;Path&gt;" class="s6" d="m556.4 88.6c-2.6 0.8-5.2 0.9-7.8 0.9-2.6 0-5.1-0.3-7.7-1.1 2.6-0.8 5.2-0.9 7.8-0.9 2.5 0.1 5.1 0.3 7.7 1.1z"/>
				<path id="&lt;Path&gt;" class="s6" d="m545.8 45c-1.9 2-4.1 3.4-6.3 4.7-2.3 1.2-4.7 2.3-7.3 2.9 1.9-2 4-3.4 6.3-4.7 2.3-1.2 4.6-2.3 7.3-2.9z"/>
				<path id="&lt;Path&gt;" class="s6" d="m514.7 12.6c-0.6 2.6-1.8 4.9-3.1 7.2-1.4 2.2-2.8 4.3-4.9 6.1 0.7-2.6 1.9-4.9 3.2-7.1 1.3-2.2 2.8-4.4 4.8-6.2z"/>
			</g>
		</g>
	</g>
</svg>